M48
;DRILL file {KiCad 4.0.4+e1-6308~48~ubuntu14.04.1-stable} date Mon Jan  9 14:32:44 2017
;FORMAT={-:-/ absolute / metric / decimal}
FMAT,2
METRIC,TZ
T1C0.330
T2C0.635
T3C0.800
T4C0.813
T5C0.889
T6C1.001
T7C1.100
T8C1.570
T9C2.200
T10C2.301
T11C3.300
%
G90
G05
M71
T1
X118.872Y-76.2
X124.714Y-80.772
X125.222Y-79.248
X125.984Y-78.994
X128.016Y-84.836
X129.058Y-87.35
X129.794Y-81.902
X130.048Y-79.248
X132.334Y-76.962
X132.362Y-87.348
X132.588Y-84.582
X133.604Y-79.248
X134.366Y-84.074
X134.366Y-87.376
X134.62Y-80.518
X136.652Y-90.424
X139.052Y-86.36
X139.192Y-84.074
X141.224Y-77.216
X142.494Y-80.772
X143.002Y-72.898
X143.51Y-72.136
X143.764Y-74.676
X143.764Y-89.408
X145.542Y-80.772
X145.542Y-88.138
X146.05Y-77.216
X146.558Y-74.676
X151.384Y-86.614
X151.638Y-88.138
X152.908Y-77.978
X153.924Y-77.978
X154.686Y-77.47
X154.686Y-86.868
X154.825Y-80.645
X154.94Y-78.486
X154.94Y-88.392
X156.972Y-82.804
X157.706Y-80.732
X157.734Y-80.01
X157.734Y-81.534
X157.768Y-87.008
X158.496Y-83.807
X158.537Y-82.909
X158.641Y-86.727
X159.004Y-85.852
X159.618Y-85.109
X160.528Y-85.103
X160.528Y-86.106
X161.29Y-83.566
X161.798Y-88.9
X161.798Y-91.44
X161.99Y-82.996
X162.025Y-72.055
X162.306Y-72.898
X163.322Y-79.502
X163.322Y-83.566
X164.592Y-91.44
X164.846Y-78.486
X166.37Y-84.328
X166.37Y-91.44
X166.624Y-82.296
X169.164Y-91.694
X170.688Y-90.17
X177.8Y-91.948
X178.308Y-85.344
X178.562Y-87.63
X179.07Y-80.518
X179.324Y-57.912
X179.412Y-86.055
X179.412Y-86.921
X180.34Y-85.344
X180.34Y-87.63
X182.372Y-75.184
X183.388Y-75.692
X183.622Y-84.562
X183.896Y-66.294
X183.896Y-81.28
X184.708Y-80.06
X185.42Y-87.884
X186.182Y-66.802
X186.944Y-81.788
X187.198Y-66.294
X187.96Y-65.532
X188.468Y-58.42
X188.468Y-84.836
X188.976Y-68.58
X189.337Y-81.28
X189.484Y-71.628
X189.484Y-82.804
X189.484Y-85.344
X189.992Y-67.564
X191.008Y-70.612
X192.532Y-58.42
X192.532Y-89.662
X194.056Y-85.344
X194.564Y-81.28
X195.072Y-79.756
X195.072Y-82.296
X195.072Y-83.82
X195.58Y-76.2
X197.104Y-76.2
X197.104Y-88.138
X197.612Y-66.04
X197.612Y-78.74
X198.12Y-57.658
T2
X86.36Y-67.31
X88.9Y-63.5
X95.885Y-63.754
X97.155Y-67.31
X104.648Y-77.978
T3
X88.71Y-61.575
X92.71Y-61.575
X96.71Y-61.575
T4
X91.092Y-80.167
X91.092Y-82.707
X93.091Y-80.167
X93.091Y-82.707
X114.554Y-74.422
X117.094Y-74.422
X155.194Y-92.202
X157.734Y-92.202
T5
X182.118Y-68.834
X184.404Y-68.834
X185.42Y-62.23
X186.436Y-64.008
X187.452Y-62.23
X188.468Y-64.008
X189.484Y-62.23
X190.5Y-64.008
X191.516Y-62.23
X192.532Y-64.008
X193.548Y-68.834
X195.834Y-68.834
T6
X105.451Y-67.231
X107.95Y-67.231
X125.771Y-67.231
X128.27Y-67.231
X146.091Y-67.231
X148.59Y-67.231
X166.411Y-67.231
X168.91Y-67.231
T7
X86.71Y-57.325
X86.71Y-63.325
X98.71Y-57.325
X98.71Y-63.325
T8
X180.848Y-63.119
X197.104Y-63.119
T9
X102.852Y-62.967
X113.05Y-62.967
X123.172Y-62.967
X133.37Y-62.967
X143.492Y-62.967
X153.69Y-62.967
X163.812Y-62.967
X174.01Y-62.967
T10
X88.392Y-75.438
X88.392Y-87.437
T11
X182.626Y-59.69
X195.326Y-59.69
T0
M30
