G04 #@! TF.FileFunction,Soldermask,Bot*
%FSLAX46Y46*%
G04 Gerber Fmt 4.6, Leading zero omitted, Abs format (unit mm)*
G04 Created by KiCad (PCBNEW 4.0.4+e1-6308~48~ubuntu14.04.1-stable) date Mon Jan  9 14:38:12 2017*
%MOMM*%
%LPD*%
G01*
G04 APERTURE LIST*
%ADD10C,0.100000*%
%ADD11O,3.900120X5.401260*%
%ADD12C,2.000200*%
%ADD13C,1.797000*%
%ADD14C,2.400000*%
%ADD15C,1.901140*%
%ADD16C,3.700000*%
%ADD17C,1.900000*%
%ADD18C,1.400000*%
%ADD19C,1.924000*%
%ADD20C,3.100020*%
%ADD21C,3.670000*%
G04 APERTURE END LIST*
D10*
D11*
X143492220Y-62966600D03*
X153690320Y-62966600D03*
D12*
X148590000Y-67231260D03*
X146090640Y-67231260D03*
D11*
X163812220Y-62966600D03*
X174010320Y-62966600D03*
D12*
X168910000Y-67231260D03*
X166410640Y-67231260D03*
D11*
X123172220Y-62966600D03*
X133370320Y-62966600D03*
D12*
X128270000Y-67231260D03*
X125770640Y-67231260D03*
D11*
X102852220Y-62966600D03*
X113050320Y-62966600D03*
D12*
X107950000Y-67231260D03*
X105450640Y-67231260D03*
D13*
X114554000Y-74422000D03*
X117094000Y-74422000D03*
X155194000Y-92202000D03*
X157734000Y-92202000D03*
D14*
X197104000Y-63119000D03*
D15*
X182118000Y-68834000D03*
X184404000Y-68834000D03*
X193548000Y-68834000D03*
X195834000Y-68834000D03*
X192532000Y-64008000D03*
X190500000Y-64008000D03*
X188468000Y-64008000D03*
X186436000Y-64008000D03*
X189484000Y-62230000D03*
X187452000Y-62230000D03*
X191516000Y-62230000D03*
X185420000Y-62230000D03*
D16*
X182626000Y-59690000D03*
X195326000Y-59690000D03*
D14*
X180848000Y-63119000D03*
D17*
X98710000Y-57325000D03*
X86710000Y-63325000D03*
X98710000Y-63325000D03*
X86710000Y-57325000D03*
D18*
X88710000Y-61575000D03*
X92710000Y-61575000D03*
X96710000Y-61575000D03*
D19*
X93091000Y-80167480D03*
X93091000Y-82707480D03*
X91092020Y-82707480D03*
X91092020Y-80167480D03*
D20*
X88392000Y-75438000D03*
X88392000Y-87436960D03*
D21*
X196342000Y-91948000D03*
X88138000Y-91948000D03*
M02*
