G04 #@! TF.FileFunction,Soldermask,Bot*
%FSLAX46Y46*%
G04 Gerber Fmt 4.6, Leading zero omitted, Abs format (unit mm)*
G04 Created by KiCad (PCBNEW 4.0.1-3.201512221402+6198~38~ubuntu14.04.1-stable) date Fri 12 Feb 2016 10:18:42 AM MST*
%MOMM*%
G01*
G04 APERTURE LIST*
%ADD10C,0.100000*%
%ADD11C,1.155040*%
%ADD12C,2.650000*%
%ADD13C,2.150000*%
%ADD14C,1.924000*%
%ADD15C,2.432000*%
%ADD16C,3.676600*%
%ADD17O,3.900120X5.401260*%
%ADD18C,2.000200*%
G04 APERTURE END LIST*
D10*
D11*
X188168000Y-72354000D03*
X187768000Y-70004000D03*
X188968000Y-71204000D03*
X189768000Y-72354000D03*
X190568000Y-71204000D03*
X191368000Y-72354000D03*
X192168000Y-71204000D03*
X192968000Y-72354000D03*
X193768000Y-71204000D03*
X194568000Y-72354000D03*
X195368000Y-71204000D03*
X196168000Y-72354000D03*
X196968000Y-71204000D03*
X197768000Y-72354000D03*
X198568000Y-71204000D03*
X199368000Y-72354000D03*
X200168000Y-71204000D03*
X200968000Y-72354000D03*
X201768000Y-71204000D03*
X202568000Y-72354000D03*
X203368000Y-71204000D03*
X204168000Y-72354000D03*
X204968000Y-71204000D03*
X205768000Y-72354000D03*
X206568000Y-71204000D03*
X207368000Y-72354000D03*
X208168000Y-71204000D03*
X208968000Y-72354000D03*
X209768000Y-71204000D03*
X210568000Y-72354000D03*
X211368000Y-71204000D03*
X212168000Y-72354000D03*
X212968000Y-71204000D03*
X213768000Y-72354000D03*
X214568000Y-71204000D03*
X188568000Y-68854000D03*
X189368000Y-70004000D03*
X190168000Y-68854000D03*
X190968000Y-70004000D03*
X191768000Y-68854000D03*
X192568000Y-70004000D03*
X193368000Y-68854000D03*
X194168000Y-70004000D03*
X194968000Y-68854000D03*
X195768000Y-70004000D03*
X196568000Y-68854000D03*
X197368000Y-70004000D03*
X198168000Y-68854000D03*
X198968000Y-70004000D03*
X199768000Y-68854000D03*
X200568000Y-70004000D03*
X201368000Y-68854000D03*
X202168000Y-70004000D03*
X202968000Y-68854000D03*
X203768000Y-70004000D03*
X204568000Y-68854000D03*
X205368000Y-70004000D03*
X206168000Y-68854000D03*
X206968000Y-70004000D03*
X207768000Y-68854000D03*
X208568000Y-70004000D03*
X209368000Y-68854000D03*
X210168000Y-70004000D03*
X210968000Y-68854000D03*
X211768000Y-70004000D03*
X212568000Y-68854000D03*
X213368000Y-70004000D03*
X214168000Y-68854000D03*
D12*
X217348000Y-70104000D03*
X184998000Y-70104000D03*
D13*
X180218000Y-67474000D03*
X222118000Y-67474000D03*
D14*
X163195000Y-85953600D03*
X164465000Y-83413600D03*
X165735000Y-85953600D03*
X167005000Y-83413600D03*
X168275000Y-85953600D03*
X169545000Y-83413600D03*
X170815000Y-85953600D03*
X172085000Y-83413600D03*
X172085000Y-76835000D03*
X158115000Y-83413600D03*
X158115000Y-76835000D03*
X144145000Y-83413600D03*
X144145000Y-76835000D03*
X130175000Y-83413600D03*
X130175000Y-76835000D03*
X167005000Y-76835000D03*
X153035000Y-83413600D03*
X153035000Y-76835000D03*
X139065000Y-83413600D03*
X139065000Y-76835000D03*
X125095000Y-83413600D03*
X125095000Y-76835000D03*
X168275000Y-79375000D03*
X154305000Y-85953600D03*
X154305000Y-79375000D03*
X140335000Y-85953600D03*
X140335000Y-79375000D03*
X126365000Y-85953600D03*
X126365000Y-79375000D03*
X169545000Y-76835000D03*
X155575000Y-83413600D03*
X155575000Y-76835000D03*
X141605000Y-83413600D03*
X141605000Y-76835000D03*
X127635000Y-83413600D03*
X127635000Y-76835000D03*
X170815000Y-79375000D03*
X156845000Y-85953600D03*
X156845000Y-79375000D03*
X142875000Y-85953600D03*
X142875000Y-79375000D03*
X128905000Y-85953600D03*
X128905000Y-79375000D03*
X165735000Y-79375000D03*
X151765000Y-85953600D03*
X151765000Y-79375000D03*
X137795000Y-85953600D03*
X137795000Y-79375000D03*
X123825000Y-85953600D03*
X123825000Y-79375000D03*
X163195000Y-79375000D03*
X149225000Y-85953600D03*
X149225000Y-79375000D03*
X135255000Y-85953600D03*
X135255000Y-79375000D03*
X121285000Y-85953600D03*
X121285000Y-79375000D03*
X164465000Y-76835000D03*
X150495000Y-83413600D03*
X150495000Y-76835000D03*
X136525000Y-83413600D03*
X136525000Y-76835000D03*
X122555000Y-83413600D03*
X122555000Y-76835000D03*
D15*
X176149000Y-85953600D03*
D16*
X173355000Y-70485000D03*
X120015000Y-70485000D03*
D15*
X160020000Y-87960200D03*
X146050000Y-87960200D03*
X132080000Y-87960200D03*
X176149000Y-65913000D03*
X175488600Y-79629000D03*
X117221000Y-81864200D03*
X117221000Y-65913000D03*
X117881400Y-76352400D03*
D17*
X100566220Y-71856600D03*
X110764320Y-71856600D03*
D18*
X105664000Y-76121260D03*
X103164640Y-76121260D03*
M02*
