G04 #@! TF.FileFunction,Copper,L4,Bot,Signal*
%FSLAX46Y46*%
G04 Gerber Fmt 4.6, Leading zero omitted, Abs format (unit mm)*
G04 Created by KiCad (PCBNEW 4.0.1-3.201512221402+6198~38~ubuntu14.04.1-stable) date Fri 12 Feb 2016 10:18:42 AM MST*
%MOMM*%
G01*
G04 APERTURE LIST*
%ADD10C,0.100000*%
%ADD11C,0.955040*%
%ADD12C,2.250000*%
%ADD13C,1.524000*%
%ADD14C,2.032000*%
%ADD15O,3.500120X5.001260*%
%ADD16C,1.600200*%
%ADD17C,0.600000*%
%ADD18C,0.711200*%
%ADD19C,0.457200*%
%ADD20C,0.609600*%
%ADD21C,0.177800*%
%ADD22C,0.233341*%
%ADD23C,0.600000*%
G04 APERTURE END LIST*
D10*
D11*
X188168000Y-72354000D03*
X187768000Y-70004000D03*
X188968000Y-71204000D03*
X189768000Y-72354000D03*
X190568000Y-71204000D03*
X191368000Y-72354000D03*
X192168000Y-71204000D03*
X192968000Y-72354000D03*
X193768000Y-71204000D03*
X194568000Y-72354000D03*
X195368000Y-71204000D03*
X196168000Y-72354000D03*
X196968000Y-71204000D03*
X197768000Y-72354000D03*
X198568000Y-71204000D03*
X199368000Y-72354000D03*
X200168000Y-71204000D03*
X200968000Y-72354000D03*
X201768000Y-71204000D03*
X202568000Y-72354000D03*
X203368000Y-71204000D03*
X204168000Y-72354000D03*
X204968000Y-71204000D03*
X205768000Y-72354000D03*
X206568000Y-71204000D03*
X207368000Y-72354000D03*
X208168000Y-71204000D03*
X208968000Y-72354000D03*
X209768000Y-71204000D03*
X210568000Y-72354000D03*
X211368000Y-71204000D03*
X212168000Y-72354000D03*
X212968000Y-71204000D03*
X213768000Y-72354000D03*
X214568000Y-71204000D03*
X188568000Y-68854000D03*
X189368000Y-70004000D03*
X190168000Y-68854000D03*
X190968000Y-70004000D03*
X191768000Y-68854000D03*
X192568000Y-70004000D03*
X193368000Y-68854000D03*
X194168000Y-70004000D03*
X194968000Y-68854000D03*
X195768000Y-70004000D03*
X196568000Y-68854000D03*
X197368000Y-70004000D03*
X198168000Y-68854000D03*
X198968000Y-70004000D03*
X199768000Y-68854000D03*
X200568000Y-70004000D03*
X201368000Y-68854000D03*
X202168000Y-70004000D03*
X202968000Y-68854000D03*
X203768000Y-70004000D03*
X204568000Y-68854000D03*
X205368000Y-70004000D03*
X206168000Y-68854000D03*
X206968000Y-70004000D03*
X207768000Y-68854000D03*
X208568000Y-70004000D03*
X209368000Y-68854000D03*
X210168000Y-70004000D03*
X210968000Y-68854000D03*
X211768000Y-70004000D03*
X212568000Y-68854000D03*
X213368000Y-70004000D03*
X214168000Y-68854000D03*
D12*
X217348000Y-70104000D03*
X184998000Y-70104000D03*
D13*
X163195000Y-85953600D03*
X164465000Y-83413600D03*
X165735000Y-85953600D03*
X167005000Y-83413600D03*
X168275000Y-85953600D03*
X169545000Y-83413600D03*
X170815000Y-85953600D03*
X172085000Y-83413600D03*
X172085000Y-76835000D03*
X158115000Y-83413600D03*
X158115000Y-76835000D03*
X144145000Y-83413600D03*
X144145000Y-76835000D03*
X130175000Y-83413600D03*
X130175000Y-76835000D03*
X167005000Y-76835000D03*
X153035000Y-83413600D03*
X153035000Y-76835000D03*
X139065000Y-83413600D03*
X139065000Y-76835000D03*
X125095000Y-83413600D03*
X125095000Y-76835000D03*
X168275000Y-79375000D03*
X154305000Y-85953600D03*
X154305000Y-79375000D03*
X140335000Y-85953600D03*
X140335000Y-79375000D03*
X126365000Y-85953600D03*
X126365000Y-79375000D03*
X169545000Y-76835000D03*
X155575000Y-83413600D03*
X155575000Y-76835000D03*
X141605000Y-83413600D03*
X141605000Y-76835000D03*
X127635000Y-83413600D03*
X127635000Y-76835000D03*
X170815000Y-79375000D03*
X156845000Y-85953600D03*
X156845000Y-79375000D03*
X142875000Y-85953600D03*
X142875000Y-79375000D03*
X128905000Y-85953600D03*
X128905000Y-79375000D03*
X165735000Y-79375000D03*
X151765000Y-85953600D03*
X151765000Y-79375000D03*
X137795000Y-85953600D03*
X137795000Y-79375000D03*
X123825000Y-85953600D03*
X123825000Y-79375000D03*
X163195000Y-79375000D03*
X149225000Y-85953600D03*
X149225000Y-79375000D03*
X135255000Y-85953600D03*
X135255000Y-79375000D03*
X121285000Y-85953600D03*
X121285000Y-79375000D03*
X164465000Y-76835000D03*
X150495000Y-83413600D03*
X150495000Y-76835000D03*
X136525000Y-83413600D03*
X136525000Y-76835000D03*
X122555000Y-83413600D03*
X122555000Y-76835000D03*
D14*
X176149000Y-85953600D03*
X160020000Y-87960200D03*
X146050000Y-87960200D03*
X132080000Y-87960200D03*
X176149000Y-65913000D03*
X175488600Y-79629000D03*
X117221000Y-81864200D03*
X117221000Y-65913000D03*
X117881400Y-76352400D03*
D15*
X100566220Y-71856600D03*
X110764320Y-71856600D03*
D16*
X105664000Y-76121260D03*
X103164640Y-76121260D03*
D17*
X188017075Y-85687469D03*
X98044000Y-105156000D03*
X218440000Y-82804000D03*
X111760000Y-103632000D03*
X109728000Y-103632000D03*
X127508000Y-103124000D03*
X124968000Y-103124000D03*
X139700000Y-103632000D03*
X141732000Y-103632000D03*
X156972000Y-103124000D03*
X154940000Y-103124000D03*
X219456000Y-88900000D03*
X170180000Y-103632000D03*
X172212000Y-103632000D03*
X217424000Y-103632000D03*
X214884000Y-103632000D03*
X202184000Y-103632000D03*
X199644000Y-103124000D03*
X186436000Y-103632000D03*
X184912000Y-103632000D03*
X98552000Y-84328000D03*
X122673305Y-69841305D03*
X114185242Y-73553152D03*
X117348000Y-72136000D03*
X182880000Y-84062385D03*
X182900231Y-80529615D03*
X181864000Y-66555910D03*
X161036000Y-106172000D03*
X205740000Y-106680000D03*
X124460000Y-107696000D03*
X133096000Y-75692000D03*
X131064000Y-75191910D03*
X162560000Y-75184000D03*
X160528000Y-76200000D03*
X183388000Y-74168000D03*
X162052000Y-82804000D03*
X154432000Y-88900000D03*
X117856000Y-89408000D03*
X112378803Y-80374803D03*
X103124000Y-84836000D03*
X97580010Y-89408000D03*
X97536000Y-70104000D03*
X105664000Y-65024000D03*
X220980000Y-65024000D03*
X200152000Y-65024000D03*
X224536000Y-109728000D03*
X215392000Y-113792000D03*
X192532000Y-113792000D03*
X168148000Y-113792000D03*
X143764000Y-113792000D03*
X120396000Y-113792000D03*
X102108000Y-113792000D03*
X120396000Y-102616000D03*
X106172000Y-100068090D03*
X106680000Y-104648000D03*
X99060000Y-105156000D03*
X106170998Y-103124000D03*
X104648000Y-95504000D03*
X104382385Y-92456000D03*
X104648000Y-90424000D03*
X108204000Y-83577615D03*
X108305412Y-85078381D03*
X114458318Y-81851289D03*
X109543395Y-78194998D03*
X111649197Y-76089197D03*
X145796000Y-103632000D03*
X145288000Y-101092000D03*
X148821398Y-103146602D03*
X149860000Y-101600000D03*
X150183395Y-100113002D03*
X132080000Y-92964000D03*
X133118601Y-90954601D03*
X134996585Y-91440000D03*
X141224000Y-91440000D03*
X143256000Y-92456000D03*
X144272000Y-87376000D03*
X141732000Y-87884000D03*
X139379293Y-87210849D03*
X137580949Y-88987051D03*
X134112000Y-84328000D03*
X134134601Y-82318601D03*
X133626602Y-78762602D03*
X132588000Y-77216000D03*
X122428000Y-74683910D03*
X124968000Y-74676000D03*
X126492000Y-74676000D03*
X128524000Y-75184000D03*
X147320000Y-76708000D03*
X120904000Y-65024000D03*
X141224000Y-65024000D03*
X163068000Y-65024000D03*
X128016000Y-69088000D03*
X152400000Y-69596000D03*
X173228000Y-65024000D03*
X170688000Y-69088000D03*
X158333859Y-90586140D03*
X161288548Y-92431620D03*
X154940000Y-94996000D03*
X154579603Y-96520000D03*
X158981399Y-93957399D03*
X158496000Y-97536000D03*
X165100000Y-102108000D03*
X165100000Y-100076000D03*
X169415214Y-92456000D03*
X170317055Y-96004090D03*
X167640000Y-91440000D03*
X174244000Y-89916000D03*
X173032857Y-88848735D03*
X172212000Y-86360000D03*
X179434803Y-64405197D03*
X175653242Y-68178848D03*
X176276000Y-70612000D03*
X178823910Y-73660000D03*
X180870602Y-78717398D03*
X179324000Y-76200000D03*
X178308000Y-80407518D03*
X176660827Y-82030801D03*
X178308000Y-82296000D03*
X179189027Y-85921103D03*
X181356000Y-86625615D03*
X181284543Y-89479457D03*
X181749464Y-91432096D03*
X180340000Y-101600000D03*
X180340000Y-99568000D03*
X220472000Y-88900000D03*
X217424000Y-83312000D03*
X203980449Y-84563554D03*
X204386296Y-88517098D03*
X195072000Y-100584000D03*
X194056000Y-97536000D03*
X199644000Y-97028000D03*
X201683910Y-96012000D03*
X199621399Y-90446601D03*
X199636090Y-92456000D03*
X209804000Y-100584000D03*
X215399910Y-95504000D03*
X225044000Y-69088000D03*
X225051910Y-75036397D03*
X225051910Y-73652090D03*
X213360000Y-79756000D03*
X195977197Y-79866803D03*
X199644000Y-77724000D03*
X205740000Y-83312000D03*
X203708000Y-79756000D03*
X220980000Y-75692000D03*
X206248000Y-73660000D03*
X189992000Y-74168000D03*
X197612000Y-74168000D03*
X99560090Y-78740000D03*
X98552000Y-78740000D03*
X98044000Y-82804000D03*
X99568000Y-82804000D03*
X101600000Y-79756000D03*
X212344000Y-93472000D03*
X211328000Y-94488000D03*
X211328000Y-98552000D03*
X213868000Y-97536000D03*
X196088000Y-94996000D03*
X198628000Y-93472000D03*
X196088000Y-98552000D03*
X198628000Y-97536000D03*
X183896000Y-94488000D03*
X181356000Y-93987910D03*
X181356000Y-98044000D03*
X183896000Y-98044000D03*
X184912000Y-98044000D03*
X168148000Y-93472000D03*
X166624000Y-94488000D03*
X166624000Y-98044000D03*
X169164000Y-97162910D03*
X153924000Y-93980000D03*
X151892000Y-92964000D03*
X151384000Y-98044000D03*
X153924000Y-97536000D03*
X138684000Y-93980000D03*
X137160000Y-92964000D03*
X139192000Y-97536000D03*
X135680403Y-98088403D03*
X122936000Y-92964000D03*
X124459978Y-94488000D03*
X120904000Y-100076000D03*
X124460000Y-97175603D03*
X108712000Y-93980000D03*
X105664000Y-93980000D03*
X105671910Y-98552000D03*
X108712000Y-98044000D03*
X112776000Y-99060000D03*
X110744000Y-98552000D03*
X110744000Y-99568000D03*
X110236000Y-97536000D03*
X128524000Y-99060000D03*
X126492000Y-98552000D03*
X125984000Y-99568000D03*
X124460000Y-98044000D03*
X142748000Y-100076000D03*
X142748000Y-99067910D03*
X140716000Y-99067910D03*
X140716000Y-100076000D03*
X157988000Y-99060000D03*
X155956000Y-98552000D03*
X155956000Y-99568000D03*
X154432000Y-98044000D03*
X173228000Y-99568000D03*
X171196000Y-99060000D03*
X171196000Y-100076000D03*
X169561197Y-97933197D03*
X188468000Y-100576090D03*
X185928000Y-99059990D03*
X186436000Y-98044000D03*
X203200000Y-100076000D03*
X201168000Y-99060000D03*
X200660000Y-100076000D03*
X200152000Y-98044000D03*
X216408000Y-99060000D03*
X215900000Y-100076000D03*
X217932000Y-98044000D03*
X215900000Y-98044000D03*
X215900000Y-87884000D03*
X215900000Y-89916000D03*
X209804000Y-82804000D03*
X211836000Y-82296000D03*
X220472000Y-82804000D03*
X220980000Y-78232000D03*
X218948000Y-78740000D03*
D18*
X212852000Y-78740000D03*
D19*
X201168000Y-96520000D03*
X204216000Y-87884000D03*
X201676000Y-92964000D03*
X195580000Y-101092000D03*
X225044000Y-75692000D03*
X225628213Y-74676000D03*
X199136000Y-76708000D03*
X194564000Y-79248000D03*
X129540000Y-74676000D03*
X194818000Y-97282000D03*
X204216000Y-86868000D03*
X201168000Y-92456000D03*
X199136000Y-96520000D03*
X203708000Y-85851984D03*
X200660000Y-91948000D03*
X202692000Y-86360000D03*
X200152000Y-91440000D03*
X166116000Y-102108000D03*
X166116000Y-100584000D03*
X169672000Y-96520000D03*
X169672000Y-95504000D03*
X150876000Y-101600000D03*
X127508000Y-74168000D03*
X178308000Y-74168000D03*
X125984000Y-73660000D03*
X150876000Y-100076000D03*
X124460000Y-73660000D03*
X153924000Y-96520000D03*
X122936000Y-74168000D03*
X153924000Y-95504000D03*
X182372000Y-65532000D03*
X181356000Y-65532000D03*
X110236000Y-78232000D03*
X120904000Y-102108000D03*
X112328316Y-76768316D03*
X120904000Y-101092000D03*
X124460000Y-96520000D03*
X113284000Y-76708000D03*
X176276000Y-69596000D03*
X181356000Y-64515996D03*
X175260000Y-69596000D03*
X180263787Y-64516000D03*
X114300000Y-76708000D03*
X124460000Y-95504000D03*
X215392000Y-96520000D03*
X210312000Y-101600000D03*
X214376000Y-96520000D03*
X209804000Y-99568000D03*
X180848006Y-101092000D03*
X204724000Y-82804000D03*
X180848000Y-100075994D03*
X204724000Y-81788000D03*
X185928010Y-97536000D03*
X203708000Y-81788000D03*
X203708000Y-80772000D03*
X184912000Y-95504000D03*
X224028000Y-69596000D03*
X225044000Y-70104000D03*
X225552000Y-70612000D03*
X225552000Y-71628000D03*
X105664000Y-100584000D03*
X105664000Y-102616000D03*
X225044000Y-72644000D03*
X105664000Y-95504000D03*
X105664000Y-104140000D03*
X224028000Y-73660000D03*
D17*
X171946068Y-88657932D03*
X172497660Y-88106340D03*
X172952204Y-85619796D03*
X173736000Y-88253385D03*
X175768000Y-82391146D03*
X180730035Y-86108580D03*
X182372000Y-89017965D03*
X175768000Y-83171216D03*
X179949965Y-86108580D03*
X182372000Y-89798035D03*
X173503796Y-85068204D03*
X173736000Y-89033455D03*
X182470983Y-91342976D03*
X183022575Y-90791384D03*
X159536376Y-96244204D03*
X150489364Y-102990494D03*
X145230668Y-102024751D03*
X132978782Y-92846035D03*
X135123585Y-94488000D03*
X126609965Y-87884000D03*
X177458599Y-80047169D03*
X159787796Y-92431624D03*
X168455808Y-91065455D03*
X142515796Y-91967216D03*
X143561183Y-88140587D03*
X134636236Y-90558201D03*
X132863796Y-79015796D03*
X124577965Y-87884000D03*
X177458599Y-79267099D03*
X159236204Y-92983216D03*
X168455808Y-90285385D03*
X141964204Y-91415624D03*
X142781113Y-88140587D03*
X133856166Y-90558201D03*
X132312204Y-78464204D03*
X125358035Y-87884000D03*
X178698035Y-75692000D03*
X180107796Y-78464204D03*
X158984784Y-96795796D03*
X149937772Y-103542086D03*
X145782260Y-102576343D03*
X132978782Y-92065965D03*
X135903655Y-94488000D03*
X127390035Y-87884000D03*
X177917965Y-75692000D03*
X179556204Y-79015796D03*
X177292000Y-80889965D03*
X160918035Y-77216000D03*
X170555633Y-93486402D03*
X137327755Y-88224244D03*
X134823457Y-83679887D03*
X107597997Y-85245997D03*
X103864204Y-91164204D03*
X177292000Y-81670035D03*
X160137965Y-77216000D03*
X169775563Y-93486402D03*
X137879347Y-87672652D03*
X134823457Y-82899817D03*
X107046405Y-84694405D03*
X104415796Y-91715796D03*
D20*
X208968000Y-72354000D02*
X208968000Y-74856000D01*
X208968000Y-74856000D02*
X212852000Y-78740000D01*
X209768000Y-71204000D02*
X209768000Y-71554000D01*
X209768000Y-71554000D02*
X208968000Y-72354000D01*
D21*
X195580000Y-101092000D02*
X198120000Y-101092000D01*
X198120000Y-101092000D02*
X201168000Y-98044000D01*
X201168000Y-98044000D02*
X201168000Y-96520000D01*
X204216000Y-87884000D02*
X201676000Y-90424000D01*
X201676000Y-92964000D02*
X201676000Y-90424000D01*
X210568000Y-72354000D02*
X210568000Y-73408000D01*
X210568000Y-73408000D02*
X211836000Y-74676000D01*
X223704711Y-74676000D02*
X224720711Y-75692000D01*
X211836000Y-74676000D02*
X223704711Y-74676000D01*
X224720711Y-75692000D02*
X225044000Y-75692000D01*
X225552000Y-74352711D02*
X225552000Y-74676000D01*
X225552000Y-74676000D02*
X225628213Y-74676000D01*
X225367289Y-74168000D02*
X225552000Y-74352711D01*
X211368000Y-73192000D02*
X212344000Y-74168000D01*
X211368000Y-71204000D02*
X211368000Y-73192000D01*
X212344000Y-74168000D02*
X225367289Y-74168000D01*
X194564000Y-79248000D02*
X196596000Y-79248000D01*
X196596000Y-79248000D02*
X199136000Y-76708000D01*
X125984000Y-71120000D02*
X129540000Y-74676000D01*
X118872000Y-68072000D02*
X122936000Y-68072000D01*
X122936000Y-68072000D02*
X125984000Y-71120000D01*
X116332000Y-70612000D02*
X118872000Y-68072000D01*
X110822740Y-76121260D02*
X116332000Y-70612000D01*
X105664000Y-76121260D02*
X110822740Y-76121260D01*
X194818000Y-97282000D02*
X195834000Y-97282000D01*
X195834000Y-97282000D02*
X197104000Y-96012000D01*
X198628000Y-96012000D02*
X199136000Y-96520000D01*
X197104000Y-96012000D02*
X198628000Y-96012000D01*
X203987401Y-87096599D02*
X204216000Y-86868000D01*
X201168000Y-92456000D02*
X201168000Y-89916000D01*
X201168000Y-89916000D02*
X203987401Y-87096599D01*
X200660000Y-91948000D02*
X200660000Y-89408000D01*
X200660000Y-89408000D02*
X203708000Y-86360000D01*
X203708000Y-86360000D02*
X203708000Y-85851984D01*
X200152000Y-88900000D02*
X202692000Y-86360000D01*
X200152000Y-91440000D02*
X200152000Y-88900000D01*
X166116000Y-102108000D02*
X166624000Y-101600000D01*
X187452000Y-67564000D02*
X189992000Y-67564000D01*
X166624000Y-101600000D02*
X167640000Y-101600000D01*
X185420000Y-93472000D02*
X188468000Y-90424000D01*
X167640000Y-101600000D02*
X175768000Y-93472000D01*
X175768000Y-93472000D02*
X185420000Y-93472000D01*
X188468000Y-90424000D02*
X188468000Y-86868000D01*
X188468000Y-86868000D02*
X186436000Y-84836000D01*
X189992000Y-67564000D02*
X190968000Y-68540000D01*
X186436000Y-84836000D02*
X186436000Y-68580000D01*
X186436000Y-68580000D02*
X187452000Y-67564000D01*
X190968000Y-68540000D02*
X190968000Y-69328685D01*
X190968000Y-69328685D02*
X190968000Y-70004000D01*
X175260000Y-92964000D02*
X167640000Y-100584000D01*
X167640000Y-100584000D02*
X166116000Y-100584000D01*
X184912000Y-92964000D02*
X175260000Y-92964000D01*
X187452000Y-90424000D02*
X184912000Y-92964000D01*
X187452000Y-86868000D02*
X187452000Y-90424000D01*
X185928000Y-85344000D02*
X187452000Y-86868000D01*
X185928000Y-80264000D02*
X185928000Y-85344000D01*
X182372000Y-76708000D02*
X185928000Y-80264000D01*
X182372000Y-70104000D02*
X182372000Y-76708000D01*
X184404000Y-68072000D02*
X182372000Y-70104000D01*
X185420000Y-67056000D02*
X184404000Y-68072000D01*
X190645315Y-67056000D02*
X185420000Y-67056000D01*
X191768000Y-68854000D02*
X191768000Y-68178685D01*
X191768000Y-68178685D02*
X190645315Y-67056000D01*
X169672000Y-96520000D02*
X170688000Y-96520000D01*
X174752000Y-92456000D02*
X184404000Y-92456000D01*
X170688000Y-96520000D02*
X174752000Y-92456000D01*
X181356000Y-70104000D02*
X184912000Y-66548000D01*
X184912000Y-66548000D02*
X192532000Y-66548000D01*
X184404000Y-92456000D02*
X186944000Y-89916000D01*
X186944000Y-89916000D02*
X186944000Y-87376000D01*
X181356000Y-76708000D02*
X181356000Y-70104000D01*
X186944000Y-87376000D02*
X185420000Y-85852000D01*
X185420000Y-85852000D02*
X185420000Y-80772000D01*
X185420000Y-80772000D02*
X181356000Y-76708000D01*
X192568000Y-66584000D02*
X192568000Y-70004000D01*
X192532000Y-66548000D02*
X192568000Y-66584000D01*
X173736000Y-91948000D02*
X170180000Y-95504000D01*
X170180000Y-95504000D02*
X169672000Y-95504000D01*
X183896000Y-91948000D02*
X173736000Y-91948000D01*
X185928000Y-89916000D02*
X183896000Y-91948000D01*
X185928000Y-88649493D02*
X185928000Y-89916000D01*
X185928000Y-87376000D02*
X185928000Y-88649493D01*
X184808065Y-86256065D02*
X185928000Y-87376000D01*
X180340000Y-76708000D02*
X184808065Y-81176065D01*
X184808065Y-81176065D02*
X184808065Y-86256065D01*
X180340000Y-70104000D02*
X180340000Y-76708000D01*
X184912000Y-65532000D02*
X180340000Y-70104000D01*
X193040000Y-65532000D02*
X184912000Y-65532000D01*
X193368000Y-65860000D02*
X193040000Y-65532000D01*
X193368000Y-68854000D02*
X193368000Y-65860000D01*
X178308000Y-74168000D02*
X178308000Y-71120000D01*
X178308000Y-71120000D02*
X184404000Y-65024000D01*
X184404000Y-65024000D02*
X193040000Y-65024000D01*
X193040000Y-65024000D02*
X194168000Y-66152000D01*
X194168000Y-66152000D02*
X194168000Y-70004000D01*
X127508000Y-74168000D02*
X124968000Y-71628000D01*
X124968000Y-71628000D02*
X123444000Y-71628000D01*
X122428000Y-72644000D02*
X119380000Y-72644000D01*
X113284000Y-91948000D02*
X123444000Y-91948000D01*
X123444000Y-91948000D02*
X130048000Y-98552000D01*
X134112000Y-98552000D02*
X136652000Y-101092000D01*
X143000466Y-101092000D02*
X144524466Y-99568000D01*
X136652000Y-101092000D02*
X143000466Y-101092000D01*
X148844000Y-99568000D02*
X150647401Y-101371401D01*
X150647401Y-101371401D02*
X150876000Y-101600000D01*
X119380000Y-72644000D02*
X111760000Y-80264000D01*
X111760000Y-90424000D02*
X113284000Y-91948000D01*
X144524466Y-99568000D02*
X148844000Y-99568000D01*
X130048000Y-98552000D02*
X134112000Y-98552000D01*
X111760000Y-80264000D02*
X111760000Y-90424000D01*
X123444000Y-71628000D02*
X122428000Y-72644000D01*
X125984000Y-73660000D02*
X124968000Y-72644000D01*
X120904000Y-73152000D02*
X119380000Y-74676000D01*
X129032000Y-96520000D02*
X147320000Y-96520000D01*
X124968000Y-72644000D02*
X123952000Y-72644000D01*
X123952000Y-72644000D02*
X123444000Y-73152000D01*
X123444000Y-73152000D02*
X120904000Y-73152000D01*
X147320000Y-96520000D02*
X150876000Y-100076000D01*
X119380000Y-74676000D02*
X119380000Y-76677014D01*
X119380000Y-76677014D02*
X117825014Y-78232000D01*
X117825014Y-78232000D02*
X115316000Y-78232000D01*
X115316000Y-78232000D02*
X112776000Y-80772000D01*
X112776000Y-90424000D02*
X113792000Y-91440000D01*
X112776000Y-80772000D02*
X112776000Y-90424000D01*
X113792000Y-91440000D02*
X123952000Y-91440000D01*
X123952000Y-91440000D02*
X129032000Y-96520000D01*
X153924000Y-96520000D02*
X153416000Y-96012000D01*
X120396000Y-74676000D02*
X121412000Y-73660000D01*
X153416000Y-96012000D02*
X129540000Y-96012000D01*
X129540000Y-96012000D02*
X124460000Y-90932000D01*
X124460000Y-90932000D02*
X114300000Y-90932000D01*
X114300000Y-90932000D02*
X113284000Y-89916000D01*
X113284000Y-89916000D02*
X113284000Y-81280000D01*
X115824000Y-78740000D02*
X118364000Y-78740000D01*
X113284000Y-81280000D02*
X115824000Y-78740000D01*
X118364000Y-78740000D02*
X120396000Y-76708000D01*
X120396000Y-76708000D02*
X120396000Y-74676000D01*
X121412000Y-73660000D02*
X121920000Y-73660000D01*
X121920000Y-73660000D02*
X124460000Y-73660000D01*
X153924000Y-95504000D02*
X130048000Y-95504000D01*
X124968000Y-90424000D02*
X114808000Y-90424000D01*
X130048000Y-95504000D02*
X124968000Y-90424000D01*
X114808000Y-90424000D02*
X113792000Y-89408000D01*
X116332000Y-79248000D02*
X118872000Y-79248000D01*
X121412000Y-76708000D02*
X121412000Y-74676000D01*
X113792000Y-89408000D02*
X113792000Y-81788000D01*
X113792000Y-81788000D02*
X116332000Y-79248000D01*
X118872000Y-79248000D02*
X121412000Y-76708000D01*
X121412000Y-74676000D02*
X121920000Y-74168000D01*
X121920000Y-74168000D02*
X122936000Y-74168000D01*
X181356000Y-65532000D02*
X182372000Y-65532000D01*
X109220000Y-92456000D02*
X109220000Y-79248000D01*
X109220000Y-79248000D02*
X110236000Y-78232000D01*
X113792000Y-97028000D02*
X109220000Y-92456000D01*
X115824000Y-97028000D02*
X113792000Y-97028000D01*
X120904000Y-102108000D02*
X115824000Y-97028000D01*
X120904000Y-101092000D02*
X116332000Y-96520000D01*
X116332000Y-96520000D02*
X114300000Y-96520000D01*
X114300000Y-96520000D02*
X109728000Y-91948000D01*
X109728000Y-91948000D02*
X109728000Y-79368632D01*
X109728000Y-79368632D02*
X112328316Y-76768316D01*
X181356000Y-64515996D02*
X176276000Y-69595996D01*
X124460000Y-96520000D02*
X123952000Y-96012000D01*
X123952000Y-96012000D02*
X114808000Y-96012000D01*
X114808000Y-96012000D02*
X110236000Y-91440000D01*
X110236000Y-79756000D02*
X113284000Y-76708000D01*
X110236000Y-91440000D02*
X110236000Y-79756000D01*
X176276000Y-69595996D02*
X176276000Y-69596000D01*
X124460000Y-95504000D02*
X115316000Y-95504000D01*
X115316000Y-95504000D02*
X110744000Y-90932000D01*
X110744000Y-90932000D02*
X110744000Y-80264000D01*
X110744000Y-80264000D02*
X111252000Y-79756000D01*
X111252000Y-79756000D02*
X114300000Y-76708000D01*
X180263787Y-64516000D02*
X180263787Y-64592213D01*
X180263787Y-64592213D02*
X175260000Y-69596000D01*
X210312000Y-101600000D02*
X210820000Y-101092000D01*
X210820000Y-101092000D02*
X211836000Y-101092000D01*
X211836000Y-101092000D02*
X215392000Y-97536000D01*
X215392000Y-97536000D02*
X215392000Y-96520000D01*
X210820000Y-96520000D02*
X214376000Y-96520000D01*
X209804000Y-97536000D02*
X210820000Y-96520000D01*
X209804000Y-99568000D02*
X209804000Y-97536000D01*
X204724000Y-82804000D02*
X198628000Y-88900000D01*
X198628000Y-88900000D02*
X198628000Y-91440000D01*
X198628000Y-91440000D02*
X188976000Y-101092000D01*
X188976000Y-101092000D02*
X181171295Y-101092000D01*
X181171295Y-101092000D02*
X180848006Y-101092000D01*
X204724000Y-81788000D02*
X197612000Y-88900000D01*
X197612000Y-88900000D02*
X197612000Y-91440000D01*
X197612000Y-91440000D02*
X189484000Y-99568000D01*
X189484000Y-99568000D02*
X186944000Y-99568000D01*
X186944000Y-99568000D02*
X186436000Y-100076000D01*
X186436000Y-100076000D02*
X181171293Y-100076000D01*
X181171293Y-100076000D02*
X181171289Y-100075996D01*
X181171289Y-100075996D02*
X180848002Y-100075996D01*
X180848002Y-100075996D02*
X180848000Y-100075994D01*
X203708000Y-81788000D02*
X196596000Y-88900000D01*
X196596000Y-88900000D02*
X196596000Y-91440000D01*
X196596000Y-91440000D02*
X190634917Y-97401083D01*
X190634917Y-97401083D02*
X186062927Y-97401083D01*
X186062927Y-97401083D02*
X185928010Y-97536000D01*
X184912000Y-95504000D02*
X185420000Y-96012000D01*
X195580000Y-88900000D02*
X203708000Y-80772000D01*
X185420000Y-96012000D02*
X191008000Y-96012000D01*
X191008000Y-96012000D02*
X195580000Y-91440000D01*
X195580000Y-91440000D02*
X195580000Y-88900000D01*
X224028000Y-69596000D02*
X222504000Y-69596000D01*
X207772000Y-65532000D02*
X206968000Y-66336000D01*
X222504000Y-69596000D02*
X218440000Y-65532000D01*
X218440000Y-65532000D02*
X207772000Y-65532000D01*
X206968000Y-66336000D02*
X206968000Y-70004000D01*
X225044000Y-70104000D02*
X221996000Y-70104000D01*
X221996000Y-70104000D02*
X217932000Y-66040000D01*
X217932000Y-66040000D02*
X208788000Y-66040000D01*
X208788000Y-66040000D02*
X207768000Y-67060000D01*
X207768000Y-67060000D02*
X207768000Y-68854000D01*
X225552000Y-70612000D02*
X221488000Y-70612000D01*
X221488000Y-70612000D02*
X217424000Y-66548000D01*
X217424000Y-66548000D02*
X209296000Y-66548000D01*
X209296000Y-66548000D02*
X208568000Y-67276000D01*
X208568000Y-67276000D02*
X208568000Y-70004000D01*
X225552000Y-71628000D02*
X225044000Y-71120000D01*
X225044000Y-71120000D02*
X220980000Y-71120000D01*
X220980000Y-71120000D02*
X216916000Y-67056000D01*
X216916000Y-67056000D02*
X210312000Y-67056000D01*
X210312000Y-67056000D02*
X209296000Y-68072000D01*
X209296000Y-68072000D02*
X209368000Y-68144000D01*
X209368000Y-68144000D02*
X209368000Y-68854000D01*
X105664000Y-102616000D02*
X105664000Y-100584000D01*
X216916000Y-72136000D02*
X224536000Y-72136000D01*
X224536000Y-72136000D02*
X225044000Y-72644000D01*
X215900000Y-71120000D02*
X216916000Y-72136000D01*
X215900000Y-70640534D02*
X215900000Y-71120000D01*
X215900000Y-68580000D02*
X215900000Y-70640534D01*
X214884000Y-67564000D02*
X215900000Y-68580000D01*
X210820000Y-67564000D02*
X214884000Y-67564000D01*
X210168000Y-68216000D02*
X210820000Y-67564000D01*
X210168000Y-70004000D02*
X210168000Y-68216000D01*
X104648000Y-103124000D02*
X104648000Y-96520000D01*
X104648000Y-96520000D02*
X105664000Y-95504000D01*
X105664000Y-104140000D02*
X104648000Y-103124000D01*
X219964000Y-72644000D02*
X223012000Y-72644000D01*
X223012000Y-72644000D02*
X224028000Y-73660000D01*
X210968000Y-68854000D02*
X210968000Y-68178685D01*
X210968000Y-68178685D02*
X211074685Y-68072000D01*
X216408000Y-72644000D02*
X219964000Y-72644000D01*
X211074685Y-68072000D02*
X214412264Y-68072000D01*
X214412264Y-68072000D02*
X215261421Y-68921157D01*
X215261421Y-68921157D02*
X215261421Y-71497421D01*
X215261421Y-71497421D02*
X216408000Y-72644000D01*
D22*
X164172675Y-85953600D02*
X164315927Y-86096852D01*
X164315927Y-86607560D02*
X165291072Y-87582705D01*
X165291072Y-87582705D02*
X171130108Y-87582705D01*
X171130108Y-87582705D02*
X171946068Y-88398665D01*
X163195000Y-85953600D02*
X164172675Y-85953600D01*
X164315927Y-86096852D02*
X164315927Y-86607560D01*
X171946068Y-88398665D02*
X171946068Y-88657932D01*
X164729328Y-85925603D02*
X164729328Y-86436324D01*
X164465000Y-83413600D02*
X164465000Y-85661275D01*
X165462299Y-87169295D02*
X171301348Y-87169295D01*
X164465000Y-85661275D02*
X164729328Y-85925603D01*
X164729328Y-86436324D02*
X165462299Y-87169295D01*
X171301348Y-87169295D02*
X172238393Y-88106340D01*
X172238393Y-88106340D02*
X172497660Y-88106340D01*
X173919331Y-88436716D02*
X174414960Y-88436716D01*
X174414960Y-88436716D02*
X174545295Y-88306381D01*
X174545295Y-86953620D02*
X173211471Y-85619796D01*
X173736000Y-88253385D02*
X173919331Y-88436716D01*
X174545295Y-88306381D02*
X174545295Y-86953620D01*
X173211471Y-85619796D02*
X172952204Y-85619796D01*
X171431040Y-81994527D02*
X172738960Y-81994527D01*
X172738960Y-81994527D02*
X173318910Y-82574477D01*
X173318910Y-82574477D02*
X175584669Y-82574477D01*
X169424884Y-85111896D02*
X170665927Y-83870853D01*
X170665927Y-83870853D02*
X170665927Y-82759640D01*
X170665927Y-82759640D02*
X171431040Y-81994527D01*
X175584669Y-82574477D02*
X175768000Y-82391146D01*
X167005000Y-83413600D02*
X168539328Y-84947928D01*
X168539328Y-84947928D02*
X168757724Y-84947928D01*
X168757724Y-84947928D02*
X168921692Y-85111896D01*
X168921692Y-85111896D02*
X169424884Y-85111896D01*
X182176581Y-89017965D02*
X180546704Y-87388088D01*
X182372000Y-89017965D02*
X182176581Y-89017965D01*
X180546704Y-87388088D02*
X180546704Y-86291911D01*
X180546704Y-86291911D02*
X180730035Y-86108580D01*
X169596124Y-85525304D02*
X171152216Y-83969212D01*
X171602276Y-82407928D02*
X172567724Y-82407928D01*
X171152216Y-83969212D02*
X171079328Y-83896324D01*
X171079328Y-83896324D02*
X171079328Y-82930876D01*
X171079328Y-82930876D02*
X171602276Y-82407928D01*
X172567724Y-82407928D02*
X173147681Y-82987885D01*
X173147681Y-82987885D02*
X175584669Y-82987885D01*
X175584669Y-82987885D02*
X175768000Y-83171216D01*
X168275000Y-85953600D02*
X168703296Y-85525304D01*
X168703296Y-85525304D02*
X169596124Y-85525304D01*
X182372000Y-89798035D02*
X180133296Y-87559331D01*
X180133296Y-87559331D02*
X180133296Y-86291911D01*
X180133296Y-86291911D02*
X179949965Y-86108580D01*
X174958705Y-88477619D02*
X174958705Y-86782380D01*
X173736000Y-89033455D02*
X173919331Y-88850124D01*
X173919331Y-88850124D02*
X174586200Y-88850124D01*
X174586200Y-88850124D02*
X174958705Y-88477619D01*
X174958705Y-86782380D02*
X173503796Y-85327471D01*
X173503796Y-85327471D02*
X173503796Y-85068204D01*
X172349328Y-84419272D02*
X170815000Y-85953600D01*
X184028014Y-87800338D02*
X180482980Y-84255304D01*
X180482980Y-84255304D02*
X172731692Y-84255304D01*
X172731692Y-84255304D02*
X172567724Y-84419272D01*
X172567724Y-84419272D02*
X172349328Y-84419272D01*
X184028014Y-89201295D02*
X184028014Y-87800338D01*
X182470983Y-91342976D02*
X182470983Y-90758326D01*
X182470983Y-90758326D02*
X182478904Y-90750405D01*
X182478904Y-90750405D02*
X182478904Y-90530421D01*
X182478904Y-90530421D02*
X182761612Y-90247713D01*
X182761612Y-90247713D02*
X182981596Y-90247713D01*
X182981596Y-90247713D02*
X184028014Y-89201295D01*
X172513296Y-83841896D02*
X172085000Y-83413600D01*
X184475485Y-87663161D02*
X180654220Y-83841896D01*
X183022575Y-90791384D02*
X184475485Y-89338474D01*
X184475485Y-89338474D02*
X184475485Y-87663161D01*
X180654220Y-83841896D02*
X172513296Y-83841896D01*
X160734705Y-93557619D02*
X160734705Y-92873986D01*
X159536376Y-96244204D02*
X159398194Y-96106022D01*
X160744868Y-91999425D02*
X160734705Y-91989262D01*
X160734705Y-91989262D02*
X160734705Y-89109811D01*
X160734705Y-92873986D02*
X160744868Y-92863823D01*
X159398194Y-94894130D02*
X160734705Y-93557619D01*
X158760328Y-88564844D02*
X158760328Y-86306603D01*
X160744868Y-92863823D02*
X160744868Y-91999425D01*
X159398194Y-96106022D02*
X159398194Y-94894130D01*
X160734705Y-89109811D02*
X160624644Y-89219872D01*
X160624644Y-89219872D02*
X159415356Y-89219872D01*
X159415356Y-89219872D02*
X158760328Y-88564844D01*
X158760328Y-86306603D02*
X158115000Y-85661275D01*
X158115000Y-85661275D02*
X158115000Y-83413600D01*
X150230097Y-102990494D02*
X150489364Y-102990494D01*
X145230668Y-102024751D02*
X149264354Y-102024751D01*
X149264354Y-102024751D02*
X150230097Y-102990494D01*
X135123585Y-94488000D02*
X135123585Y-94292581D01*
X135123585Y-94292581D02*
X133493708Y-92662704D01*
X133493708Y-92662704D02*
X133162113Y-92662704D01*
X133162113Y-92662704D02*
X132978782Y-92846035D01*
X127370672Y-86436324D02*
X126793296Y-87013700D01*
X126793296Y-87013700D02*
X126793296Y-87700669D01*
X130175000Y-83413600D02*
X128640672Y-84947928D01*
X128640672Y-84947928D02*
X128422276Y-84947928D01*
X126793296Y-87700669D02*
X126609965Y-87884000D01*
X127899328Y-85470876D02*
X127899328Y-85689272D01*
X128422276Y-84947928D02*
X127899328Y-85470876D01*
X127899328Y-85689272D02*
X127370672Y-86217928D01*
X127370672Y-86217928D02*
X127370672Y-86436324D01*
X178514705Y-78860972D02*
X178187029Y-78533296D01*
X169747639Y-78369328D02*
X168539328Y-78369328D01*
X178187029Y-78533296D02*
X176841848Y-78533296D01*
X168539328Y-78369328D02*
X167005000Y-76835000D01*
X176841848Y-78533296D02*
X176264479Y-77955927D01*
X176264479Y-77955927D02*
X170161040Y-77955927D01*
X170161040Y-77955927D02*
X169747639Y-78369328D01*
X178514705Y-79377031D02*
X178514705Y-78860972D01*
X178027898Y-79863838D02*
X178514705Y-79377031D01*
X177458599Y-80047169D02*
X177641930Y-79863838D01*
X177641930Y-79863838D02*
X178027898Y-79863838D01*
X154569328Y-84947928D02*
X153035000Y-83413600D01*
X154787724Y-84947928D02*
X154569328Y-84947928D01*
X155839328Y-86738092D02*
X155839328Y-85999532D01*
X159649614Y-92293442D02*
X159649614Y-90548378D01*
X159649614Y-90548378D02*
X155839328Y-86738092D01*
X155839328Y-85999532D02*
X154787724Y-84947928D01*
X159787796Y-92431624D02*
X159649614Y-92293442D01*
X156378381Y-80978705D02*
X153330381Y-80978705D01*
X168455808Y-91065455D02*
X168272477Y-90882124D01*
X168272477Y-90882124D02*
X167805800Y-90882124D01*
X163490381Y-89614705D02*
X159120672Y-85244996D01*
X166538381Y-89614705D02*
X163490381Y-89614705D01*
X167805800Y-90882124D02*
X166538381Y-89614705D01*
X159120672Y-85244996D02*
X159120672Y-82930876D01*
X159120672Y-82930876D02*
X158597724Y-82407928D01*
X158597724Y-82407928D02*
X157807604Y-82407928D01*
X157807604Y-82407928D02*
X156378381Y-80978705D01*
X153330381Y-80978705D02*
X153035000Y-80683324D01*
X153035000Y-80683324D02*
X153035000Y-80231589D01*
X153035000Y-80231589D02*
X153035000Y-76835000D01*
X142515796Y-91707949D02*
X142515796Y-91967216D01*
X143561183Y-88140587D02*
X143377852Y-88323918D01*
X143377852Y-88323918D02*
X143377852Y-90845893D01*
X143377852Y-90845893D02*
X142515796Y-91707949D01*
X132863796Y-79015796D02*
X132725614Y-79153978D01*
X132725614Y-79153978D02*
X132725614Y-85697290D01*
X132725614Y-85697290D02*
X134452905Y-87424581D01*
X134452905Y-90374870D02*
X134636236Y-90558201D01*
X134452905Y-87424581D02*
X134452905Y-90374870D01*
X125095000Y-83413600D02*
X125095000Y-85661275D01*
X124761296Y-86505700D02*
X124761296Y-87700669D01*
X125095000Y-85661275D02*
X124830672Y-85925603D01*
X124830672Y-85925603D02*
X124830672Y-86436324D01*
X124830672Y-86436324D02*
X124761296Y-86505700D01*
X124761296Y-87700669D02*
X124577965Y-87884000D01*
X170332276Y-78369328D02*
X169754900Y-78946704D01*
X168703296Y-78946704D02*
X168275000Y-79375000D01*
X178101295Y-79032210D02*
X178015789Y-78946704D01*
X178015789Y-78946704D02*
X176670620Y-78946704D01*
X176670620Y-78946704D02*
X176093244Y-78369328D01*
X176093244Y-78369328D02*
X170332276Y-78369328D01*
X169754900Y-78946704D02*
X168703296Y-78946704D01*
X178101295Y-79205793D02*
X178101295Y-79032210D01*
X177856658Y-79450430D02*
X178101295Y-79205793D01*
X177458599Y-79267099D02*
X177641930Y-79450430D01*
X177641930Y-79450430D02*
X177856658Y-79450430D01*
X159236204Y-92983216D02*
X159236204Y-90719605D01*
X159236204Y-90719605D02*
X155425927Y-86909328D01*
X155425927Y-86909328D02*
X155425927Y-86389178D01*
X155425927Y-86389178D02*
X154990349Y-85953600D01*
X154990349Y-85953600D02*
X154305000Y-85953600D01*
X159534073Y-82759640D02*
X158768960Y-81994527D01*
X163661619Y-89201295D02*
X159534073Y-85073749D01*
X156549619Y-80565295D02*
X153501619Y-80565295D01*
X168455808Y-90285385D02*
X168272477Y-90468716D01*
X153448410Y-80231590D02*
X154305000Y-79375000D01*
X168272477Y-90468716D02*
X167977040Y-90468716D01*
X167977040Y-90468716D02*
X166709619Y-89201295D01*
X166709619Y-89201295D02*
X163661619Y-89201295D01*
X159534073Y-85073749D02*
X159534073Y-82759640D01*
X158768960Y-81994527D02*
X157978849Y-81994527D01*
X157978849Y-81994527D02*
X156549619Y-80565295D01*
X153501619Y-80565295D02*
X153448410Y-80512086D01*
X153448410Y-80512086D02*
X153448410Y-80231590D01*
X142964444Y-88323918D02*
X142964444Y-90674651D01*
X142964444Y-90674651D02*
X142223471Y-91415624D01*
X142223471Y-91415624D02*
X141964204Y-91415624D01*
X142781113Y-88140587D02*
X142964444Y-88323918D01*
X132312204Y-85868528D02*
X134039497Y-87595821D01*
X132312204Y-78464204D02*
X132312204Y-85868528D01*
X134039497Y-90374870D02*
X133856166Y-90558201D01*
X134039497Y-87595821D02*
X134039497Y-90374870D01*
X125387325Y-85953600D02*
X125244073Y-86096852D01*
X126365000Y-85953600D02*
X125387325Y-85953600D01*
X125244073Y-86096852D02*
X125244073Y-86607560D01*
X125244073Y-86607560D02*
X125174704Y-86676929D01*
X125174704Y-86676929D02*
X125174704Y-87700669D01*
X125174704Y-87700669D02*
X125358035Y-87884000D01*
X179848529Y-78464204D02*
X178514704Y-77130379D01*
X180107796Y-78464204D02*
X179848529Y-78464204D01*
X178514704Y-77130379D02*
X178514704Y-75875331D01*
X178514704Y-75875331D02*
X178698035Y-75692000D01*
X158984784Y-96795796D02*
X158984784Y-94722892D01*
X158984784Y-94722892D02*
X160321295Y-93386381D01*
X157822675Y-85953600D02*
X156845000Y-85953600D01*
X160321295Y-89633273D02*
X159244120Y-89633273D01*
X160321295Y-93386381D02*
X160321295Y-92702759D01*
X160321295Y-92702759D02*
X160331467Y-92692587D01*
X160331467Y-92692587D02*
X160331467Y-92170661D01*
X160331467Y-92170661D02*
X160321295Y-92160489D01*
X160321295Y-92160489D02*
X160321295Y-89633273D01*
X159244120Y-89633273D02*
X158346927Y-88736080D01*
X158346927Y-88736080D02*
X158346927Y-86477852D01*
X158346927Y-86477852D02*
X157822675Y-85953600D01*
X145782260Y-102576343D02*
X145920442Y-102438161D01*
X149093114Y-102438161D02*
X149937772Y-103282819D01*
X145920442Y-102438161D02*
X149093114Y-102438161D01*
X149937772Y-103282819D02*
X149937772Y-103542086D01*
X135903655Y-94488000D02*
X133664951Y-92249296D01*
X133664951Y-92249296D02*
X133162113Y-92249296D01*
X133162113Y-92249296D02*
X132978782Y-92065965D01*
X127206704Y-87184929D02*
X127206704Y-87700669D01*
X128219651Y-85953600D02*
X127784073Y-86389178D01*
X127784073Y-86389178D02*
X127784073Y-86607560D01*
X128905000Y-85953600D02*
X128219651Y-85953600D01*
X127784073Y-86607560D02*
X127206704Y-87184929D01*
X127206704Y-87700669D02*
X127390035Y-87884000D01*
X179556204Y-79015796D02*
X179556204Y-78756529D01*
X179556204Y-78756529D02*
X178101296Y-77301621D01*
X178101296Y-77301621D02*
X178101296Y-75875331D01*
X178101296Y-75875331D02*
X177917965Y-75692000D01*
X161956799Y-77035230D02*
X161956799Y-78111525D01*
X161956799Y-78111525D02*
X161750705Y-78317619D01*
X162374469Y-76617560D02*
X161956799Y-77035230D01*
X162685235Y-76617560D02*
X162374469Y-76617560D01*
X163195000Y-79375000D02*
X163195000Y-77127325D01*
X163195000Y-77127325D02*
X162685235Y-76617560D01*
X161750705Y-80178381D02*
X161750705Y-78317619D01*
X162645620Y-81073296D02*
X161750705Y-80178381D01*
X177292000Y-80889965D02*
X177108669Y-81073296D01*
X177108669Y-81073296D02*
X162645620Y-81073296D01*
X162189328Y-86205004D02*
X160734704Y-84750380D01*
X160734704Y-84750380D02*
X160734704Y-77399331D01*
X160734704Y-77399331D02*
X160918035Y-77216000D01*
X169594440Y-88185295D02*
X164169619Y-88185295D01*
X164169619Y-88185295D02*
X162943596Y-86959272D01*
X162943596Y-86959272D02*
X162712276Y-86959272D01*
X162712276Y-86959272D02*
X162189328Y-86436324D01*
X162189328Y-86436324D02*
X162189328Y-86205004D01*
X171910705Y-90501560D02*
X169594440Y-88185295D01*
X171910705Y-91017619D02*
X171910705Y-90501560D01*
X170372302Y-92556022D02*
X171910705Y-91017619D01*
X170555633Y-93486402D02*
X170372302Y-93303071D01*
X170372302Y-93303071D02*
X170372302Y-92556022D01*
X134823457Y-83679887D02*
X135018876Y-83679887D01*
X136281576Y-86918798D02*
X137327755Y-87964977D01*
X135018876Y-83679887D02*
X136281576Y-84942587D01*
X136281576Y-84942587D02*
X136281576Y-86918798D01*
X137327755Y-87964977D02*
X137327755Y-88224244D01*
X102822705Y-89762022D02*
X107338730Y-85245997D01*
X102822705Y-91191202D02*
X102822705Y-89762022D01*
X107338730Y-85245997D02*
X107597997Y-85245997D01*
X103372798Y-91741295D02*
X102822705Y-91191202D01*
X103546380Y-91741295D02*
X103372798Y-91741295D01*
X103864204Y-91164204D02*
X103864204Y-91423471D01*
X103864204Y-91423471D02*
X103546380Y-91741295D01*
X161543389Y-76863992D02*
X161543389Y-77940287D01*
X161543389Y-77940287D02*
X161337295Y-78146381D01*
X162203231Y-76204150D02*
X161543389Y-76863992D01*
X162856475Y-76204150D02*
X162203231Y-76204150D01*
X164465000Y-76835000D02*
X163487325Y-76835000D01*
X163487325Y-76835000D02*
X162856475Y-76204150D01*
X161337295Y-80349619D02*
X161337295Y-78146381D01*
X162474380Y-81486704D02*
X161337295Y-80349619D01*
X177292000Y-81670035D02*
X177108669Y-81486704D01*
X177108669Y-81486704D02*
X162474380Y-81486704D01*
X161775927Y-86376251D02*
X160321296Y-84921620D01*
X160321296Y-84921620D02*
X160321296Y-77399331D01*
X160321296Y-77399331D02*
X160137965Y-77216000D01*
X169423202Y-88598705D02*
X163998381Y-88598705D01*
X163998381Y-88598705D02*
X162772349Y-87372673D01*
X162772349Y-87372673D02*
X162541040Y-87372673D01*
X162541040Y-87372673D02*
X161775927Y-86607560D01*
X161775927Y-86607560D02*
X161775927Y-86376251D01*
X171497295Y-90672798D02*
X169423202Y-88598705D01*
X171497295Y-90846381D02*
X171497295Y-90672798D01*
X169958894Y-92384782D02*
X171497295Y-90846381D01*
X169775563Y-93486402D02*
X169958894Y-93303071D01*
X169958894Y-93303071D02*
X169958894Y-92384782D01*
X134823457Y-82899817D02*
X136694986Y-84771346D01*
X136694986Y-84771346D02*
X136694986Y-86747558D01*
X136694986Y-86747558D02*
X137620080Y-87672652D01*
X137620080Y-87672652D02*
X137879347Y-87672652D01*
X107046405Y-84953672D02*
X107046405Y-84694405D01*
X102409295Y-91362440D02*
X102409295Y-89590782D01*
X102409295Y-89590782D02*
X107046405Y-84953672D01*
X103201560Y-92154705D02*
X102409295Y-91362440D01*
X103717620Y-92154705D02*
X103201560Y-92154705D01*
X104156529Y-91715796D02*
X103717620Y-92154705D01*
X104415796Y-91715796D02*
X104156529Y-91715796D01*
D23*
G36*
X115821069Y-64654493D02*
X115418680Y-64727144D01*
X115102066Y-65507130D01*
X115108040Y-66348906D01*
X115418680Y-67098856D01*
X115821072Y-67171507D01*
X117079579Y-65913000D01*
X117065437Y-65898858D01*
X117206858Y-65757437D01*
X117221000Y-65771579D01*
X117235143Y-65757437D01*
X117376564Y-65898858D01*
X117362421Y-65913000D01*
X117376564Y-65927143D01*
X117235143Y-66068564D01*
X117221000Y-66054421D01*
X115962493Y-67312928D01*
X116035144Y-67715320D01*
X116815130Y-68031934D01*
X117518542Y-68026942D01*
X113588884Y-71956600D01*
X110864320Y-71956600D01*
X110864320Y-71976600D01*
X110664320Y-71976600D01*
X110664320Y-71956600D01*
X107914260Y-71956600D01*
X107914260Y-72707170D01*
X108169476Y-73790229D01*
X108819734Y-74693178D01*
X109529707Y-75132360D01*
X107079033Y-75132360D01*
X106628287Y-74680826D01*
X106003654Y-74421456D01*
X105327313Y-74420865D01*
X104702229Y-74679145D01*
X104223566Y-75156973D01*
X104190347Y-75236974D01*
X103306061Y-76121260D01*
X104189532Y-77004731D01*
X104221885Y-77083031D01*
X104699713Y-77561694D01*
X105324346Y-77821064D01*
X106000687Y-77821655D01*
X106625771Y-77563375D01*
X107079778Y-77110160D01*
X109995657Y-77110160D01*
X109597534Y-77274661D01*
X109279777Y-77591865D01*
X109139291Y-77930193D01*
X108520742Y-78548742D01*
X108306376Y-78869564D01*
X108231100Y-79248000D01*
X108231100Y-84209544D01*
X108126523Y-84166120D01*
X108064308Y-84015548D01*
X107727038Y-83677688D01*
X107286147Y-83494614D01*
X106808758Y-83494198D01*
X106367548Y-83676502D01*
X106029688Y-84013772D01*
X105846614Y-84454663D01*
X105846386Y-84715903D01*
X101690401Y-88871888D01*
X101470014Y-89201719D01*
X101392625Y-89590782D01*
X101392625Y-91362440D01*
X101470014Y-91751503D01*
X101690401Y-92081334D01*
X102482666Y-92873599D01*
X102812497Y-93093986D01*
X103201560Y-93171375D01*
X103717620Y-93171375D01*
X104106683Y-93093986D01*
X104373417Y-92915759D01*
X104653443Y-92916003D01*
X105094653Y-92733699D01*
X105432513Y-92396429D01*
X105615587Y-91955538D01*
X105616003Y-91478149D01*
X105433699Y-91036939D01*
X105096429Y-90699079D01*
X104944322Y-90635919D01*
X104882107Y-90485347D01*
X104544837Y-90147487D01*
X104103946Y-89964413D01*
X104058142Y-89964373D01*
X107576537Y-86445978D01*
X107835644Y-86446204D01*
X108231100Y-86282805D01*
X108231100Y-92456000D01*
X108306376Y-92834436D01*
X108480122Y-93094466D01*
X108520742Y-93155258D01*
X113092742Y-97727258D01*
X113413564Y-97941624D01*
X113792000Y-98016900D01*
X115414384Y-98016900D01*
X119807743Y-102410259D01*
X119946661Y-102746466D01*
X120263865Y-103064223D01*
X120678523Y-103236404D01*
X121127508Y-103236796D01*
X121542466Y-103065339D01*
X121860223Y-102748135D01*
X122032404Y-102333477D01*
X122032796Y-101884492D01*
X121915169Y-101599811D01*
X122032404Y-101317477D01*
X122032796Y-100868492D01*
X121861339Y-100453534D01*
X121544135Y-100135777D01*
X121205807Y-99995291D01*
X118211416Y-97000900D01*
X123437556Y-97000900D01*
X123502661Y-97158466D01*
X123819865Y-97476223D01*
X124234523Y-97648404D01*
X124683508Y-97648796D01*
X125098466Y-97477339D01*
X125416223Y-97160135D01*
X125588404Y-96745477D01*
X125588796Y-96296492D01*
X125471169Y-96011811D01*
X125588404Y-95729477D01*
X125588612Y-95491128D01*
X129348742Y-99251258D01*
X129669564Y-99465624D01*
X130048000Y-99540900D01*
X133702384Y-99540900D01*
X135952742Y-101791258D01*
X136273564Y-102005624D01*
X136652000Y-102080900D01*
X143000466Y-102080900D01*
X143378902Y-102005624D01*
X143699724Y-101791258D01*
X144934082Y-100556900D01*
X148434384Y-100556900D01*
X148885565Y-101008081D01*
X145911348Y-101008081D01*
X145911301Y-101008034D01*
X145470410Y-100824960D01*
X144993021Y-100824544D01*
X144551811Y-101006848D01*
X144213951Y-101344118D01*
X144030877Y-101785009D01*
X144030461Y-102262398D01*
X144212765Y-102703608D01*
X144550035Y-103041468D01*
X144702142Y-103104628D01*
X144764357Y-103255200D01*
X145101627Y-103593060D01*
X145542518Y-103776134D01*
X146019907Y-103776550D01*
X146461117Y-103594246D01*
X146600776Y-103454831D01*
X148671996Y-103454831D01*
X148737791Y-103520626D01*
X148737565Y-103779733D01*
X148919869Y-104220943D01*
X149257139Y-104558803D01*
X149698030Y-104741877D01*
X150175419Y-104742293D01*
X150616629Y-104559989D01*
X150954489Y-104222719D01*
X151017649Y-104070612D01*
X151168221Y-104008397D01*
X151506081Y-103671127D01*
X151634588Y-103361647D01*
X153739793Y-103361647D01*
X153922097Y-103802857D01*
X154259367Y-104140717D01*
X154700258Y-104323791D01*
X155177647Y-104324207D01*
X155618857Y-104141903D01*
X155956293Y-103805057D01*
X156291367Y-104140717D01*
X156732258Y-104323791D01*
X157209647Y-104324207D01*
X157650857Y-104141903D01*
X157923589Y-103869647D01*
X168979793Y-103869647D01*
X169162097Y-104310857D01*
X169499367Y-104648717D01*
X169940258Y-104831791D01*
X170417647Y-104832207D01*
X170858857Y-104649903D01*
X171196293Y-104313057D01*
X171531367Y-104648717D01*
X171972258Y-104831791D01*
X172449647Y-104832207D01*
X172890857Y-104649903D01*
X173228717Y-104312633D01*
X173411791Y-103871742D01*
X173411792Y-103869647D01*
X183711793Y-103869647D01*
X183894097Y-104310857D01*
X184231367Y-104648717D01*
X184672258Y-104831791D01*
X185149647Y-104832207D01*
X185590857Y-104649903D01*
X185673849Y-104567056D01*
X185755367Y-104648717D01*
X186196258Y-104831791D01*
X186673647Y-104832207D01*
X187114857Y-104649903D01*
X187452717Y-104312633D01*
X187635791Y-103871742D01*
X187636207Y-103394353D01*
X187622694Y-103361647D01*
X198443793Y-103361647D01*
X198626097Y-103802857D01*
X198963367Y-104140717D01*
X199404258Y-104323791D01*
X199881647Y-104324207D01*
X200322857Y-104141903D01*
X200595589Y-103869647D01*
X200983793Y-103869647D01*
X201166097Y-104310857D01*
X201503367Y-104648717D01*
X201944258Y-104831791D01*
X202421647Y-104832207D01*
X202862857Y-104649903D01*
X203200717Y-104312633D01*
X203383791Y-103871742D01*
X203383792Y-103869647D01*
X213683793Y-103869647D01*
X213866097Y-104310857D01*
X214203367Y-104648717D01*
X214644258Y-104831791D01*
X215121647Y-104832207D01*
X215562857Y-104649903D01*
X215900717Y-104312633D01*
X216083791Y-103871742D01*
X216083792Y-103869647D01*
X216223793Y-103869647D01*
X216406097Y-104310857D01*
X216743367Y-104648717D01*
X217184258Y-104831791D01*
X217661647Y-104832207D01*
X218102857Y-104649903D01*
X218440717Y-104312633D01*
X218623791Y-103871742D01*
X218624207Y-103394353D01*
X218441903Y-102953143D01*
X218104633Y-102615283D01*
X217663742Y-102432209D01*
X217186353Y-102431793D01*
X216745143Y-102614097D01*
X216407283Y-102951367D01*
X216224209Y-103392258D01*
X216223793Y-103869647D01*
X216083792Y-103869647D01*
X216084207Y-103394353D01*
X215901903Y-102953143D01*
X215564633Y-102615283D01*
X215123742Y-102432209D01*
X214646353Y-102431793D01*
X214205143Y-102614097D01*
X213867283Y-102951367D01*
X213684209Y-103392258D01*
X213683793Y-103869647D01*
X203383792Y-103869647D01*
X203384207Y-103394353D01*
X203201903Y-102953143D01*
X202864633Y-102615283D01*
X202423742Y-102432209D01*
X201946353Y-102431793D01*
X201505143Y-102614097D01*
X201167283Y-102951367D01*
X200984209Y-103392258D01*
X200983793Y-103869647D01*
X200595589Y-103869647D01*
X200660717Y-103804633D01*
X200843791Y-103363742D01*
X200844207Y-102886353D01*
X200661903Y-102445143D01*
X200324633Y-102107283D01*
X199883742Y-101924209D01*
X199406353Y-101923793D01*
X198965143Y-102106097D01*
X198627283Y-102443367D01*
X198444209Y-102884258D01*
X198443793Y-103361647D01*
X187622694Y-103361647D01*
X187453903Y-102953143D01*
X187116633Y-102615283D01*
X186675742Y-102432209D01*
X186198353Y-102431793D01*
X185757143Y-102614097D01*
X185674151Y-102696944D01*
X185592633Y-102615283D01*
X185151742Y-102432209D01*
X184674353Y-102431793D01*
X184233143Y-102614097D01*
X183895283Y-102951367D01*
X183712209Y-103392258D01*
X183711793Y-103869647D01*
X173411792Y-103869647D01*
X173412207Y-103394353D01*
X173229903Y-102953143D01*
X172892633Y-102615283D01*
X172451742Y-102432209D01*
X171974353Y-102431793D01*
X171533143Y-102614097D01*
X171195707Y-102950943D01*
X170860633Y-102615283D01*
X170419742Y-102432209D01*
X169942353Y-102431793D01*
X169501143Y-102614097D01*
X169163283Y-102951367D01*
X168980209Y-103392258D01*
X168979793Y-103869647D01*
X157923589Y-103869647D01*
X157988717Y-103804633D01*
X158171791Y-103363742D01*
X158172207Y-102886353D01*
X157989903Y-102445143D01*
X157652633Y-102107283D01*
X157211742Y-101924209D01*
X156734353Y-101923793D01*
X156293143Y-102106097D01*
X155955707Y-102442943D01*
X155620633Y-102107283D01*
X155179742Y-101924209D01*
X154702353Y-101923793D01*
X154261143Y-102106097D01*
X153923283Y-102443367D01*
X153740209Y-102884258D01*
X153739793Y-103361647D01*
X151634588Y-103361647D01*
X151689155Y-103230236D01*
X151689571Y-102752847D01*
X151581245Y-102490677D01*
X151832223Y-102240135D01*
X152004404Y-101825477D01*
X152004796Y-101376492D01*
X151833339Y-100961534D01*
X151710083Y-100838063D01*
X151832223Y-100716135D01*
X152004404Y-100301477D01*
X152004796Y-99852492D01*
X151833339Y-99437534D01*
X151516135Y-99119777D01*
X151177807Y-98979291D01*
X149199416Y-97000900D01*
X152901556Y-97000900D01*
X152966661Y-97158466D01*
X153283865Y-97476223D01*
X153698523Y-97648404D01*
X154147508Y-97648796D01*
X154562466Y-97477339D01*
X154880223Y-97160135D01*
X155052404Y-96745477D01*
X155052796Y-96296492D01*
X154935169Y-96011811D01*
X155052404Y-95729477D01*
X155052796Y-95280492D01*
X154881339Y-94865534D01*
X154564135Y-94547777D01*
X154149477Y-94375596D01*
X153700492Y-94375204D01*
X153361918Y-94515100D01*
X137103631Y-94515100D01*
X137103862Y-94250353D01*
X136921558Y-93809143D01*
X136584288Y-93471283D01*
X136143397Y-93288209D01*
X136141651Y-93288207D01*
X134611623Y-91758179D01*
X134873883Y-91758408D01*
X135315093Y-91576104D01*
X135652953Y-91238834D01*
X135836027Y-90797943D01*
X135836443Y-90320554D01*
X135654139Y-89879344D01*
X135469575Y-89694457D01*
X135469575Y-87615788D01*
X135548092Y-87615857D01*
X135562682Y-87637692D01*
X136127774Y-88202784D01*
X136127548Y-88461891D01*
X136309852Y-88903101D01*
X136647122Y-89240961D01*
X137088013Y-89424035D01*
X137565402Y-89424451D01*
X138006612Y-89242147D01*
X138344472Y-88904877D01*
X138407632Y-88752770D01*
X138558204Y-88690555D01*
X138896064Y-88353285D01*
X139079138Y-87912394D01*
X139079554Y-87435005D01*
X138958053Y-87140950D01*
X139065165Y-87034025D01*
X139392323Y-87361754D01*
X140002957Y-87615311D01*
X140664142Y-87615888D01*
X141275218Y-87363397D01*
X141605165Y-87034025D01*
X141897606Y-87326976D01*
X141764396Y-87459954D01*
X141581322Y-87900845D01*
X141580906Y-88378234D01*
X141763210Y-88819444D01*
X141947774Y-89004331D01*
X141947774Y-90215610D01*
X141726557Y-90215417D01*
X141285347Y-90397721D01*
X140947487Y-90734991D01*
X140764413Y-91175882D01*
X140763997Y-91653271D01*
X140946301Y-92094481D01*
X141283571Y-92432341D01*
X141435678Y-92495501D01*
X141497893Y-92646073D01*
X141835163Y-92983933D01*
X142276054Y-93167007D01*
X142753443Y-93167423D01*
X143194653Y-92985119D01*
X143532513Y-92647849D01*
X143715587Y-92206958D01*
X143715815Y-91945718D01*
X144096746Y-91564787D01*
X144317133Y-91234956D01*
X144335261Y-91143819D01*
X144394522Y-90845893D01*
X144394522Y-89360128D01*
X144791493Y-89360128D01*
X144864144Y-89762520D01*
X145644130Y-90079134D01*
X146485906Y-90073160D01*
X147235856Y-89762520D01*
X147308507Y-89360128D01*
X146050000Y-88101621D01*
X144791493Y-89360128D01*
X144394522Y-89360128D01*
X144394522Y-89172568D01*
X144650072Y-89218707D01*
X145908579Y-87960200D01*
X144650072Y-86701693D01*
X144340763Y-86757538D01*
X144422675Y-86560272D01*
X144791493Y-86560272D01*
X146050000Y-87818779D01*
X147308507Y-86560272D01*
X147235856Y-86157880D01*
X146455870Y-85841266D01*
X145614094Y-85847240D01*
X144864144Y-86157880D01*
X144791493Y-86560272D01*
X144422675Y-86560272D01*
X144536711Y-86285643D01*
X144537288Y-85624458D01*
X144310565Y-85075745D01*
X144474142Y-85075888D01*
X145085218Y-84823397D01*
X145553154Y-84356277D01*
X145806711Y-83745643D01*
X145807288Y-83084458D01*
X145554797Y-82473382D01*
X145087677Y-82005446D01*
X144477043Y-81751889D01*
X143815858Y-81751312D01*
X143204782Y-82003803D01*
X142874835Y-82333175D01*
X142547677Y-82005446D01*
X141937043Y-81751889D01*
X141275858Y-81751312D01*
X140664782Y-82003803D01*
X140334835Y-82333175D01*
X140007677Y-82005446D01*
X139397043Y-81751889D01*
X138735858Y-81751312D01*
X138124782Y-82003803D01*
X137794835Y-82333175D01*
X137467677Y-82005446D01*
X136857043Y-81751889D01*
X136195858Y-81751312D01*
X135612960Y-81992160D01*
X135504090Y-81883100D01*
X135063199Y-81700026D01*
X134585810Y-81699610D01*
X134144600Y-81881914D01*
X133806740Y-82219184D01*
X133742284Y-82374411D01*
X133742284Y-80066135D01*
X133845203Y-80315218D01*
X134312323Y-80783154D01*
X134922957Y-81036711D01*
X135584142Y-81037288D01*
X136195218Y-80784797D01*
X136525165Y-80455425D01*
X136852323Y-80783154D01*
X137462957Y-81036711D01*
X138124142Y-81037288D01*
X138735218Y-80784797D01*
X139065165Y-80455425D01*
X139392323Y-80783154D01*
X140002957Y-81036711D01*
X140664142Y-81037288D01*
X141275218Y-80784797D01*
X141605165Y-80455425D01*
X141932323Y-80783154D01*
X142542957Y-81036711D01*
X143204142Y-81037288D01*
X143815218Y-80784797D01*
X144283154Y-80317677D01*
X144536711Y-79707043D01*
X144537288Y-79045858D01*
X144310565Y-78497145D01*
X144474142Y-78497288D01*
X145085218Y-78244797D01*
X145553154Y-77777677D01*
X145806711Y-77167043D01*
X145807288Y-76505858D01*
X145554797Y-75894782D01*
X145087677Y-75426846D01*
X144477043Y-75173289D01*
X143815858Y-75172712D01*
X143204782Y-75425203D01*
X142874835Y-75754575D01*
X142547677Y-75426846D01*
X141937043Y-75173289D01*
X141275858Y-75172712D01*
X140664782Y-75425203D01*
X140334835Y-75754575D01*
X140007677Y-75426846D01*
X139397043Y-75173289D01*
X138735858Y-75172712D01*
X138124782Y-75425203D01*
X137794835Y-75754575D01*
X137467677Y-75426846D01*
X136857043Y-75173289D01*
X136195858Y-75172712D01*
X135584782Y-75425203D01*
X135116846Y-75892323D01*
X134863289Y-76502957D01*
X134862712Y-77164142D01*
X135089435Y-77712855D01*
X134925858Y-77712712D01*
X134314782Y-77965203D01*
X133899424Y-78379837D01*
X133881699Y-78336939D01*
X133544429Y-77999079D01*
X133392322Y-77935919D01*
X133330107Y-77785347D01*
X132992837Y-77447487D01*
X132551946Y-77264413D01*
X132074557Y-77263997D01*
X131738855Y-77402706D01*
X131836711Y-77167043D01*
X131837288Y-76505858D01*
X131584797Y-75894782D01*
X131117677Y-75426846D01*
X130548406Y-75190464D01*
X130668404Y-74901477D01*
X130668796Y-74452492D01*
X130497339Y-74037534D01*
X130180135Y-73719777D01*
X129841807Y-73579291D01*
X123635258Y-67372742D01*
X123545740Y-67312928D01*
X123314436Y-67158376D01*
X122936000Y-67083100D01*
X119029716Y-67083100D01*
X119339934Y-66318870D01*
X119333960Y-65477094D01*
X119023320Y-64727144D01*
X118620931Y-64654493D01*
X118800424Y-64475000D01*
X174569576Y-64475000D01*
X174749069Y-64654493D01*
X174346680Y-64727144D01*
X174030066Y-65507130D01*
X174036040Y-66348906D01*
X174346680Y-67098856D01*
X174749072Y-67171507D01*
X176007579Y-65913000D01*
X175993437Y-65898858D01*
X176134858Y-65757437D01*
X176149000Y-65771579D01*
X176163143Y-65757437D01*
X176304564Y-65898858D01*
X176290421Y-65913000D01*
X176304564Y-65927143D01*
X176163143Y-66068564D01*
X176149000Y-66054421D01*
X174890493Y-67312928D01*
X174963144Y-67715320D01*
X175517243Y-67940241D01*
X174958759Y-68498725D01*
X174794709Y-68334389D01*
X173862114Y-67947142D01*
X172852316Y-67946261D01*
X171919047Y-68331879D01*
X171204389Y-69045291D01*
X170817142Y-69977886D01*
X170816261Y-70987684D01*
X171201879Y-71920953D01*
X171915291Y-72635611D01*
X172847886Y-73022858D01*
X173857684Y-73023739D01*
X174790953Y-72638121D01*
X175505611Y-71924709D01*
X175892858Y-70992114D01*
X175893149Y-70659056D01*
X176050523Y-70724404D01*
X176499508Y-70724796D01*
X176914466Y-70553339D01*
X177232223Y-70236135D01*
X177372712Y-69897800D01*
X178752325Y-68518187D01*
X179131480Y-68898004D01*
X177608742Y-70420742D01*
X177394376Y-70741564D01*
X177319100Y-71120000D01*
X177319100Y-73606560D01*
X177179596Y-73942523D01*
X177179204Y-74391508D01*
X177287676Y-74654029D01*
X177239108Y-74674097D01*
X176901248Y-75011367D01*
X176718174Y-75452258D01*
X176717758Y-75929647D01*
X176900062Y-76370857D01*
X177084626Y-76555744D01*
X177084626Y-77301621D01*
X177093730Y-77347390D01*
X176983373Y-77237033D01*
X176653542Y-77016646D01*
X176264479Y-76939257D01*
X173746910Y-76939257D01*
X173747288Y-76505858D01*
X173494797Y-75894782D01*
X173027677Y-75426846D01*
X172417043Y-75173289D01*
X171755858Y-75172712D01*
X171144782Y-75425203D01*
X170814835Y-75754575D01*
X170487677Y-75426846D01*
X169877043Y-75173289D01*
X169215858Y-75172712D01*
X168604782Y-75425203D01*
X168274835Y-75754575D01*
X167947677Y-75426846D01*
X167337043Y-75173289D01*
X166675858Y-75172712D01*
X166064782Y-75425203D01*
X165734835Y-75754575D01*
X165407677Y-75426846D01*
X164797043Y-75173289D01*
X164135858Y-75172712D01*
X163524782Y-75425203D01*
X163509029Y-75440929D01*
X163245538Y-75264869D01*
X162856475Y-75187480D01*
X162203231Y-75187480D01*
X161814168Y-75264869D01*
X161484337Y-75485255D01*
X160953562Y-76016031D01*
X160680388Y-76015793D01*
X160528172Y-76078687D01*
X160377707Y-76016209D01*
X159900318Y-76015793D01*
X159622268Y-76130681D01*
X159524797Y-75894782D01*
X159057677Y-75426846D01*
X158447043Y-75173289D01*
X157785858Y-75172712D01*
X157174782Y-75425203D01*
X156844835Y-75754575D01*
X156517677Y-75426846D01*
X155907043Y-75173289D01*
X155245858Y-75172712D01*
X154634782Y-75425203D01*
X154304835Y-75754575D01*
X153977677Y-75426846D01*
X153367043Y-75173289D01*
X152705858Y-75172712D01*
X152094782Y-75425203D01*
X151764835Y-75754575D01*
X151437677Y-75426846D01*
X150827043Y-75173289D01*
X150165858Y-75172712D01*
X149554782Y-75425203D01*
X149086846Y-75892323D01*
X148833289Y-76502957D01*
X148832712Y-77164142D01*
X149059435Y-77712855D01*
X148895858Y-77712712D01*
X148284782Y-77965203D01*
X147816846Y-78432323D01*
X147563289Y-79042957D01*
X147562712Y-79704142D01*
X147815203Y-80315218D01*
X148282323Y-80783154D01*
X148892957Y-81036711D01*
X149554142Y-81037288D01*
X150165218Y-80784797D01*
X150495165Y-80455425D01*
X150822323Y-80783154D01*
X151432957Y-81036711D01*
X152088736Y-81037283D01*
X152095719Y-81072387D01*
X152316106Y-81402218D01*
X152611487Y-81697599D01*
X152697217Y-81754882D01*
X152094782Y-82003803D01*
X151764835Y-82333175D01*
X151437677Y-82005446D01*
X150827043Y-81751889D01*
X150165858Y-81751312D01*
X149554782Y-82003803D01*
X149086846Y-82470923D01*
X148833289Y-83081557D01*
X148832712Y-83742742D01*
X149059435Y-84291455D01*
X148895858Y-84291312D01*
X148284782Y-84543803D01*
X147816846Y-85010923D01*
X147563289Y-85621557D01*
X147562712Y-86282742D01*
X147758866Y-86757471D01*
X147449928Y-86701693D01*
X146191421Y-87960200D01*
X147449928Y-89218707D01*
X147852320Y-89146056D01*
X148168934Y-88366070D01*
X148162960Y-87524294D01*
X147963230Y-87042103D01*
X148282323Y-87361754D01*
X148892957Y-87615311D01*
X149554142Y-87615888D01*
X150165218Y-87363397D01*
X150495165Y-87034025D01*
X150822323Y-87361754D01*
X151432957Y-87615311D01*
X152094142Y-87615888D01*
X152705218Y-87363397D01*
X153035165Y-87034025D01*
X153362323Y-87361754D01*
X153972957Y-87615311D01*
X154634142Y-87615888D01*
X154684804Y-87594955D01*
X154707033Y-87628222D01*
X158219534Y-91140724D01*
X158219534Y-92302536D01*
X158219487Y-92302583D01*
X158036413Y-92743474D01*
X158035997Y-93220863D01*
X158218301Y-93662073D01*
X158412888Y-93857000D01*
X158265890Y-94003998D01*
X158045503Y-94333829D01*
X157968114Y-94722892D01*
X157968114Y-96115116D01*
X157968067Y-96115163D01*
X157784993Y-96556054D01*
X157784577Y-97033443D01*
X157966881Y-97474653D01*
X158304151Y-97812513D01*
X158745042Y-97995587D01*
X159222431Y-97996003D01*
X159663641Y-97813699D01*
X160001501Y-97476429D01*
X160064661Y-97324322D01*
X160215233Y-97262107D01*
X160553093Y-96924837D01*
X160736167Y-96483946D01*
X160736583Y-96006557D01*
X160554279Y-95565347D01*
X160414864Y-95425688D01*
X160414864Y-95315248D01*
X161453599Y-94276513D01*
X161673986Y-93946682D01*
X161751375Y-93557619D01*
X161751375Y-92914916D01*
X161761538Y-92863823D01*
X161761538Y-91999425D01*
X161751375Y-91948332D01*
X161751375Y-89313487D01*
X162771487Y-90333599D01*
X163101318Y-90553986D01*
X163490381Y-90631375D01*
X166117263Y-90631375D01*
X167086906Y-91601018D01*
X167416737Y-91821405D01*
X167539175Y-91845759D01*
X167775175Y-92082172D01*
X168216066Y-92265246D01*
X168693455Y-92265662D01*
X168990317Y-92143001D01*
X168942224Y-92384782D01*
X168942224Y-92622711D01*
X168758846Y-92805769D01*
X168575772Y-93246660D01*
X168575356Y-93724049D01*
X168757660Y-94165259D01*
X169094930Y-94503119D01*
X169116868Y-94512228D01*
X169033534Y-94546661D01*
X168715777Y-94863865D01*
X168543596Y-95278523D01*
X168543204Y-95727508D01*
X168660831Y-96012189D01*
X168543596Y-96294523D01*
X168543204Y-96743508D01*
X168714661Y-97158466D01*
X169031865Y-97476223D01*
X169256136Y-97569348D01*
X167230384Y-99595100D01*
X166677440Y-99595100D01*
X166341477Y-99455596D01*
X165892492Y-99455204D01*
X165477534Y-99626661D01*
X165159777Y-99943865D01*
X164987596Y-100358523D01*
X164987204Y-100807508D01*
X165158661Y-101222466D01*
X165281917Y-101345937D01*
X165159777Y-101467865D01*
X164987596Y-101882523D01*
X164987204Y-102331508D01*
X165158661Y-102746466D01*
X165475865Y-103064223D01*
X165890523Y-103236404D01*
X166339508Y-103236796D01*
X166754466Y-103065339D01*
X167072223Y-102748135D01*
X167138343Y-102588900D01*
X167640000Y-102588900D01*
X168018436Y-102513624D01*
X168339258Y-102299258D01*
X176177616Y-94460900D01*
X184481092Y-94460900D01*
X184273534Y-94546661D01*
X183955777Y-94863865D01*
X183783596Y-95278523D01*
X183783204Y-95727508D01*
X183954661Y-96142466D01*
X184271865Y-96460223D01*
X184610193Y-96600709D01*
X184720742Y-96711258D01*
X184981907Y-96885763D01*
X184971787Y-96895865D01*
X184799606Y-97310523D01*
X184799214Y-97759508D01*
X184970671Y-98174466D01*
X185287875Y-98492223D01*
X185702533Y-98664404D01*
X186151518Y-98664796D01*
X186566476Y-98493339D01*
X186670012Y-98389983D01*
X189263501Y-98389983D01*
X189074384Y-98579100D01*
X186944000Y-98579100D01*
X186565564Y-98654376D01*
X186244742Y-98868742D01*
X186026384Y-99087100D01*
X181409454Y-99087100D01*
X181073477Y-98947590D01*
X180624492Y-98947198D01*
X180209534Y-99118655D01*
X179891777Y-99435859D01*
X179719596Y-99850517D01*
X179719204Y-100299502D01*
X179836836Y-100584193D01*
X179719602Y-100866523D01*
X179719210Y-101315508D01*
X179890667Y-101730466D01*
X180207871Y-102048223D01*
X180622529Y-102220404D01*
X181071514Y-102220796D01*
X181410088Y-102080900D01*
X188976000Y-102080900D01*
X189354436Y-102005624D01*
X189675258Y-101791258D01*
X193768675Y-97697841D01*
X193860661Y-97920466D01*
X194177865Y-98238223D01*
X194592523Y-98410404D01*
X195041508Y-98410796D01*
X195380082Y-98270900D01*
X195834000Y-98270900D01*
X196212436Y-98195624D01*
X196533258Y-97981258D01*
X197513616Y-97000900D01*
X198113556Y-97000900D01*
X198178661Y-97158466D01*
X198495865Y-97476223D01*
X198910523Y-97648404D01*
X199359508Y-97648796D01*
X199774466Y-97477339D01*
X200092223Y-97160135D01*
X200151934Y-97016335D01*
X200179100Y-97082082D01*
X200179100Y-97634384D01*
X197710384Y-100103100D01*
X196141440Y-100103100D01*
X195805477Y-99963596D01*
X195356492Y-99963204D01*
X194941534Y-100134661D01*
X194623777Y-100451865D01*
X194451596Y-100866523D01*
X194451204Y-101315508D01*
X194622661Y-101730466D01*
X194939865Y-102048223D01*
X195354523Y-102220404D01*
X195803508Y-102220796D01*
X196142082Y-102080900D01*
X198120000Y-102080900D01*
X198498436Y-102005624D01*
X198819258Y-101791258D01*
X200819008Y-99791508D01*
X208675204Y-99791508D01*
X208846661Y-100206466D01*
X209163865Y-100524223D01*
X209578523Y-100696404D01*
X209619661Y-100696440D01*
X209355777Y-100959865D01*
X209183596Y-101374523D01*
X209183204Y-101823508D01*
X209354661Y-102238466D01*
X209671865Y-102556223D01*
X210086523Y-102728404D01*
X210535508Y-102728796D01*
X210950466Y-102557339D01*
X211268223Y-102240135D01*
X211334343Y-102080900D01*
X211836000Y-102080900D01*
X212214436Y-102005624D01*
X212535258Y-101791258D01*
X216091258Y-98235258D01*
X216305624Y-97914436D01*
X216380900Y-97536000D01*
X216380900Y-97081440D01*
X216520404Y-96745477D01*
X216520796Y-96296492D01*
X216349339Y-95881534D01*
X216032135Y-95563777D01*
X215617477Y-95391596D01*
X215168492Y-95391204D01*
X214883811Y-95508831D01*
X214601477Y-95391596D01*
X214152492Y-95391204D01*
X213813918Y-95531100D01*
X210820000Y-95531100D01*
X210441564Y-95606376D01*
X210276065Y-95716959D01*
X210120742Y-95820742D01*
X209104742Y-96836742D01*
X208890376Y-97157564D01*
X208815100Y-97536000D01*
X208815100Y-99006560D01*
X208675596Y-99342523D01*
X208675204Y-99791508D01*
X200819008Y-99791508D01*
X201867258Y-98743258D01*
X202081624Y-98422436D01*
X202156900Y-98044000D01*
X202156900Y-97081440D01*
X202296404Y-96745477D01*
X202296796Y-96296492D01*
X202125339Y-95881534D01*
X201808135Y-95563777D01*
X201393477Y-95391596D01*
X200944492Y-95391204D01*
X200529534Y-95562661D01*
X200211777Y-95879865D01*
X200152066Y-96023665D01*
X200093339Y-95881534D01*
X199776135Y-95563777D01*
X199437807Y-95423291D01*
X199327258Y-95312742D01*
X199278992Y-95280492D01*
X199006436Y-95098376D01*
X198628000Y-95023100D01*
X197104000Y-95023100D01*
X196725564Y-95098376D01*
X196453008Y-95280492D01*
X196404742Y-95312742D01*
X195424384Y-96293100D01*
X195379440Y-96293100D01*
X195233864Y-96232652D01*
X199291271Y-92175245D01*
X199511865Y-92396223D01*
X199647289Y-92452456D01*
X199702661Y-92586466D01*
X200019865Y-92904223D01*
X200155289Y-92960456D01*
X200210661Y-93094466D01*
X200527865Y-93412223D01*
X200663289Y-93468456D01*
X200718661Y-93602466D01*
X201035865Y-93920223D01*
X201450523Y-94092404D01*
X201899508Y-94092796D01*
X202314466Y-93921339D01*
X202632223Y-93604135D01*
X202804404Y-93189477D01*
X202804796Y-92740492D01*
X202664900Y-92401918D01*
X202664900Y-90833616D01*
X204360869Y-89137647D01*
X218255793Y-89137647D01*
X218438097Y-89578857D01*
X218775367Y-89916717D01*
X219216258Y-90099791D01*
X219693647Y-90100207D01*
X220134857Y-89917903D01*
X220472717Y-89580633D01*
X220655791Y-89139742D01*
X220656207Y-88662353D01*
X220473903Y-88221143D01*
X220136633Y-87883283D01*
X219695742Y-87700209D01*
X219218353Y-87699793D01*
X218777143Y-87882097D01*
X218439283Y-88219367D01*
X218256209Y-88660258D01*
X218255793Y-89137647D01*
X204360869Y-89137647D01*
X204518259Y-88980257D01*
X204854466Y-88841339D01*
X205172223Y-88524135D01*
X205344404Y-88109477D01*
X205344796Y-87660492D01*
X205227169Y-87375811D01*
X205344404Y-87093477D01*
X205344796Y-86644492D01*
X205173339Y-86229534D01*
X204856135Y-85911777D01*
X204836556Y-85903647D01*
X204836796Y-85628476D01*
X204665339Y-85213518D01*
X204348135Y-84895761D01*
X204123876Y-84802640D01*
X205026259Y-83900257D01*
X205362466Y-83761339D01*
X205680223Y-83444135D01*
X205847350Y-83041647D01*
X217239793Y-83041647D01*
X217422097Y-83482857D01*
X217759367Y-83820717D01*
X218200258Y-84003791D01*
X218677647Y-84004207D01*
X219118857Y-83821903D01*
X219456717Y-83484633D01*
X219639791Y-83043742D01*
X219640207Y-82566353D01*
X219457903Y-82125143D01*
X219120633Y-81787283D01*
X218679742Y-81604209D01*
X218202353Y-81603793D01*
X217761143Y-81786097D01*
X217423283Y-82123367D01*
X217240209Y-82564258D01*
X217239793Y-83041647D01*
X205847350Y-83041647D01*
X205852404Y-83029477D01*
X205852796Y-82580492D01*
X205735169Y-82295811D01*
X205852404Y-82013477D01*
X205852796Y-81564492D01*
X205681339Y-81149534D01*
X205364135Y-80831777D01*
X204949477Y-80659596D01*
X204836699Y-80659498D01*
X204836796Y-80548492D01*
X204665339Y-80133534D01*
X204348135Y-79815777D01*
X203933477Y-79643596D01*
X203484492Y-79643204D01*
X203069534Y-79814661D01*
X202751777Y-80131865D01*
X202611291Y-80470193D01*
X194880742Y-88200742D01*
X194666376Y-88521564D01*
X194591100Y-88900000D01*
X194591100Y-91030384D01*
X190598384Y-95023100D01*
X185934444Y-95023100D01*
X185869339Y-94865534D01*
X185552135Y-94547777D01*
X185342912Y-94460900D01*
X185420000Y-94460900D01*
X185798436Y-94385624D01*
X186119258Y-94171258D01*
X189167258Y-91123258D01*
X189208480Y-91061565D01*
X189381624Y-90802436D01*
X189456900Y-90424000D01*
X189456900Y-86868000D01*
X189381624Y-86489564D01*
X189167258Y-86168742D01*
X189131445Y-86132929D01*
X189216866Y-85927211D01*
X189217282Y-85449822D01*
X189034978Y-85008612D01*
X188697708Y-84670752D01*
X188256817Y-84487678D01*
X187779428Y-84487262D01*
X187571636Y-84573120D01*
X187424900Y-84426384D01*
X187424900Y-79471508D01*
X193435204Y-79471508D01*
X193606661Y-79886466D01*
X193923865Y-80204223D01*
X194338523Y-80376404D01*
X194787508Y-80376796D01*
X195126082Y-80236900D01*
X196596000Y-80236900D01*
X196974436Y-80161624D01*
X197295258Y-79947258D01*
X199438259Y-77804257D01*
X199774466Y-77665339D01*
X200092223Y-77348135D01*
X200264404Y-76933477D01*
X200264796Y-76484492D01*
X200093339Y-76069534D01*
X199776135Y-75751777D01*
X199361477Y-75579596D01*
X198912492Y-75579204D01*
X198497534Y-75750661D01*
X198179777Y-76067865D01*
X198039291Y-76406193D01*
X196186384Y-78259100D01*
X195125440Y-78259100D01*
X194789477Y-78119596D01*
X194340492Y-78119204D01*
X193925534Y-78290661D01*
X193607777Y-78607865D01*
X193435596Y-79022523D01*
X193435204Y-79471508D01*
X187424900Y-79471508D01*
X187424900Y-73757850D01*
X187890484Y-73938302D01*
X188517895Y-73923904D01*
X188970082Y-73736603D01*
X189490484Y-73938302D01*
X190117895Y-73923904D01*
X190570082Y-73736603D01*
X191090484Y-73938302D01*
X191717895Y-73923904D01*
X192170082Y-73736603D01*
X192690484Y-73938302D01*
X193317895Y-73923904D01*
X193770082Y-73736603D01*
X194290484Y-73938302D01*
X194917895Y-73923904D01*
X195370082Y-73736603D01*
X195890484Y-73938302D01*
X196517895Y-73923904D01*
X196970082Y-73736603D01*
X197490484Y-73938302D01*
X198117895Y-73923904D01*
X198570082Y-73736603D01*
X199090484Y-73938302D01*
X199717895Y-73923904D01*
X200170082Y-73736603D01*
X200690484Y-73938302D01*
X201317895Y-73923904D01*
X201770082Y-73736603D01*
X202290484Y-73938302D01*
X202917895Y-73923904D01*
X203370082Y-73736603D01*
X203890484Y-73938302D01*
X204517895Y-73923904D01*
X204970082Y-73736603D01*
X205490484Y-73938302D01*
X206117895Y-73923904D01*
X206570082Y-73736603D01*
X207090484Y-73938302D01*
X207717895Y-73923904D01*
X207763200Y-73905138D01*
X207763200Y-74856000D01*
X207854910Y-75317057D01*
X208116078Y-75707922D01*
X211736564Y-79328409D01*
X211786933Y-79450311D01*
X212139831Y-79803825D01*
X212601150Y-79995382D01*
X213100659Y-79995818D01*
X213562311Y-79805067D01*
X213915825Y-79452169D01*
X214107382Y-78990850D01*
X214107818Y-78491341D01*
X213917067Y-78029689D01*
X213564169Y-77676175D01*
X213440787Y-77624942D01*
X211300566Y-75484722D01*
X211457565Y-75589625D01*
X211836000Y-75664900D01*
X223295095Y-75664900D01*
X224021453Y-76391258D01*
X224342275Y-76605624D01*
X224366064Y-76610356D01*
X224403865Y-76648223D01*
X224818523Y-76820404D01*
X225085000Y-76820637D01*
X225085000Y-114595000D01*
X97495000Y-114595000D01*
X97495000Y-106227376D01*
X97804258Y-106355791D01*
X98281647Y-106356207D01*
X98722857Y-106173903D01*
X99060717Y-105836633D01*
X99243791Y-105395742D01*
X99244207Y-104918353D01*
X99061903Y-104477143D01*
X98724633Y-104139283D01*
X98283742Y-103956209D01*
X97806353Y-103955793D01*
X97495000Y-104084441D01*
X97495000Y-96520000D01*
X103659100Y-96520000D01*
X103659100Y-103124000D01*
X103734376Y-103502436D01*
X103907520Y-103761565D01*
X103948742Y-103823258D01*
X104567743Y-104442259D01*
X104706661Y-104778466D01*
X105023865Y-105096223D01*
X105438523Y-105268404D01*
X105887508Y-105268796D01*
X106302466Y-105097339D01*
X106620223Y-104780135D01*
X106792404Y-104365477D01*
X106792796Y-103916492D01*
X106773441Y-103869647D01*
X108527793Y-103869647D01*
X108710097Y-104310857D01*
X109047367Y-104648717D01*
X109488258Y-104831791D01*
X109965647Y-104832207D01*
X110406857Y-104649903D01*
X110744293Y-104313057D01*
X111079367Y-104648717D01*
X111520258Y-104831791D01*
X111997647Y-104832207D01*
X112438857Y-104649903D01*
X112776717Y-104312633D01*
X112959791Y-103871742D01*
X112960207Y-103394353D01*
X112946694Y-103361647D01*
X123767793Y-103361647D01*
X123950097Y-103802857D01*
X124287367Y-104140717D01*
X124728258Y-104323791D01*
X125205647Y-104324207D01*
X125646857Y-104141903D01*
X125984717Y-103804633D01*
X126167791Y-103363742D01*
X126167792Y-103361647D01*
X126307793Y-103361647D01*
X126490097Y-103802857D01*
X126827367Y-104140717D01*
X127268258Y-104323791D01*
X127745647Y-104324207D01*
X128186857Y-104141903D01*
X128459589Y-103869647D01*
X138499793Y-103869647D01*
X138682097Y-104310857D01*
X139019367Y-104648717D01*
X139460258Y-104831791D01*
X139937647Y-104832207D01*
X140378857Y-104649903D01*
X140716293Y-104313057D01*
X141051367Y-104648717D01*
X141492258Y-104831791D01*
X141969647Y-104832207D01*
X142410857Y-104649903D01*
X142748717Y-104312633D01*
X142931791Y-103871742D01*
X142932207Y-103394353D01*
X142749903Y-102953143D01*
X142412633Y-102615283D01*
X141971742Y-102432209D01*
X141494353Y-102431793D01*
X141053143Y-102614097D01*
X140715707Y-102950943D01*
X140380633Y-102615283D01*
X139939742Y-102432209D01*
X139462353Y-102431793D01*
X139021143Y-102614097D01*
X138683283Y-102951367D01*
X138500209Y-103392258D01*
X138499793Y-103869647D01*
X128459589Y-103869647D01*
X128524717Y-103804633D01*
X128707791Y-103363742D01*
X128708207Y-102886353D01*
X128525903Y-102445143D01*
X128188633Y-102107283D01*
X127747742Y-101924209D01*
X127270353Y-101923793D01*
X126829143Y-102106097D01*
X126491283Y-102443367D01*
X126308209Y-102884258D01*
X126307793Y-103361647D01*
X126167792Y-103361647D01*
X126168207Y-102886353D01*
X125985903Y-102445143D01*
X125648633Y-102107283D01*
X125207742Y-101924209D01*
X124730353Y-101923793D01*
X124289143Y-102106097D01*
X123951283Y-102443367D01*
X123768209Y-102884258D01*
X123767793Y-103361647D01*
X112946694Y-103361647D01*
X112777903Y-102953143D01*
X112440633Y-102615283D01*
X111999742Y-102432209D01*
X111522353Y-102431793D01*
X111081143Y-102614097D01*
X110743707Y-102950943D01*
X110408633Y-102615283D01*
X109967742Y-102432209D01*
X109490353Y-102431793D01*
X109049143Y-102614097D01*
X108711283Y-102951367D01*
X108528209Y-103392258D01*
X108527793Y-103869647D01*
X106773441Y-103869647D01*
X106621339Y-103501534D01*
X106498083Y-103378063D01*
X106620223Y-103256135D01*
X106792404Y-102841477D01*
X106792796Y-102392492D01*
X106652900Y-102053918D01*
X106652900Y-101145440D01*
X106792404Y-100809477D01*
X106792796Y-100360492D01*
X106621339Y-99945534D01*
X106304135Y-99627777D01*
X105889477Y-99455596D01*
X105636900Y-99455375D01*
X105636900Y-96929616D01*
X105966259Y-96600257D01*
X106302466Y-96461339D01*
X106620223Y-96144135D01*
X106792404Y-95729477D01*
X106792796Y-95280492D01*
X106621339Y-94865534D01*
X106304135Y-94547777D01*
X105889477Y-94375596D01*
X105440492Y-94375204D01*
X105025534Y-94546661D01*
X104707777Y-94863865D01*
X104567291Y-95202193D01*
X103948742Y-95820742D01*
X103734376Y-96141564D01*
X103659100Y-96520000D01*
X97495000Y-96520000D01*
X97495000Y-77365283D01*
X102062038Y-77365283D01*
X102108329Y-77745278D01*
X102810220Y-78025890D01*
X103566069Y-78016539D01*
X104220951Y-77745278D01*
X104267242Y-77365283D01*
X103164640Y-76262681D01*
X102062038Y-77365283D01*
X97495000Y-77365283D01*
X97495000Y-71956600D01*
X97716160Y-71956600D01*
X97716160Y-72707170D01*
X97971376Y-73790229D01*
X98621634Y-74693178D01*
X99567937Y-75278551D01*
X100021878Y-75404764D01*
X100466220Y-75180288D01*
X100466220Y-71956600D01*
X100666220Y-71956600D01*
X100666220Y-75180288D01*
X101110562Y-75404764D01*
X101441559Y-75312734D01*
X101260010Y-75766840D01*
X101269361Y-76522689D01*
X101540622Y-77177571D01*
X101920617Y-77223862D01*
X103023219Y-76121260D01*
X103009077Y-76107118D01*
X103150498Y-75965697D01*
X103164640Y-75979839D01*
X104267242Y-74877237D01*
X104220951Y-74497242D01*
X103519060Y-74216630D01*
X102848013Y-74224932D01*
X103161064Y-73790229D01*
X103416280Y-72707170D01*
X103416280Y-71956600D01*
X100666220Y-71956600D01*
X100466220Y-71956600D01*
X97716160Y-71956600D01*
X97495000Y-71956600D01*
X97495000Y-71006030D01*
X97716160Y-71006030D01*
X97716160Y-71756600D01*
X100466220Y-71756600D01*
X100466220Y-68532912D01*
X100666220Y-68532912D01*
X100666220Y-71756600D01*
X103416280Y-71756600D01*
X103416280Y-71006030D01*
X107914260Y-71006030D01*
X107914260Y-71756600D01*
X110664320Y-71756600D01*
X110664320Y-68532912D01*
X110864320Y-68532912D01*
X110864320Y-71756600D01*
X113614380Y-71756600D01*
X113614380Y-71006030D01*
X113359164Y-69922971D01*
X112708906Y-69020022D01*
X111762603Y-68434649D01*
X111308662Y-68308436D01*
X110864320Y-68532912D01*
X110664320Y-68532912D01*
X110219978Y-68308436D01*
X109766037Y-68434649D01*
X108819734Y-69020022D01*
X108169476Y-69922971D01*
X107914260Y-71006030D01*
X103416280Y-71006030D01*
X103161064Y-69922971D01*
X102510806Y-69020022D01*
X101564503Y-68434649D01*
X101110562Y-68308436D01*
X100666220Y-68532912D01*
X100466220Y-68532912D01*
X100021878Y-68308436D01*
X99567937Y-68434649D01*
X98621634Y-69020022D01*
X97971376Y-69922971D01*
X97716160Y-71006030D01*
X97495000Y-71006030D01*
X97495000Y-64475000D01*
X115641576Y-64475000D01*
X115821069Y-64654493D01*
X115821069Y-64654493D01*
G37*
X115821069Y-64654493D02*
X115418680Y-64727144D01*
X115102066Y-65507130D01*
X115108040Y-66348906D01*
X115418680Y-67098856D01*
X115821072Y-67171507D01*
X117079579Y-65913000D01*
X117065437Y-65898858D01*
X117206858Y-65757437D01*
X117221000Y-65771579D01*
X117235143Y-65757437D01*
X117376564Y-65898858D01*
X117362421Y-65913000D01*
X117376564Y-65927143D01*
X117235143Y-66068564D01*
X117221000Y-66054421D01*
X115962493Y-67312928D01*
X116035144Y-67715320D01*
X116815130Y-68031934D01*
X117518542Y-68026942D01*
X113588884Y-71956600D01*
X110864320Y-71956600D01*
X110864320Y-71976600D01*
X110664320Y-71976600D01*
X110664320Y-71956600D01*
X107914260Y-71956600D01*
X107914260Y-72707170D01*
X108169476Y-73790229D01*
X108819734Y-74693178D01*
X109529707Y-75132360D01*
X107079033Y-75132360D01*
X106628287Y-74680826D01*
X106003654Y-74421456D01*
X105327313Y-74420865D01*
X104702229Y-74679145D01*
X104223566Y-75156973D01*
X104190347Y-75236974D01*
X103306061Y-76121260D01*
X104189532Y-77004731D01*
X104221885Y-77083031D01*
X104699713Y-77561694D01*
X105324346Y-77821064D01*
X106000687Y-77821655D01*
X106625771Y-77563375D01*
X107079778Y-77110160D01*
X109995657Y-77110160D01*
X109597534Y-77274661D01*
X109279777Y-77591865D01*
X109139291Y-77930193D01*
X108520742Y-78548742D01*
X108306376Y-78869564D01*
X108231100Y-79248000D01*
X108231100Y-84209544D01*
X108126523Y-84166120D01*
X108064308Y-84015548D01*
X107727038Y-83677688D01*
X107286147Y-83494614D01*
X106808758Y-83494198D01*
X106367548Y-83676502D01*
X106029688Y-84013772D01*
X105846614Y-84454663D01*
X105846386Y-84715903D01*
X101690401Y-88871888D01*
X101470014Y-89201719D01*
X101392625Y-89590782D01*
X101392625Y-91362440D01*
X101470014Y-91751503D01*
X101690401Y-92081334D01*
X102482666Y-92873599D01*
X102812497Y-93093986D01*
X103201560Y-93171375D01*
X103717620Y-93171375D01*
X104106683Y-93093986D01*
X104373417Y-92915759D01*
X104653443Y-92916003D01*
X105094653Y-92733699D01*
X105432513Y-92396429D01*
X105615587Y-91955538D01*
X105616003Y-91478149D01*
X105433699Y-91036939D01*
X105096429Y-90699079D01*
X104944322Y-90635919D01*
X104882107Y-90485347D01*
X104544837Y-90147487D01*
X104103946Y-89964413D01*
X104058142Y-89964373D01*
X107576537Y-86445978D01*
X107835644Y-86446204D01*
X108231100Y-86282805D01*
X108231100Y-92456000D01*
X108306376Y-92834436D01*
X108480122Y-93094466D01*
X108520742Y-93155258D01*
X113092742Y-97727258D01*
X113413564Y-97941624D01*
X113792000Y-98016900D01*
X115414384Y-98016900D01*
X119807743Y-102410259D01*
X119946661Y-102746466D01*
X120263865Y-103064223D01*
X120678523Y-103236404D01*
X121127508Y-103236796D01*
X121542466Y-103065339D01*
X121860223Y-102748135D01*
X122032404Y-102333477D01*
X122032796Y-101884492D01*
X121915169Y-101599811D01*
X122032404Y-101317477D01*
X122032796Y-100868492D01*
X121861339Y-100453534D01*
X121544135Y-100135777D01*
X121205807Y-99995291D01*
X118211416Y-97000900D01*
X123437556Y-97000900D01*
X123502661Y-97158466D01*
X123819865Y-97476223D01*
X124234523Y-97648404D01*
X124683508Y-97648796D01*
X125098466Y-97477339D01*
X125416223Y-97160135D01*
X125588404Y-96745477D01*
X125588796Y-96296492D01*
X125471169Y-96011811D01*
X125588404Y-95729477D01*
X125588612Y-95491128D01*
X129348742Y-99251258D01*
X129669564Y-99465624D01*
X130048000Y-99540900D01*
X133702384Y-99540900D01*
X135952742Y-101791258D01*
X136273564Y-102005624D01*
X136652000Y-102080900D01*
X143000466Y-102080900D01*
X143378902Y-102005624D01*
X143699724Y-101791258D01*
X144934082Y-100556900D01*
X148434384Y-100556900D01*
X148885565Y-101008081D01*
X145911348Y-101008081D01*
X145911301Y-101008034D01*
X145470410Y-100824960D01*
X144993021Y-100824544D01*
X144551811Y-101006848D01*
X144213951Y-101344118D01*
X144030877Y-101785009D01*
X144030461Y-102262398D01*
X144212765Y-102703608D01*
X144550035Y-103041468D01*
X144702142Y-103104628D01*
X144764357Y-103255200D01*
X145101627Y-103593060D01*
X145542518Y-103776134D01*
X146019907Y-103776550D01*
X146461117Y-103594246D01*
X146600776Y-103454831D01*
X148671996Y-103454831D01*
X148737791Y-103520626D01*
X148737565Y-103779733D01*
X148919869Y-104220943D01*
X149257139Y-104558803D01*
X149698030Y-104741877D01*
X150175419Y-104742293D01*
X150616629Y-104559989D01*
X150954489Y-104222719D01*
X151017649Y-104070612D01*
X151168221Y-104008397D01*
X151506081Y-103671127D01*
X151634588Y-103361647D01*
X153739793Y-103361647D01*
X153922097Y-103802857D01*
X154259367Y-104140717D01*
X154700258Y-104323791D01*
X155177647Y-104324207D01*
X155618857Y-104141903D01*
X155956293Y-103805057D01*
X156291367Y-104140717D01*
X156732258Y-104323791D01*
X157209647Y-104324207D01*
X157650857Y-104141903D01*
X157923589Y-103869647D01*
X168979793Y-103869647D01*
X169162097Y-104310857D01*
X169499367Y-104648717D01*
X169940258Y-104831791D01*
X170417647Y-104832207D01*
X170858857Y-104649903D01*
X171196293Y-104313057D01*
X171531367Y-104648717D01*
X171972258Y-104831791D01*
X172449647Y-104832207D01*
X172890857Y-104649903D01*
X173228717Y-104312633D01*
X173411791Y-103871742D01*
X173411792Y-103869647D01*
X183711793Y-103869647D01*
X183894097Y-104310857D01*
X184231367Y-104648717D01*
X184672258Y-104831791D01*
X185149647Y-104832207D01*
X185590857Y-104649903D01*
X185673849Y-104567056D01*
X185755367Y-104648717D01*
X186196258Y-104831791D01*
X186673647Y-104832207D01*
X187114857Y-104649903D01*
X187452717Y-104312633D01*
X187635791Y-103871742D01*
X187636207Y-103394353D01*
X187622694Y-103361647D01*
X198443793Y-103361647D01*
X198626097Y-103802857D01*
X198963367Y-104140717D01*
X199404258Y-104323791D01*
X199881647Y-104324207D01*
X200322857Y-104141903D01*
X200595589Y-103869647D01*
X200983793Y-103869647D01*
X201166097Y-104310857D01*
X201503367Y-104648717D01*
X201944258Y-104831791D01*
X202421647Y-104832207D01*
X202862857Y-104649903D01*
X203200717Y-104312633D01*
X203383791Y-103871742D01*
X203383792Y-103869647D01*
X213683793Y-103869647D01*
X213866097Y-104310857D01*
X214203367Y-104648717D01*
X214644258Y-104831791D01*
X215121647Y-104832207D01*
X215562857Y-104649903D01*
X215900717Y-104312633D01*
X216083791Y-103871742D01*
X216083792Y-103869647D01*
X216223793Y-103869647D01*
X216406097Y-104310857D01*
X216743367Y-104648717D01*
X217184258Y-104831791D01*
X217661647Y-104832207D01*
X218102857Y-104649903D01*
X218440717Y-104312633D01*
X218623791Y-103871742D01*
X218624207Y-103394353D01*
X218441903Y-102953143D01*
X218104633Y-102615283D01*
X217663742Y-102432209D01*
X217186353Y-102431793D01*
X216745143Y-102614097D01*
X216407283Y-102951367D01*
X216224209Y-103392258D01*
X216223793Y-103869647D01*
X216083792Y-103869647D01*
X216084207Y-103394353D01*
X215901903Y-102953143D01*
X215564633Y-102615283D01*
X215123742Y-102432209D01*
X214646353Y-102431793D01*
X214205143Y-102614097D01*
X213867283Y-102951367D01*
X213684209Y-103392258D01*
X213683793Y-103869647D01*
X203383792Y-103869647D01*
X203384207Y-103394353D01*
X203201903Y-102953143D01*
X202864633Y-102615283D01*
X202423742Y-102432209D01*
X201946353Y-102431793D01*
X201505143Y-102614097D01*
X201167283Y-102951367D01*
X200984209Y-103392258D01*
X200983793Y-103869647D01*
X200595589Y-103869647D01*
X200660717Y-103804633D01*
X200843791Y-103363742D01*
X200844207Y-102886353D01*
X200661903Y-102445143D01*
X200324633Y-102107283D01*
X199883742Y-101924209D01*
X199406353Y-101923793D01*
X198965143Y-102106097D01*
X198627283Y-102443367D01*
X198444209Y-102884258D01*
X198443793Y-103361647D01*
X187622694Y-103361647D01*
X187453903Y-102953143D01*
X187116633Y-102615283D01*
X186675742Y-102432209D01*
X186198353Y-102431793D01*
X185757143Y-102614097D01*
X185674151Y-102696944D01*
X185592633Y-102615283D01*
X185151742Y-102432209D01*
X184674353Y-102431793D01*
X184233143Y-102614097D01*
X183895283Y-102951367D01*
X183712209Y-103392258D01*
X183711793Y-103869647D01*
X173411792Y-103869647D01*
X173412207Y-103394353D01*
X173229903Y-102953143D01*
X172892633Y-102615283D01*
X172451742Y-102432209D01*
X171974353Y-102431793D01*
X171533143Y-102614097D01*
X171195707Y-102950943D01*
X170860633Y-102615283D01*
X170419742Y-102432209D01*
X169942353Y-102431793D01*
X169501143Y-102614097D01*
X169163283Y-102951367D01*
X168980209Y-103392258D01*
X168979793Y-103869647D01*
X157923589Y-103869647D01*
X157988717Y-103804633D01*
X158171791Y-103363742D01*
X158172207Y-102886353D01*
X157989903Y-102445143D01*
X157652633Y-102107283D01*
X157211742Y-101924209D01*
X156734353Y-101923793D01*
X156293143Y-102106097D01*
X155955707Y-102442943D01*
X155620633Y-102107283D01*
X155179742Y-101924209D01*
X154702353Y-101923793D01*
X154261143Y-102106097D01*
X153923283Y-102443367D01*
X153740209Y-102884258D01*
X153739793Y-103361647D01*
X151634588Y-103361647D01*
X151689155Y-103230236D01*
X151689571Y-102752847D01*
X151581245Y-102490677D01*
X151832223Y-102240135D01*
X152004404Y-101825477D01*
X152004796Y-101376492D01*
X151833339Y-100961534D01*
X151710083Y-100838063D01*
X151832223Y-100716135D01*
X152004404Y-100301477D01*
X152004796Y-99852492D01*
X151833339Y-99437534D01*
X151516135Y-99119777D01*
X151177807Y-98979291D01*
X149199416Y-97000900D01*
X152901556Y-97000900D01*
X152966661Y-97158466D01*
X153283865Y-97476223D01*
X153698523Y-97648404D01*
X154147508Y-97648796D01*
X154562466Y-97477339D01*
X154880223Y-97160135D01*
X155052404Y-96745477D01*
X155052796Y-96296492D01*
X154935169Y-96011811D01*
X155052404Y-95729477D01*
X155052796Y-95280492D01*
X154881339Y-94865534D01*
X154564135Y-94547777D01*
X154149477Y-94375596D01*
X153700492Y-94375204D01*
X153361918Y-94515100D01*
X137103631Y-94515100D01*
X137103862Y-94250353D01*
X136921558Y-93809143D01*
X136584288Y-93471283D01*
X136143397Y-93288209D01*
X136141651Y-93288207D01*
X134611623Y-91758179D01*
X134873883Y-91758408D01*
X135315093Y-91576104D01*
X135652953Y-91238834D01*
X135836027Y-90797943D01*
X135836443Y-90320554D01*
X135654139Y-89879344D01*
X135469575Y-89694457D01*
X135469575Y-87615788D01*
X135548092Y-87615857D01*
X135562682Y-87637692D01*
X136127774Y-88202784D01*
X136127548Y-88461891D01*
X136309852Y-88903101D01*
X136647122Y-89240961D01*
X137088013Y-89424035D01*
X137565402Y-89424451D01*
X138006612Y-89242147D01*
X138344472Y-88904877D01*
X138407632Y-88752770D01*
X138558204Y-88690555D01*
X138896064Y-88353285D01*
X139079138Y-87912394D01*
X139079554Y-87435005D01*
X138958053Y-87140950D01*
X139065165Y-87034025D01*
X139392323Y-87361754D01*
X140002957Y-87615311D01*
X140664142Y-87615888D01*
X141275218Y-87363397D01*
X141605165Y-87034025D01*
X141897606Y-87326976D01*
X141764396Y-87459954D01*
X141581322Y-87900845D01*
X141580906Y-88378234D01*
X141763210Y-88819444D01*
X141947774Y-89004331D01*
X141947774Y-90215610D01*
X141726557Y-90215417D01*
X141285347Y-90397721D01*
X140947487Y-90734991D01*
X140764413Y-91175882D01*
X140763997Y-91653271D01*
X140946301Y-92094481D01*
X141283571Y-92432341D01*
X141435678Y-92495501D01*
X141497893Y-92646073D01*
X141835163Y-92983933D01*
X142276054Y-93167007D01*
X142753443Y-93167423D01*
X143194653Y-92985119D01*
X143532513Y-92647849D01*
X143715587Y-92206958D01*
X143715815Y-91945718D01*
X144096746Y-91564787D01*
X144317133Y-91234956D01*
X144335261Y-91143819D01*
X144394522Y-90845893D01*
X144394522Y-89360128D01*
X144791493Y-89360128D01*
X144864144Y-89762520D01*
X145644130Y-90079134D01*
X146485906Y-90073160D01*
X147235856Y-89762520D01*
X147308507Y-89360128D01*
X146050000Y-88101621D01*
X144791493Y-89360128D01*
X144394522Y-89360128D01*
X144394522Y-89172568D01*
X144650072Y-89218707D01*
X145908579Y-87960200D01*
X144650072Y-86701693D01*
X144340763Y-86757538D01*
X144422675Y-86560272D01*
X144791493Y-86560272D01*
X146050000Y-87818779D01*
X147308507Y-86560272D01*
X147235856Y-86157880D01*
X146455870Y-85841266D01*
X145614094Y-85847240D01*
X144864144Y-86157880D01*
X144791493Y-86560272D01*
X144422675Y-86560272D01*
X144536711Y-86285643D01*
X144537288Y-85624458D01*
X144310565Y-85075745D01*
X144474142Y-85075888D01*
X145085218Y-84823397D01*
X145553154Y-84356277D01*
X145806711Y-83745643D01*
X145807288Y-83084458D01*
X145554797Y-82473382D01*
X145087677Y-82005446D01*
X144477043Y-81751889D01*
X143815858Y-81751312D01*
X143204782Y-82003803D01*
X142874835Y-82333175D01*
X142547677Y-82005446D01*
X141937043Y-81751889D01*
X141275858Y-81751312D01*
X140664782Y-82003803D01*
X140334835Y-82333175D01*
X140007677Y-82005446D01*
X139397043Y-81751889D01*
X138735858Y-81751312D01*
X138124782Y-82003803D01*
X137794835Y-82333175D01*
X137467677Y-82005446D01*
X136857043Y-81751889D01*
X136195858Y-81751312D01*
X135612960Y-81992160D01*
X135504090Y-81883100D01*
X135063199Y-81700026D01*
X134585810Y-81699610D01*
X134144600Y-81881914D01*
X133806740Y-82219184D01*
X133742284Y-82374411D01*
X133742284Y-80066135D01*
X133845203Y-80315218D01*
X134312323Y-80783154D01*
X134922957Y-81036711D01*
X135584142Y-81037288D01*
X136195218Y-80784797D01*
X136525165Y-80455425D01*
X136852323Y-80783154D01*
X137462957Y-81036711D01*
X138124142Y-81037288D01*
X138735218Y-80784797D01*
X139065165Y-80455425D01*
X139392323Y-80783154D01*
X140002957Y-81036711D01*
X140664142Y-81037288D01*
X141275218Y-80784797D01*
X141605165Y-80455425D01*
X141932323Y-80783154D01*
X142542957Y-81036711D01*
X143204142Y-81037288D01*
X143815218Y-80784797D01*
X144283154Y-80317677D01*
X144536711Y-79707043D01*
X144537288Y-79045858D01*
X144310565Y-78497145D01*
X144474142Y-78497288D01*
X145085218Y-78244797D01*
X145553154Y-77777677D01*
X145806711Y-77167043D01*
X145807288Y-76505858D01*
X145554797Y-75894782D01*
X145087677Y-75426846D01*
X144477043Y-75173289D01*
X143815858Y-75172712D01*
X143204782Y-75425203D01*
X142874835Y-75754575D01*
X142547677Y-75426846D01*
X141937043Y-75173289D01*
X141275858Y-75172712D01*
X140664782Y-75425203D01*
X140334835Y-75754575D01*
X140007677Y-75426846D01*
X139397043Y-75173289D01*
X138735858Y-75172712D01*
X138124782Y-75425203D01*
X137794835Y-75754575D01*
X137467677Y-75426846D01*
X136857043Y-75173289D01*
X136195858Y-75172712D01*
X135584782Y-75425203D01*
X135116846Y-75892323D01*
X134863289Y-76502957D01*
X134862712Y-77164142D01*
X135089435Y-77712855D01*
X134925858Y-77712712D01*
X134314782Y-77965203D01*
X133899424Y-78379837D01*
X133881699Y-78336939D01*
X133544429Y-77999079D01*
X133392322Y-77935919D01*
X133330107Y-77785347D01*
X132992837Y-77447487D01*
X132551946Y-77264413D01*
X132074557Y-77263997D01*
X131738855Y-77402706D01*
X131836711Y-77167043D01*
X131837288Y-76505858D01*
X131584797Y-75894782D01*
X131117677Y-75426846D01*
X130548406Y-75190464D01*
X130668404Y-74901477D01*
X130668796Y-74452492D01*
X130497339Y-74037534D01*
X130180135Y-73719777D01*
X129841807Y-73579291D01*
X123635258Y-67372742D01*
X123545740Y-67312928D01*
X123314436Y-67158376D01*
X122936000Y-67083100D01*
X119029716Y-67083100D01*
X119339934Y-66318870D01*
X119333960Y-65477094D01*
X119023320Y-64727144D01*
X118620931Y-64654493D01*
X118800424Y-64475000D01*
X174569576Y-64475000D01*
X174749069Y-64654493D01*
X174346680Y-64727144D01*
X174030066Y-65507130D01*
X174036040Y-66348906D01*
X174346680Y-67098856D01*
X174749072Y-67171507D01*
X176007579Y-65913000D01*
X175993437Y-65898858D01*
X176134858Y-65757437D01*
X176149000Y-65771579D01*
X176163143Y-65757437D01*
X176304564Y-65898858D01*
X176290421Y-65913000D01*
X176304564Y-65927143D01*
X176163143Y-66068564D01*
X176149000Y-66054421D01*
X174890493Y-67312928D01*
X174963144Y-67715320D01*
X175517243Y-67940241D01*
X174958759Y-68498725D01*
X174794709Y-68334389D01*
X173862114Y-67947142D01*
X172852316Y-67946261D01*
X171919047Y-68331879D01*
X171204389Y-69045291D01*
X170817142Y-69977886D01*
X170816261Y-70987684D01*
X171201879Y-71920953D01*
X171915291Y-72635611D01*
X172847886Y-73022858D01*
X173857684Y-73023739D01*
X174790953Y-72638121D01*
X175505611Y-71924709D01*
X175892858Y-70992114D01*
X175893149Y-70659056D01*
X176050523Y-70724404D01*
X176499508Y-70724796D01*
X176914466Y-70553339D01*
X177232223Y-70236135D01*
X177372712Y-69897800D01*
X178752325Y-68518187D01*
X179131480Y-68898004D01*
X177608742Y-70420742D01*
X177394376Y-70741564D01*
X177319100Y-71120000D01*
X177319100Y-73606560D01*
X177179596Y-73942523D01*
X177179204Y-74391508D01*
X177287676Y-74654029D01*
X177239108Y-74674097D01*
X176901248Y-75011367D01*
X176718174Y-75452258D01*
X176717758Y-75929647D01*
X176900062Y-76370857D01*
X177084626Y-76555744D01*
X177084626Y-77301621D01*
X177093730Y-77347390D01*
X176983373Y-77237033D01*
X176653542Y-77016646D01*
X176264479Y-76939257D01*
X173746910Y-76939257D01*
X173747288Y-76505858D01*
X173494797Y-75894782D01*
X173027677Y-75426846D01*
X172417043Y-75173289D01*
X171755858Y-75172712D01*
X171144782Y-75425203D01*
X170814835Y-75754575D01*
X170487677Y-75426846D01*
X169877043Y-75173289D01*
X169215858Y-75172712D01*
X168604782Y-75425203D01*
X168274835Y-75754575D01*
X167947677Y-75426846D01*
X167337043Y-75173289D01*
X166675858Y-75172712D01*
X166064782Y-75425203D01*
X165734835Y-75754575D01*
X165407677Y-75426846D01*
X164797043Y-75173289D01*
X164135858Y-75172712D01*
X163524782Y-75425203D01*
X163509029Y-75440929D01*
X163245538Y-75264869D01*
X162856475Y-75187480D01*
X162203231Y-75187480D01*
X161814168Y-75264869D01*
X161484337Y-75485255D01*
X160953562Y-76016031D01*
X160680388Y-76015793D01*
X160528172Y-76078687D01*
X160377707Y-76016209D01*
X159900318Y-76015793D01*
X159622268Y-76130681D01*
X159524797Y-75894782D01*
X159057677Y-75426846D01*
X158447043Y-75173289D01*
X157785858Y-75172712D01*
X157174782Y-75425203D01*
X156844835Y-75754575D01*
X156517677Y-75426846D01*
X155907043Y-75173289D01*
X155245858Y-75172712D01*
X154634782Y-75425203D01*
X154304835Y-75754575D01*
X153977677Y-75426846D01*
X153367043Y-75173289D01*
X152705858Y-75172712D01*
X152094782Y-75425203D01*
X151764835Y-75754575D01*
X151437677Y-75426846D01*
X150827043Y-75173289D01*
X150165858Y-75172712D01*
X149554782Y-75425203D01*
X149086846Y-75892323D01*
X148833289Y-76502957D01*
X148832712Y-77164142D01*
X149059435Y-77712855D01*
X148895858Y-77712712D01*
X148284782Y-77965203D01*
X147816846Y-78432323D01*
X147563289Y-79042957D01*
X147562712Y-79704142D01*
X147815203Y-80315218D01*
X148282323Y-80783154D01*
X148892957Y-81036711D01*
X149554142Y-81037288D01*
X150165218Y-80784797D01*
X150495165Y-80455425D01*
X150822323Y-80783154D01*
X151432957Y-81036711D01*
X152088736Y-81037283D01*
X152095719Y-81072387D01*
X152316106Y-81402218D01*
X152611487Y-81697599D01*
X152697217Y-81754882D01*
X152094782Y-82003803D01*
X151764835Y-82333175D01*
X151437677Y-82005446D01*
X150827043Y-81751889D01*
X150165858Y-81751312D01*
X149554782Y-82003803D01*
X149086846Y-82470923D01*
X148833289Y-83081557D01*
X148832712Y-83742742D01*
X149059435Y-84291455D01*
X148895858Y-84291312D01*
X148284782Y-84543803D01*
X147816846Y-85010923D01*
X147563289Y-85621557D01*
X147562712Y-86282742D01*
X147758866Y-86757471D01*
X147449928Y-86701693D01*
X146191421Y-87960200D01*
X147449928Y-89218707D01*
X147852320Y-89146056D01*
X148168934Y-88366070D01*
X148162960Y-87524294D01*
X147963230Y-87042103D01*
X148282323Y-87361754D01*
X148892957Y-87615311D01*
X149554142Y-87615888D01*
X150165218Y-87363397D01*
X150495165Y-87034025D01*
X150822323Y-87361754D01*
X151432957Y-87615311D01*
X152094142Y-87615888D01*
X152705218Y-87363397D01*
X153035165Y-87034025D01*
X153362323Y-87361754D01*
X153972957Y-87615311D01*
X154634142Y-87615888D01*
X154684804Y-87594955D01*
X154707033Y-87628222D01*
X158219534Y-91140724D01*
X158219534Y-92302536D01*
X158219487Y-92302583D01*
X158036413Y-92743474D01*
X158035997Y-93220863D01*
X158218301Y-93662073D01*
X158412888Y-93857000D01*
X158265890Y-94003998D01*
X158045503Y-94333829D01*
X157968114Y-94722892D01*
X157968114Y-96115116D01*
X157968067Y-96115163D01*
X157784993Y-96556054D01*
X157784577Y-97033443D01*
X157966881Y-97474653D01*
X158304151Y-97812513D01*
X158745042Y-97995587D01*
X159222431Y-97996003D01*
X159663641Y-97813699D01*
X160001501Y-97476429D01*
X160064661Y-97324322D01*
X160215233Y-97262107D01*
X160553093Y-96924837D01*
X160736167Y-96483946D01*
X160736583Y-96006557D01*
X160554279Y-95565347D01*
X160414864Y-95425688D01*
X160414864Y-95315248D01*
X161453599Y-94276513D01*
X161673986Y-93946682D01*
X161751375Y-93557619D01*
X161751375Y-92914916D01*
X161761538Y-92863823D01*
X161761538Y-91999425D01*
X161751375Y-91948332D01*
X161751375Y-89313487D01*
X162771487Y-90333599D01*
X163101318Y-90553986D01*
X163490381Y-90631375D01*
X166117263Y-90631375D01*
X167086906Y-91601018D01*
X167416737Y-91821405D01*
X167539175Y-91845759D01*
X167775175Y-92082172D01*
X168216066Y-92265246D01*
X168693455Y-92265662D01*
X168990317Y-92143001D01*
X168942224Y-92384782D01*
X168942224Y-92622711D01*
X168758846Y-92805769D01*
X168575772Y-93246660D01*
X168575356Y-93724049D01*
X168757660Y-94165259D01*
X169094930Y-94503119D01*
X169116868Y-94512228D01*
X169033534Y-94546661D01*
X168715777Y-94863865D01*
X168543596Y-95278523D01*
X168543204Y-95727508D01*
X168660831Y-96012189D01*
X168543596Y-96294523D01*
X168543204Y-96743508D01*
X168714661Y-97158466D01*
X169031865Y-97476223D01*
X169256136Y-97569348D01*
X167230384Y-99595100D01*
X166677440Y-99595100D01*
X166341477Y-99455596D01*
X165892492Y-99455204D01*
X165477534Y-99626661D01*
X165159777Y-99943865D01*
X164987596Y-100358523D01*
X164987204Y-100807508D01*
X165158661Y-101222466D01*
X165281917Y-101345937D01*
X165159777Y-101467865D01*
X164987596Y-101882523D01*
X164987204Y-102331508D01*
X165158661Y-102746466D01*
X165475865Y-103064223D01*
X165890523Y-103236404D01*
X166339508Y-103236796D01*
X166754466Y-103065339D01*
X167072223Y-102748135D01*
X167138343Y-102588900D01*
X167640000Y-102588900D01*
X168018436Y-102513624D01*
X168339258Y-102299258D01*
X176177616Y-94460900D01*
X184481092Y-94460900D01*
X184273534Y-94546661D01*
X183955777Y-94863865D01*
X183783596Y-95278523D01*
X183783204Y-95727508D01*
X183954661Y-96142466D01*
X184271865Y-96460223D01*
X184610193Y-96600709D01*
X184720742Y-96711258D01*
X184981907Y-96885763D01*
X184971787Y-96895865D01*
X184799606Y-97310523D01*
X184799214Y-97759508D01*
X184970671Y-98174466D01*
X185287875Y-98492223D01*
X185702533Y-98664404D01*
X186151518Y-98664796D01*
X186566476Y-98493339D01*
X186670012Y-98389983D01*
X189263501Y-98389983D01*
X189074384Y-98579100D01*
X186944000Y-98579100D01*
X186565564Y-98654376D01*
X186244742Y-98868742D01*
X186026384Y-99087100D01*
X181409454Y-99087100D01*
X181073477Y-98947590D01*
X180624492Y-98947198D01*
X180209534Y-99118655D01*
X179891777Y-99435859D01*
X179719596Y-99850517D01*
X179719204Y-100299502D01*
X179836836Y-100584193D01*
X179719602Y-100866523D01*
X179719210Y-101315508D01*
X179890667Y-101730466D01*
X180207871Y-102048223D01*
X180622529Y-102220404D01*
X181071514Y-102220796D01*
X181410088Y-102080900D01*
X188976000Y-102080900D01*
X189354436Y-102005624D01*
X189675258Y-101791258D01*
X193768675Y-97697841D01*
X193860661Y-97920466D01*
X194177865Y-98238223D01*
X194592523Y-98410404D01*
X195041508Y-98410796D01*
X195380082Y-98270900D01*
X195834000Y-98270900D01*
X196212436Y-98195624D01*
X196533258Y-97981258D01*
X197513616Y-97000900D01*
X198113556Y-97000900D01*
X198178661Y-97158466D01*
X198495865Y-97476223D01*
X198910523Y-97648404D01*
X199359508Y-97648796D01*
X199774466Y-97477339D01*
X200092223Y-97160135D01*
X200151934Y-97016335D01*
X200179100Y-97082082D01*
X200179100Y-97634384D01*
X197710384Y-100103100D01*
X196141440Y-100103100D01*
X195805477Y-99963596D01*
X195356492Y-99963204D01*
X194941534Y-100134661D01*
X194623777Y-100451865D01*
X194451596Y-100866523D01*
X194451204Y-101315508D01*
X194622661Y-101730466D01*
X194939865Y-102048223D01*
X195354523Y-102220404D01*
X195803508Y-102220796D01*
X196142082Y-102080900D01*
X198120000Y-102080900D01*
X198498436Y-102005624D01*
X198819258Y-101791258D01*
X200819008Y-99791508D01*
X208675204Y-99791508D01*
X208846661Y-100206466D01*
X209163865Y-100524223D01*
X209578523Y-100696404D01*
X209619661Y-100696440D01*
X209355777Y-100959865D01*
X209183596Y-101374523D01*
X209183204Y-101823508D01*
X209354661Y-102238466D01*
X209671865Y-102556223D01*
X210086523Y-102728404D01*
X210535508Y-102728796D01*
X210950466Y-102557339D01*
X211268223Y-102240135D01*
X211334343Y-102080900D01*
X211836000Y-102080900D01*
X212214436Y-102005624D01*
X212535258Y-101791258D01*
X216091258Y-98235258D01*
X216305624Y-97914436D01*
X216380900Y-97536000D01*
X216380900Y-97081440D01*
X216520404Y-96745477D01*
X216520796Y-96296492D01*
X216349339Y-95881534D01*
X216032135Y-95563777D01*
X215617477Y-95391596D01*
X215168492Y-95391204D01*
X214883811Y-95508831D01*
X214601477Y-95391596D01*
X214152492Y-95391204D01*
X213813918Y-95531100D01*
X210820000Y-95531100D01*
X210441564Y-95606376D01*
X210276065Y-95716959D01*
X210120742Y-95820742D01*
X209104742Y-96836742D01*
X208890376Y-97157564D01*
X208815100Y-97536000D01*
X208815100Y-99006560D01*
X208675596Y-99342523D01*
X208675204Y-99791508D01*
X200819008Y-99791508D01*
X201867258Y-98743258D01*
X202081624Y-98422436D01*
X202156900Y-98044000D01*
X202156900Y-97081440D01*
X202296404Y-96745477D01*
X202296796Y-96296492D01*
X202125339Y-95881534D01*
X201808135Y-95563777D01*
X201393477Y-95391596D01*
X200944492Y-95391204D01*
X200529534Y-95562661D01*
X200211777Y-95879865D01*
X200152066Y-96023665D01*
X200093339Y-95881534D01*
X199776135Y-95563777D01*
X199437807Y-95423291D01*
X199327258Y-95312742D01*
X199278992Y-95280492D01*
X199006436Y-95098376D01*
X198628000Y-95023100D01*
X197104000Y-95023100D01*
X196725564Y-95098376D01*
X196453008Y-95280492D01*
X196404742Y-95312742D01*
X195424384Y-96293100D01*
X195379440Y-96293100D01*
X195233864Y-96232652D01*
X199291271Y-92175245D01*
X199511865Y-92396223D01*
X199647289Y-92452456D01*
X199702661Y-92586466D01*
X200019865Y-92904223D01*
X200155289Y-92960456D01*
X200210661Y-93094466D01*
X200527865Y-93412223D01*
X200663289Y-93468456D01*
X200718661Y-93602466D01*
X201035865Y-93920223D01*
X201450523Y-94092404D01*
X201899508Y-94092796D01*
X202314466Y-93921339D01*
X202632223Y-93604135D01*
X202804404Y-93189477D01*
X202804796Y-92740492D01*
X202664900Y-92401918D01*
X202664900Y-90833616D01*
X204360869Y-89137647D01*
X218255793Y-89137647D01*
X218438097Y-89578857D01*
X218775367Y-89916717D01*
X219216258Y-90099791D01*
X219693647Y-90100207D01*
X220134857Y-89917903D01*
X220472717Y-89580633D01*
X220655791Y-89139742D01*
X220656207Y-88662353D01*
X220473903Y-88221143D01*
X220136633Y-87883283D01*
X219695742Y-87700209D01*
X219218353Y-87699793D01*
X218777143Y-87882097D01*
X218439283Y-88219367D01*
X218256209Y-88660258D01*
X218255793Y-89137647D01*
X204360869Y-89137647D01*
X204518259Y-88980257D01*
X204854466Y-88841339D01*
X205172223Y-88524135D01*
X205344404Y-88109477D01*
X205344796Y-87660492D01*
X205227169Y-87375811D01*
X205344404Y-87093477D01*
X205344796Y-86644492D01*
X205173339Y-86229534D01*
X204856135Y-85911777D01*
X204836556Y-85903647D01*
X204836796Y-85628476D01*
X204665339Y-85213518D01*
X204348135Y-84895761D01*
X204123876Y-84802640D01*
X205026259Y-83900257D01*
X205362466Y-83761339D01*
X205680223Y-83444135D01*
X205847350Y-83041647D01*
X217239793Y-83041647D01*
X217422097Y-83482857D01*
X217759367Y-83820717D01*
X218200258Y-84003791D01*
X218677647Y-84004207D01*
X219118857Y-83821903D01*
X219456717Y-83484633D01*
X219639791Y-83043742D01*
X219640207Y-82566353D01*
X219457903Y-82125143D01*
X219120633Y-81787283D01*
X218679742Y-81604209D01*
X218202353Y-81603793D01*
X217761143Y-81786097D01*
X217423283Y-82123367D01*
X217240209Y-82564258D01*
X217239793Y-83041647D01*
X205847350Y-83041647D01*
X205852404Y-83029477D01*
X205852796Y-82580492D01*
X205735169Y-82295811D01*
X205852404Y-82013477D01*
X205852796Y-81564492D01*
X205681339Y-81149534D01*
X205364135Y-80831777D01*
X204949477Y-80659596D01*
X204836699Y-80659498D01*
X204836796Y-80548492D01*
X204665339Y-80133534D01*
X204348135Y-79815777D01*
X203933477Y-79643596D01*
X203484492Y-79643204D01*
X203069534Y-79814661D01*
X202751777Y-80131865D01*
X202611291Y-80470193D01*
X194880742Y-88200742D01*
X194666376Y-88521564D01*
X194591100Y-88900000D01*
X194591100Y-91030384D01*
X190598384Y-95023100D01*
X185934444Y-95023100D01*
X185869339Y-94865534D01*
X185552135Y-94547777D01*
X185342912Y-94460900D01*
X185420000Y-94460900D01*
X185798436Y-94385624D01*
X186119258Y-94171258D01*
X189167258Y-91123258D01*
X189208480Y-91061565D01*
X189381624Y-90802436D01*
X189456900Y-90424000D01*
X189456900Y-86868000D01*
X189381624Y-86489564D01*
X189167258Y-86168742D01*
X189131445Y-86132929D01*
X189216866Y-85927211D01*
X189217282Y-85449822D01*
X189034978Y-85008612D01*
X188697708Y-84670752D01*
X188256817Y-84487678D01*
X187779428Y-84487262D01*
X187571636Y-84573120D01*
X187424900Y-84426384D01*
X187424900Y-79471508D01*
X193435204Y-79471508D01*
X193606661Y-79886466D01*
X193923865Y-80204223D01*
X194338523Y-80376404D01*
X194787508Y-80376796D01*
X195126082Y-80236900D01*
X196596000Y-80236900D01*
X196974436Y-80161624D01*
X197295258Y-79947258D01*
X199438259Y-77804257D01*
X199774466Y-77665339D01*
X200092223Y-77348135D01*
X200264404Y-76933477D01*
X200264796Y-76484492D01*
X200093339Y-76069534D01*
X199776135Y-75751777D01*
X199361477Y-75579596D01*
X198912492Y-75579204D01*
X198497534Y-75750661D01*
X198179777Y-76067865D01*
X198039291Y-76406193D01*
X196186384Y-78259100D01*
X195125440Y-78259100D01*
X194789477Y-78119596D01*
X194340492Y-78119204D01*
X193925534Y-78290661D01*
X193607777Y-78607865D01*
X193435596Y-79022523D01*
X193435204Y-79471508D01*
X187424900Y-79471508D01*
X187424900Y-73757850D01*
X187890484Y-73938302D01*
X188517895Y-73923904D01*
X188970082Y-73736603D01*
X189490484Y-73938302D01*
X190117895Y-73923904D01*
X190570082Y-73736603D01*
X191090484Y-73938302D01*
X191717895Y-73923904D01*
X192170082Y-73736603D01*
X192690484Y-73938302D01*
X193317895Y-73923904D01*
X193770082Y-73736603D01*
X194290484Y-73938302D01*
X194917895Y-73923904D01*
X195370082Y-73736603D01*
X195890484Y-73938302D01*
X196517895Y-73923904D01*
X196970082Y-73736603D01*
X197490484Y-73938302D01*
X198117895Y-73923904D01*
X198570082Y-73736603D01*
X199090484Y-73938302D01*
X199717895Y-73923904D01*
X200170082Y-73736603D01*
X200690484Y-73938302D01*
X201317895Y-73923904D01*
X201770082Y-73736603D01*
X202290484Y-73938302D01*
X202917895Y-73923904D01*
X203370082Y-73736603D01*
X203890484Y-73938302D01*
X204517895Y-73923904D01*
X204970082Y-73736603D01*
X205490484Y-73938302D01*
X206117895Y-73923904D01*
X206570082Y-73736603D01*
X207090484Y-73938302D01*
X207717895Y-73923904D01*
X207763200Y-73905138D01*
X207763200Y-74856000D01*
X207854910Y-75317057D01*
X208116078Y-75707922D01*
X211736564Y-79328409D01*
X211786933Y-79450311D01*
X212139831Y-79803825D01*
X212601150Y-79995382D01*
X213100659Y-79995818D01*
X213562311Y-79805067D01*
X213915825Y-79452169D01*
X214107382Y-78990850D01*
X214107818Y-78491341D01*
X213917067Y-78029689D01*
X213564169Y-77676175D01*
X213440787Y-77624942D01*
X211300566Y-75484722D01*
X211457565Y-75589625D01*
X211836000Y-75664900D01*
X223295095Y-75664900D01*
X224021453Y-76391258D01*
X224342275Y-76605624D01*
X224366064Y-76610356D01*
X224403865Y-76648223D01*
X224818523Y-76820404D01*
X225085000Y-76820637D01*
X225085000Y-114595000D01*
X97495000Y-114595000D01*
X97495000Y-106227376D01*
X97804258Y-106355791D01*
X98281647Y-106356207D01*
X98722857Y-106173903D01*
X99060717Y-105836633D01*
X99243791Y-105395742D01*
X99244207Y-104918353D01*
X99061903Y-104477143D01*
X98724633Y-104139283D01*
X98283742Y-103956209D01*
X97806353Y-103955793D01*
X97495000Y-104084441D01*
X97495000Y-96520000D01*
X103659100Y-96520000D01*
X103659100Y-103124000D01*
X103734376Y-103502436D01*
X103907520Y-103761565D01*
X103948742Y-103823258D01*
X104567743Y-104442259D01*
X104706661Y-104778466D01*
X105023865Y-105096223D01*
X105438523Y-105268404D01*
X105887508Y-105268796D01*
X106302466Y-105097339D01*
X106620223Y-104780135D01*
X106792404Y-104365477D01*
X106792796Y-103916492D01*
X106773441Y-103869647D01*
X108527793Y-103869647D01*
X108710097Y-104310857D01*
X109047367Y-104648717D01*
X109488258Y-104831791D01*
X109965647Y-104832207D01*
X110406857Y-104649903D01*
X110744293Y-104313057D01*
X111079367Y-104648717D01*
X111520258Y-104831791D01*
X111997647Y-104832207D01*
X112438857Y-104649903D01*
X112776717Y-104312633D01*
X112959791Y-103871742D01*
X112960207Y-103394353D01*
X112946694Y-103361647D01*
X123767793Y-103361647D01*
X123950097Y-103802857D01*
X124287367Y-104140717D01*
X124728258Y-104323791D01*
X125205647Y-104324207D01*
X125646857Y-104141903D01*
X125984717Y-103804633D01*
X126167791Y-103363742D01*
X126167792Y-103361647D01*
X126307793Y-103361647D01*
X126490097Y-103802857D01*
X126827367Y-104140717D01*
X127268258Y-104323791D01*
X127745647Y-104324207D01*
X128186857Y-104141903D01*
X128459589Y-103869647D01*
X138499793Y-103869647D01*
X138682097Y-104310857D01*
X139019367Y-104648717D01*
X139460258Y-104831791D01*
X139937647Y-104832207D01*
X140378857Y-104649903D01*
X140716293Y-104313057D01*
X141051367Y-104648717D01*
X141492258Y-104831791D01*
X141969647Y-104832207D01*
X142410857Y-104649903D01*
X142748717Y-104312633D01*
X142931791Y-103871742D01*
X142932207Y-103394353D01*
X142749903Y-102953143D01*
X142412633Y-102615283D01*
X141971742Y-102432209D01*
X141494353Y-102431793D01*
X141053143Y-102614097D01*
X140715707Y-102950943D01*
X140380633Y-102615283D01*
X139939742Y-102432209D01*
X139462353Y-102431793D01*
X139021143Y-102614097D01*
X138683283Y-102951367D01*
X138500209Y-103392258D01*
X138499793Y-103869647D01*
X128459589Y-103869647D01*
X128524717Y-103804633D01*
X128707791Y-103363742D01*
X128708207Y-102886353D01*
X128525903Y-102445143D01*
X128188633Y-102107283D01*
X127747742Y-101924209D01*
X127270353Y-101923793D01*
X126829143Y-102106097D01*
X126491283Y-102443367D01*
X126308209Y-102884258D01*
X126307793Y-103361647D01*
X126167792Y-103361647D01*
X126168207Y-102886353D01*
X125985903Y-102445143D01*
X125648633Y-102107283D01*
X125207742Y-101924209D01*
X124730353Y-101923793D01*
X124289143Y-102106097D01*
X123951283Y-102443367D01*
X123768209Y-102884258D01*
X123767793Y-103361647D01*
X112946694Y-103361647D01*
X112777903Y-102953143D01*
X112440633Y-102615283D01*
X111999742Y-102432209D01*
X111522353Y-102431793D01*
X111081143Y-102614097D01*
X110743707Y-102950943D01*
X110408633Y-102615283D01*
X109967742Y-102432209D01*
X109490353Y-102431793D01*
X109049143Y-102614097D01*
X108711283Y-102951367D01*
X108528209Y-103392258D01*
X108527793Y-103869647D01*
X106773441Y-103869647D01*
X106621339Y-103501534D01*
X106498083Y-103378063D01*
X106620223Y-103256135D01*
X106792404Y-102841477D01*
X106792796Y-102392492D01*
X106652900Y-102053918D01*
X106652900Y-101145440D01*
X106792404Y-100809477D01*
X106792796Y-100360492D01*
X106621339Y-99945534D01*
X106304135Y-99627777D01*
X105889477Y-99455596D01*
X105636900Y-99455375D01*
X105636900Y-96929616D01*
X105966259Y-96600257D01*
X106302466Y-96461339D01*
X106620223Y-96144135D01*
X106792404Y-95729477D01*
X106792796Y-95280492D01*
X106621339Y-94865534D01*
X106304135Y-94547777D01*
X105889477Y-94375596D01*
X105440492Y-94375204D01*
X105025534Y-94546661D01*
X104707777Y-94863865D01*
X104567291Y-95202193D01*
X103948742Y-95820742D01*
X103734376Y-96141564D01*
X103659100Y-96520000D01*
X97495000Y-96520000D01*
X97495000Y-77365283D01*
X102062038Y-77365283D01*
X102108329Y-77745278D01*
X102810220Y-78025890D01*
X103566069Y-78016539D01*
X104220951Y-77745278D01*
X104267242Y-77365283D01*
X103164640Y-76262681D01*
X102062038Y-77365283D01*
X97495000Y-77365283D01*
X97495000Y-71956600D01*
X97716160Y-71956600D01*
X97716160Y-72707170D01*
X97971376Y-73790229D01*
X98621634Y-74693178D01*
X99567937Y-75278551D01*
X100021878Y-75404764D01*
X100466220Y-75180288D01*
X100466220Y-71956600D01*
X100666220Y-71956600D01*
X100666220Y-75180288D01*
X101110562Y-75404764D01*
X101441559Y-75312734D01*
X101260010Y-75766840D01*
X101269361Y-76522689D01*
X101540622Y-77177571D01*
X101920617Y-77223862D01*
X103023219Y-76121260D01*
X103009077Y-76107118D01*
X103150498Y-75965697D01*
X103164640Y-75979839D01*
X104267242Y-74877237D01*
X104220951Y-74497242D01*
X103519060Y-74216630D01*
X102848013Y-74224932D01*
X103161064Y-73790229D01*
X103416280Y-72707170D01*
X103416280Y-71956600D01*
X100666220Y-71956600D01*
X100466220Y-71956600D01*
X97716160Y-71956600D01*
X97495000Y-71956600D01*
X97495000Y-71006030D01*
X97716160Y-71006030D01*
X97716160Y-71756600D01*
X100466220Y-71756600D01*
X100466220Y-68532912D01*
X100666220Y-68532912D01*
X100666220Y-71756600D01*
X103416280Y-71756600D01*
X103416280Y-71006030D01*
X107914260Y-71006030D01*
X107914260Y-71756600D01*
X110664320Y-71756600D01*
X110664320Y-68532912D01*
X110864320Y-68532912D01*
X110864320Y-71756600D01*
X113614380Y-71756600D01*
X113614380Y-71006030D01*
X113359164Y-69922971D01*
X112708906Y-69020022D01*
X111762603Y-68434649D01*
X111308662Y-68308436D01*
X110864320Y-68532912D01*
X110664320Y-68532912D01*
X110219978Y-68308436D01*
X109766037Y-68434649D01*
X108819734Y-69020022D01*
X108169476Y-69922971D01*
X107914260Y-71006030D01*
X103416280Y-71006030D01*
X103161064Y-69922971D01*
X102510806Y-69020022D01*
X101564503Y-68434649D01*
X101110562Y-68308436D01*
X100666220Y-68532912D01*
X100466220Y-68532912D01*
X100021878Y-68308436D01*
X99567937Y-68434649D01*
X98621634Y-69020022D01*
X97971376Y-69922971D01*
X97716160Y-71006030D01*
X97495000Y-71006030D01*
X97495000Y-64475000D01*
X115641576Y-64475000D01*
X115821069Y-64654493D01*
G36*
X213960136Y-97569348D02*
X211426384Y-100103100D01*
X210820000Y-100103100D01*
X210802382Y-100106604D01*
X210932404Y-99793477D01*
X210932796Y-99344492D01*
X210792900Y-99005918D01*
X210792900Y-97945616D01*
X211229616Y-97508900D01*
X213814560Y-97508900D01*
X213960136Y-97569348D01*
X213960136Y-97569348D01*
G37*
X213960136Y-97569348D02*
X211426384Y-100103100D01*
X210820000Y-100103100D01*
X210802382Y-100106604D01*
X210932404Y-99793477D01*
X210932796Y-99344492D01*
X210792900Y-99005918D01*
X210792900Y-97945616D01*
X211229616Y-97508900D01*
X213814560Y-97508900D01*
X213960136Y-97569348D01*
G36*
X147980584Y-98579100D02*
X144524466Y-98579100D01*
X144146030Y-98654376D01*
X143825208Y-98868742D01*
X142590850Y-100103100D01*
X137061616Y-100103100D01*
X134811258Y-97852742D01*
X134751051Y-97812513D01*
X134490436Y-97638376D01*
X134112000Y-97563100D01*
X130457616Y-97563100D01*
X130403416Y-97508900D01*
X146910384Y-97508900D01*
X147980584Y-98579100D01*
X147980584Y-98579100D01*
G37*
X147980584Y-98579100D02*
X144524466Y-98579100D01*
X144146030Y-98654376D01*
X143825208Y-98868742D01*
X142590850Y-100103100D01*
X137061616Y-100103100D01*
X134811258Y-97852742D01*
X134751051Y-97812513D01*
X134490436Y-97638376D01*
X134112000Y-97563100D01*
X130457616Y-97563100D01*
X130403416Y-97508900D01*
X146910384Y-97508900D01*
X147980584Y-98579100D01*
G36*
X131111997Y-78701851D02*
X131294301Y-79143061D01*
X131295534Y-79144296D01*
X131295534Y-82183614D01*
X131117677Y-82005446D01*
X130507043Y-81751889D01*
X129845858Y-81751312D01*
X129234782Y-82003803D01*
X128904835Y-82333175D01*
X128577677Y-82005446D01*
X127967043Y-81751889D01*
X127305858Y-81751312D01*
X126694782Y-82003803D01*
X126364835Y-82333175D01*
X126037677Y-82005446D01*
X125427043Y-81751889D01*
X124765858Y-81751312D01*
X124154782Y-82003803D01*
X123824835Y-82333175D01*
X123497677Y-82005446D01*
X122887043Y-81751889D01*
X122225858Y-81751312D01*
X121614782Y-82003803D01*
X121146846Y-82470923D01*
X120893289Y-83081557D01*
X120892712Y-83742742D01*
X121119435Y-84291455D01*
X120955858Y-84291312D01*
X120344782Y-84543803D01*
X119876846Y-85010923D01*
X119623289Y-85621557D01*
X119622712Y-86282742D01*
X119875203Y-86893818D01*
X120342323Y-87361754D01*
X120952957Y-87615311D01*
X121614142Y-87615888D01*
X122225218Y-87363397D01*
X122555165Y-87034025D01*
X122882323Y-87361754D01*
X123405307Y-87578915D01*
X123378174Y-87644258D01*
X123377758Y-88121647D01*
X123560062Y-88562857D01*
X123897332Y-88900717D01*
X124338223Y-89083791D01*
X124815612Y-89084207D01*
X124967828Y-89021313D01*
X125118293Y-89083791D01*
X125595682Y-89084207D01*
X125984411Y-88923588D01*
X126370223Y-89083791D01*
X126847612Y-89084207D01*
X126999828Y-89021313D01*
X127150293Y-89083791D01*
X127627682Y-89084207D01*
X128068892Y-88901903D01*
X128406752Y-88564633D01*
X128589826Y-88123742D01*
X128590242Y-87646353D01*
X128577417Y-87615315D01*
X129234142Y-87615888D01*
X129845218Y-87363397D01*
X130170297Y-87038885D01*
X129961066Y-87554330D01*
X129967040Y-88396106D01*
X130277680Y-89146056D01*
X130680072Y-89218707D01*
X131938579Y-87960200D01*
X130680072Y-86701693D01*
X130370763Y-86757538D01*
X130566711Y-86285643D01*
X130567288Y-85624458D01*
X130340565Y-85075745D01*
X130504142Y-85075888D01*
X131115218Y-84823397D01*
X131295534Y-84643395D01*
X131295534Y-85868528D01*
X131318154Y-85982249D01*
X130894144Y-86157880D01*
X130821493Y-86560272D01*
X132080000Y-87818779D01*
X132094143Y-87804637D01*
X132235564Y-87946058D01*
X132221421Y-87960200D01*
X132235564Y-87974343D01*
X132094143Y-88115764D01*
X132080000Y-88101621D01*
X130821493Y-89360128D01*
X130894144Y-89762520D01*
X131674130Y-90079134D01*
X132515906Y-90073160D01*
X132808569Y-89951935D01*
X132656375Y-90318459D01*
X132655959Y-90795848D01*
X132693054Y-90885625D01*
X132299925Y-91048062D01*
X131962065Y-91385332D01*
X131778991Y-91826223D01*
X131778575Y-92303612D01*
X131841469Y-92455828D01*
X131778991Y-92606293D01*
X131778575Y-93083682D01*
X131960879Y-93524892D01*
X132298149Y-93862752D01*
X132739040Y-94045826D01*
X133216429Y-94046242D01*
X133374248Y-93981032D01*
X133908316Y-94515100D01*
X130457616Y-94515100D01*
X125667258Y-89724742D01*
X125567343Y-89657981D01*
X125346436Y-89510376D01*
X124968000Y-89435100D01*
X115217616Y-89435100D01*
X114780900Y-88998384D01*
X114780900Y-83264128D01*
X115962493Y-83264128D01*
X116035144Y-83666520D01*
X116815130Y-83983134D01*
X117656906Y-83977160D01*
X118406856Y-83666520D01*
X118479507Y-83264128D01*
X117221000Y-82005621D01*
X115962493Y-83264128D01*
X114780900Y-83264128D01*
X114780900Y-82197616D01*
X115105012Y-81873504D01*
X115108040Y-82300106D01*
X115418680Y-83050056D01*
X115821072Y-83122707D01*
X117079579Y-81864200D01*
X117362421Y-81864200D01*
X118620928Y-83122707D01*
X119023320Y-83050056D01*
X119339934Y-82270070D01*
X119333960Y-81428294D01*
X119023320Y-80678344D01*
X118620928Y-80605693D01*
X117362421Y-81864200D01*
X117079579Y-81864200D01*
X117065437Y-81850058D01*
X117206858Y-81708637D01*
X117221000Y-81722779D01*
X118479507Y-80464272D01*
X118438455Y-80236900D01*
X118872000Y-80236900D01*
X119250436Y-80161624D01*
X119571258Y-79947258D01*
X119678750Y-79839766D01*
X119875203Y-80315218D01*
X120342323Y-80783154D01*
X120952957Y-81036711D01*
X121614142Y-81037288D01*
X122225218Y-80784797D01*
X122555165Y-80455425D01*
X122882323Y-80783154D01*
X123492957Y-81036711D01*
X124154142Y-81037288D01*
X124765218Y-80784797D01*
X125095165Y-80455425D01*
X125422323Y-80783154D01*
X126032957Y-81036711D01*
X126694142Y-81037288D01*
X127305218Y-80784797D01*
X127635165Y-80455425D01*
X127962323Y-80783154D01*
X128572957Y-81036711D01*
X129234142Y-81037288D01*
X129845218Y-80784797D01*
X130313154Y-80317677D01*
X130566711Y-79707043D01*
X130567288Y-79045858D01*
X130340565Y-78497145D01*
X130504142Y-78497288D01*
X131112394Y-78245964D01*
X131111997Y-78701851D01*
X131111997Y-78701851D01*
G37*
X131111997Y-78701851D02*
X131294301Y-79143061D01*
X131295534Y-79144296D01*
X131295534Y-82183614D01*
X131117677Y-82005446D01*
X130507043Y-81751889D01*
X129845858Y-81751312D01*
X129234782Y-82003803D01*
X128904835Y-82333175D01*
X128577677Y-82005446D01*
X127967043Y-81751889D01*
X127305858Y-81751312D01*
X126694782Y-82003803D01*
X126364835Y-82333175D01*
X126037677Y-82005446D01*
X125427043Y-81751889D01*
X124765858Y-81751312D01*
X124154782Y-82003803D01*
X123824835Y-82333175D01*
X123497677Y-82005446D01*
X122887043Y-81751889D01*
X122225858Y-81751312D01*
X121614782Y-82003803D01*
X121146846Y-82470923D01*
X120893289Y-83081557D01*
X120892712Y-83742742D01*
X121119435Y-84291455D01*
X120955858Y-84291312D01*
X120344782Y-84543803D01*
X119876846Y-85010923D01*
X119623289Y-85621557D01*
X119622712Y-86282742D01*
X119875203Y-86893818D01*
X120342323Y-87361754D01*
X120952957Y-87615311D01*
X121614142Y-87615888D01*
X122225218Y-87363397D01*
X122555165Y-87034025D01*
X122882323Y-87361754D01*
X123405307Y-87578915D01*
X123378174Y-87644258D01*
X123377758Y-88121647D01*
X123560062Y-88562857D01*
X123897332Y-88900717D01*
X124338223Y-89083791D01*
X124815612Y-89084207D01*
X124967828Y-89021313D01*
X125118293Y-89083791D01*
X125595682Y-89084207D01*
X125984411Y-88923588D01*
X126370223Y-89083791D01*
X126847612Y-89084207D01*
X126999828Y-89021313D01*
X127150293Y-89083791D01*
X127627682Y-89084207D01*
X128068892Y-88901903D01*
X128406752Y-88564633D01*
X128589826Y-88123742D01*
X128590242Y-87646353D01*
X128577417Y-87615315D01*
X129234142Y-87615888D01*
X129845218Y-87363397D01*
X130170297Y-87038885D01*
X129961066Y-87554330D01*
X129967040Y-88396106D01*
X130277680Y-89146056D01*
X130680072Y-89218707D01*
X131938579Y-87960200D01*
X130680072Y-86701693D01*
X130370763Y-86757538D01*
X130566711Y-86285643D01*
X130567288Y-85624458D01*
X130340565Y-85075745D01*
X130504142Y-85075888D01*
X131115218Y-84823397D01*
X131295534Y-84643395D01*
X131295534Y-85868528D01*
X131318154Y-85982249D01*
X130894144Y-86157880D01*
X130821493Y-86560272D01*
X132080000Y-87818779D01*
X132094143Y-87804637D01*
X132235564Y-87946058D01*
X132221421Y-87960200D01*
X132235564Y-87974343D01*
X132094143Y-88115764D01*
X132080000Y-88101621D01*
X130821493Y-89360128D01*
X130894144Y-89762520D01*
X131674130Y-90079134D01*
X132515906Y-90073160D01*
X132808569Y-89951935D01*
X132656375Y-90318459D01*
X132655959Y-90795848D01*
X132693054Y-90885625D01*
X132299925Y-91048062D01*
X131962065Y-91385332D01*
X131778991Y-91826223D01*
X131778575Y-92303612D01*
X131841469Y-92455828D01*
X131778991Y-92606293D01*
X131778575Y-93083682D01*
X131960879Y-93524892D01*
X132298149Y-93862752D01*
X132739040Y-94045826D01*
X133216429Y-94046242D01*
X133374248Y-93981032D01*
X133908316Y-94515100D01*
X130457616Y-94515100D01*
X125667258Y-89724742D01*
X125567343Y-89657981D01*
X125346436Y-89510376D01*
X124968000Y-89435100D01*
X115217616Y-89435100D01*
X114780900Y-88998384D01*
X114780900Y-83264128D01*
X115962493Y-83264128D01*
X116035144Y-83666520D01*
X116815130Y-83983134D01*
X117656906Y-83977160D01*
X118406856Y-83666520D01*
X118479507Y-83264128D01*
X117221000Y-82005621D01*
X115962493Y-83264128D01*
X114780900Y-83264128D01*
X114780900Y-82197616D01*
X115105012Y-81873504D01*
X115108040Y-82300106D01*
X115418680Y-83050056D01*
X115821072Y-83122707D01*
X117079579Y-81864200D01*
X117362421Y-81864200D01*
X118620928Y-83122707D01*
X119023320Y-83050056D01*
X119339934Y-82270070D01*
X119333960Y-81428294D01*
X119023320Y-80678344D01*
X118620928Y-80605693D01*
X117362421Y-81864200D01*
X117079579Y-81864200D01*
X117065437Y-81850058D01*
X117206858Y-81708637D01*
X117221000Y-81722779D01*
X118479507Y-80464272D01*
X118438455Y-80236900D01*
X118872000Y-80236900D01*
X119250436Y-80161624D01*
X119571258Y-79947258D01*
X119678750Y-79839766D01*
X119875203Y-80315218D01*
X120342323Y-80783154D01*
X120952957Y-81036711D01*
X121614142Y-81037288D01*
X122225218Y-80784797D01*
X122555165Y-80455425D01*
X122882323Y-80783154D01*
X123492957Y-81036711D01*
X124154142Y-81037288D01*
X124765218Y-80784797D01*
X125095165Y-80455425D01*
X125422323Y-80783154D01*
X126032957Y-81036711D01*
X126694142Y-81037288D01*
X127305218Y-80784797D01*
X127635165Y-80455425D01*
X127962323Y-80783154D01*
X128572957Y-81036711D01*
X129234142Y-81037288D01*
X129845218Y-80784797D01*
X130313154Y-80317677D01*
X130566711Y-79707043D01*
X130567288Y-79045858D01*
X130340565Y-78497145D01*
X130504142Y-78497288D01*
X131112394Y-78245964D01*
X131111997Y-78701851D01*
G36*
X124472894Y-94375410D02*
X124236492Y-94375204D01*
X123897918Y-94515100D01*
X115725616Y-94515100D01*
X114147416Y-92936900D01*
X123034384Y-92936900D01*
X124472894Y-94375410D01*
X124472894Y-94375410D01*
G37*
X124472894Y-94375410D02*
X124236492Y-94375204D01*
X123897918Y-94515100D01*
X115725616Y-94515100D01*
X114147416Y-92936900D01*
X123034384Y-92936900D01*
X124472894Y-94375410D01*
G36*
X178933248Y-85427947D02*
X178750174Y-85868838D01*
X178749758Y-86346227D01*
X178932062Y-86787437D01*
X179116626Y-86972324D01*
X179116626Y-87559331D01*
X179194015Y-87948394D01*
X179414402Y-88278225D01*
X181171793Y-90035617D01*
X181171793Y-90035682D01*
X181354097Y-90476892D01*
X181462234Y-90585218D01*
X181462234Y-90654389D01*
X181454266Y-90662343D01*
X181331042Y-90959100D01*
X173736000Y-90959100D01*
X173357564Y-91034376D01*
X173086606Y-91215424D01*
X173036742Y-91248742D01*
X172791960Y-91493524D01*
X172849986Y-91406682D01*
X172865889Y-91326733D01*
X172927375Y-91017619D01*
X172927375Y-90501560D01*
X172849986Y-90112497D01*
X172828040Y-90079653D01*
X172629599Y-89782665D01*
X172552638Y-89705704D01*
X172624925Y-89675835D01*
X172680218Y-89620638D01*
X172718097Y-89712312D01*
X173055367Y-90050172D01*
X173496258Y-90233246D01*
X173973647Y-90233662D01*
X174414857Y-90051358D01*
X174603114Y-89863430D01*
X174975263Y-89789405D01*
X175305094Y-89569018D01*
X175677600Y-89196513D01*
X175897986Y-88866682D01*
X175975375Y-88477619D01*
X175975375Y-88070886D01*
X176584906Y-88066560D01*
X177334856Y-87755920D01*
X177407507Y-87353528D01*
X176149000Y-86095021D01*
X176134858Y-86109164D01*
X175993437Y-85967743D01*
X176007579Y-85953600D01*
X175993437Y-85939458D01*
X176134858Y-85798037D01*
X176149000Y-85812179D01*
X176163143Y-85798037D01*
X176304564Y-85939458D01*
X176290421Y-85953600D01*
X177548928Y-87212107D01*
X177951320Y-87139456D01*
X178267934Y-86359470D01*
X178261960Y-85517694D01*
X178160179Y-85271974D01*
X179089494Y-85271974D01*
X178933248Y-85427947D01*
X178933248Y-85427947D01*
G37*
X178933248Y-85427947D02*
X178750174Y-85868838D01*
X178749758Y-86346227D01*
X178932062Y-86787437D01*
X179116626Y-86972324D01*
X179116626Y-87559331D01*
X179194015Y-87948394D01*
X179414402Y-88278225D01*
X181171793Y-90035617D01*
X181171793Y-90035682D01*
X181354097Y-90476892D01*
X181462234Y-90585218D01*
X181462234Y-90654389D01*
X181454266Y-90662343D01*
X181331042Y-90959100D01*
X173736000Y-90959100D01*
X173357564Y-91034376D01*
X173086606Y-91215424D01*
X173036742Y-91248742D01*
X172791960Y-91493524D01*
X172849986Y-91406682D01*
X172865889Y-91326733D01*
X172927375Y-91017619D01*
X172927375Y-90501560D01*
X172849986Y-90112497D01*
X172828040Y-90079653D01*
X172629599Y-89782665D01*
X172552638Y-89705704D01*
X172624925Y-89675835D01*
X172680218Y-89620638D01*
X172718097Y-89712312D01*
X173055367Y-90050172D01*
X173496258Y-90233246D01*
X173973647Y-90233662D01*
X174414857Y-90051358D01*
X174603114Y-89863430D01*
X174975263Y-89789405D01*
X175305094Y-89569018D01*
X175677600Y-89196513D01*
X175897986Y-88866682D01*
X175975375Y-88477619D01*
X175975375Y-88070886D01*
X176584906Y-88066560D01*
X177334856Y-87755920D01*
X177407507Y-87353528D01*
X176149000Y-86095021D01*
X176134858Y-86109164D01*
X175993437Y-85967743D01*
X176007579Y-85953600D01*
X175993437Y-85939458D01*
X176134858Y-85798037D01*
X176149000Y-85812179D01*
X176163143Y-85798037D01*
X176304564Y-85939458D01*
X176290421Y-85953600D01*
X177548928Y-87212107D01*
X177951320Y-87139456D01*
X178267934Y-86359470D01*
X178261960Y-85517694D01*
X178160179Y-85271974D01*
X179089494Y-85271974D01*
X178933248Y-85427947D01*
G36*
X160175564Y-87946058D02*
X160161421Y-87960200D01*
X160175564Y-87974343D01*
X160034143Y-88115764D01*
X160020000Y-88101621D01*
X160005858Y-88115764D01*
X159864437Y-87974343D01*
X159878579Y-87960200D01*
X159864437Y-87946058D01*
X160005858Y-87804637D01*
X160020000Y-87818779D01*
X160034143Y-87804637D01*
X160175564Y-87946058D01*
X160175564Y-87946058D01*
G37*
X160175564Y-87946058D02*
X160161421Y-87960200D01*
X160175564Y-87974343D01*
X160034143Y-88115764D01*
X160020000Y-88101621D01*
X160005858Y-88115764D01*
X159864437Y-87974343D01*
X159878579Y-87960200D01*
X159864437Y-87946058D01*
X160005858Y-87804637D01*
X160020000Y-87818779D01*
X160034143Y-87804637D01*
X160175564Y-87946058D01*
G36*
X183819165Y-81585681D02*
X183819165Y-85569053D01*
X181373114Y-83123002D01*
X181043283Y-82902615D01*
X180654220Y-82825226D01*
X177638594Y-82825226D01*
X177970857Y-82687938D01*
X178308717Y-82350668D01*
X178491791Y-81909777D01*
X178492207Y-81432388D01*
X178429313Y-81280172D01*
X178491791Y-81129707D01*
X178492119Y-80752900D01*
X178746792Y-80582732D01*
X179173359Y-80156165D01*
X179316462Y-80215587D01*
X179793851Y-80216003D01*
X180235061Y-80033699D01*
X180572921Y-79696429D01*
X180636081Y-79544322D01*
X180786653Y-79482107D01*
X181124513Y-79144837D01*
X181198981Y-78965497D01*
X183819165Y-81585681D01*
X183819165Y-81585681D01*
G37*
X183819165Y-81585681D02*
X183819165Y-85569053D01*
X181373114Y-83123002D01*
X181043283Y-82902615D01*
X180654220Y-82825226D01*
X177638594Y-82825226D01*
X177970857Y-82687938D01*
X178308717Y-82350668D01*
X178491791Y-81909777D01*
X178492207Y-81432388D01*
X178429313Y-81280172D01*
X178491791Y-81129707D01*
X178492119Y-80752900D01*
X178746792Y-80582732D01*
X179173359Y-80156165D01*
X179316462Y-80215587D01*
X179793851Y-80216003D01*
X180235061Y-80033699D01*
X180572921Y-79696429D01*
X180636081Y-79544322D01*
X180786653Y-79482107D01*
X181124513Y-79144837D01*
X181198981Y-78965497D01*
X183819165Y-81585681D01*
G36*
X161755486Y-82205598D02*
X162085317Y-82425985D01*
X162474380Y-82503374D01*
X163043371Y-82503374D01*
X162803289Y-83081557D01*
X162802712Y-83742742D01*
X163029435Y-84291455D01*
X162865858Y-84291312D01*
X162254782Y-84543803D01*
X162110222Y-84688110D01*
X161751374Y-84329262D01*
X161751374Y-82201486D01*
X161755486Y-82205598D01*
X161755486Y-82205598D01*
G37*
X161755486Y-82205598D02*
X162085317Y-82425985D01*
X162474380Y-82503374D01*
X163043371Y-82503374D01*
X162803289Y-83081557D01*
X162802712Y-83742742D01*
X163029435Y-84291455D01*
X162865858Y-84291312D01*
X162254782Y-84543803D01*
X162110222Y-84688110D01*
X161751374Y-84329262D01*
X161751374Y-82201486D01*
X161755486Y-82205598D01*
G36*
X175644164Y-79614858D02*
X175630021Y-79629000D01*
X175644164Y-79643143D01*
X175502743Y-79784564D01*
X175488600Y-79770421D01*
X175474458Y-79784564D01*
X175333037Y-79643143D01*
X175347179Y-79629000D01*
X175333037Y-79614858D01*
X175474458Y-79473437D01*
X175488600Y-79487579D01*
X175502743Y-79473437D01*
X175644164Y-79614858D01*
X175644164Y-79614858D01*
G37*
X175644164Y-79614858D02*
X175630021Y-79629000D01*
X175644164Y-79643143D01*
X175502743Y-79784564D01*
X175488600Y-79770421D01*
X175474458Y-79784564D01*
X175333037Y-79643143D01*
X175347179Y-79629000D01*
X175333037Y-79614858D01*
X175474458Y-79473437D01*
X175488600Y-79487579D01*
X175502743Y-79473437D01*
X175644164Y-79614858D01*
G36*
X183849432Y-71819710D02*
X184593435Y-72128648D01*
X185399030Y-72129351D01*
X185447100Y-72109489D01*
X185447100Y-78384584D01*
X183360900Y-76298384D01*
X183360900Y-71330325D01*
X183849432Y-71819710D01*
X183849432Y-71819710D01*
G37*
X183849432Y-71819710D02*
X184593435Y-72128648D01*
X185399030Y-72129351D01*
X185447100Y-72109489D01*
X185447100Y-78384584D01*
X183360900Y-76298384D01*
X183360900Y-71330325D01*
X183849432Y-71819710D01*
G36*
X118036964Y-76338258D02*
X118022821Y-76352400D01*
X118036964Y-76366543D01*
X117895543Y-76507964D01*
X117881400Y-76493821D01*
X117867258Y-76507964D01*
X117725837Y-76366543D01*
X117739979Y-76352400D01*
X117725837Y-76338258D01*
X117867258Y-76196837D01*
X117881400Y-76210979D01*
X117895543Y-76196837D01*
X118036964Y-76338258D01*
X118036964Y-76338258D01*
G37*
X118036964Y-76338258D02*
X118022821Y-76352400D01*
X118036964Y-76366543D01*
X117895543Y-76507964D01*
X117881400Y-76493821D01*
X117867258Y-76507964D01*
X117725837Y-76366543D01*
X117739979Y-76352400D01*
X117725837Y-76338258D01*
X117867258Y-76196837D01*
X117881400Y-76210979D01*
X117895543Y-76196837D01*
X118036964Y-76338258D01*
G36*
X125343865Y-74616223D02*
X125758523Y-74788404D01*
X126207508Y-74788796D01*
X126494383Y-74670262D01*
X126550661Y-74806466D01*
X126867865Y-75124223D01*
X127144852Y-75239238D01*
X126694782Y-75425203D01*
X126364835Y-75754575D01*
X126037677Y-75426846D01*
X125427043Y-75173289D01*
X124765858Y-75172712D01*
X124154782Y-75425203D01*
X123824835Y-75754575D01*
X123497677Y-75426846D01*
X123172025Y-75291624D01*
X123574466Y-75125339D01*
X123892223Y-74808135D01*
X123949551Y-74670073D01*
X124234523Y-74788404D01*
X124683508Y-74788796D01*
X125098466Y-74617339D01*
X125221937Y-74494083D01*
X125343865Y-74616223D01*
X125343865Y-74616223D01*
G37*
X125343865Y-74616223D02*
X125758523Y-74788404D01*
X126207508Y-74788796D01*
X126494383Y-74670262D01*
X126550661Y-74806466D01*
X126867865Y-75124223D01*
X127144852Y-75239238D01*
X126694782Y-75425203D01*
X126364835Y-75754575D01*
X126037677Y-75426846D01*
X125427043Y-75173289D01*
X124765858Y-75172712D01*
X124154782Y-75425203D01*
X123824835Y-75754575D01*
X123497677Y-75426846D01*
X123172025Y-75291624D01*
X123574466Y-75125339D01*
X123892223Y-74808135D01*
X123949551Y-74670073D01*
X124234523Y-74788404D01*
X124683508Y-74788796D01*
X125098466Y-74617339D01*
X125221937Y-74494083D01*
X125343865Y-74616223D01*
G36*
X128443743Y-74978259D02*
X128582661Y-75314466D01*
X128899865Y-75632223D01*
X128989935Y-75669623D01*
X128904835Y-75754575D01*
X128577677Y-75426846D01*
X127998652Y-75186414D01*
X128146466Y-75125339D01*
X128368838Y-74903354D01*
X128443743Y-74978259D01*
X128443743Y-74978259D01*
G37*
X128443743Y-74978259D02*
X128582661Y-75314466D01*
X128899865Y-75632223D01*
X128989935Y-75669623D01*
X128904835Y-75754575D01*
X128577677Y-75426846D01*
X127998652Y-75186414D01*
X128146466Y-75125339D01*
X128368838Y-74903354D01*
X128443743Y-74978259D01*
G36*
X117476261Y-70987684D02*
X117861879Y-71920953D01*
X118282837Y-72342647D01*
X114893197Y-75732287D01*
X114525477Y-75579596D01*
X114076492Y-75579204D01*
X113791811Y-75696831D01*
X113509477Y-75579596D01*
X113060492Y-75579204D01*
X112733236Y-75714423D01*
X112658942Y-75683574D01*
X117476367Y-70866149D01*
X117476261Y-70987684D01*
X117476261Y-70987684D01*
G37*
X117476261Y-70987684D02*
X117861879Y-71920953D01*
X118282837Y-72342647D01*
X114893197Y-75732287D01*
X114525477Y-75579596D01*
X114076492Y-75579204D01*
X113791811Y-75696831D01*
X113509477Y-75579596D01*
X113060492Y-75579204D01*
X112733236Y-75714423D01*
X112658942Y-75683574D01*
X117476367Y-70866149D01*
X117476261Y-70987684D01*
G36*
X124104584Y-70639100D02*
X123444000Y-70639100D01*
X123065564Y-70714376D01*
X122761381Y-70917624D01*
X122744742Y-70928742D01*
X122461603Y-71211881D01*
X122552858Y-70992114D01*
X122553739Y-69982316D01*
X122173019Y-69060900D01*
X122526384Y-69060900D01*
X124104584Y-70639100D01*
X124104584Y-70639100D01*
G37*
X124104584Y-70639100D02*
X123444000Y-70639100D01*
X123065564Y-70714376D01*
X122761381Y-70917624D01*
X122744742Y-70928742D01*
X122461603Y-71211881D01*
X122552858Y-70992114D01*
X122553739Y-69982316D01*
X122173019Y-69060900D01*
X122526384Y-69060900D01*
X124104584Y-70639100D01*
G36*
X225085000Y-68975435D02*
X224992702Y-68975354D01*
X224985339Y-68957534D01*
X224668135Y-68639777D01*
X224253477Y-68467596D01*
X223804492Y-68467204D01*
X223516123Y-68586355D01*
X223621894Y-68480769D01*
X223892691Y-67828618D01*
X223893307Y-67122480D01*
X223623649Y-66469857D01*
X223124769Y-65970106D01*
X222472618Y-65699309D01*
X221766480Y-65698693D01*
X221113857Y-65968351D01*
X220693996Y-66387480D01*
X219139258Y-64832742D01*
X218981219Y-64727144D01*
X218818436Y-64618376D01*
X218440000Y-64543100D01*
X207772000Y-64543100D01*
X207393565Y-64618375D01*
X207072742Y-64832742D01*
X206268742Y-65636742D01*
X206054376Y-65957564D01*
X205979100Y-66336000D01*
X205979100Y-67476315D01*
X205895196Y-67476242D01*
X205388717Y-67685515D01*
X205368304Y-67705892D01*
X205349321Y-67686876D01*
X204843208Y-67476720D01*
X204295196Y-67476242D01*
X203788717Y-67685515D01*
X203768304Y-67705892D01*
X203749321Y-67686876D01*
X203243208Y-67476720D01*
X202695196Y-67476242D01*
X202188717Y-67685515D01*
X202168304Y-67705892D01*
X202149321Y-67686876D01*
X201643208Y-67476720D01*
X201095196Y-67476242D01*
X200588717Y-67685515D01*
X200568304Y-67705892D01*
X200549321Y-67686876D01*
X200043208Y-67476720D01*
X199495196Y-67476242D01*
X198988717Y-67685515D01*
X198968304Y-67705892D01*
X198949321Y-67686876D01*
X198443208Y-67476720D01*
X197895196Y-67476242D01*
X197388717Y-67685515D01*
X197368304Y-67705892D01*
X197349321Y-67686876D01*
X196843208Y-67476720D01*
X196295196Y-67476242D01*
X195788717Y-67685515D01*
X195768304Y-67705892D01*
X195749321Y-67686876D01*
X195243208Y-67476720D01*
X195156900Y-67476645D01*
X195156900Y-66152000D01*
X195081624Y-65773564D01*
X194867258Y-65452742D01*
X193889516Y-64475000D01*
X225085000Y-64475000D01*
X225085000Y-68975435D01*
X225085000Y-68975435D01*
G37*
X225085000Y-68975435D02*
X224992702Y-68975354D01*
X224985339Y-68957534D01*
X224668135Y-68639777D01*
X224253477Y-68467596D01*
X223804492Y-68467204D01*
X223516123Y-68586355D01*
X223621894Y-68480769D01*
X223892691Y-67828618D01*
X223893307Y-67122480D01*
X223623649Y-66469857D01*
X223124769Y-65970106D01*
X222472618Y-65699309D01*
X221766480Y-65698693D01*
X221113857Y-65968351D01*
X220693996Y-66387480D01*
X219139258Y-64832742D01*
X218981219Y-64727144D01*
X218818436Y-64618376D01*
X218440000Y-64543100D01*
X207772000Y-64543100D01*
X207393565Y-64618375D01*
X207072742Y-64832742D01*
X206268742Y-65636742D01*
X206054376Y-65957564D01*
X205979100Y-66336000D01*
X205979100Y-67476315D01*
X205895196Y-67476242D01*
X205388717Y-67685515D01*
X205368304Y-67705892D01*
X205349321Y-67686876D01*
X204843208Y-67476720D01*
X204295196Y-67476242D01*
X203788717Y-67685515D01*
X203768304Y-67705892D01*
X203749321Y-67686876D01*
X203243208Y-67476720D01*
X202695196Y-67476242D01*
X202188717Y-67685515D01*
X202168304Y-67705892D01*
X202149321Y-67686876D01*
X201643208Y-67476720D01*
X201095196Y-67476242D01*
X200588717Y-67685515D01*
X200568304Y-67705892D01*
X200549321Y-67686876D01*
X200043208Y-67476720D01*
X199495196Y-67476242D01*
X198988717Y-67685515D01*
X198968304Y-67705892D01*
X198949321Y-67686876D01*
X198443208Y-67476720D01*
X197895196Y-67476242D01*
X197388717Y-67685515D01*
X197368304Y-67705892D01*
X197349321Y-67686876D01*
X196843208Y-67476720D01*
X196295196Y-67476242D01*
X195788717Y-67685515D01*
X195768304Y-67705892D01*
X195749321Y-67686876D01*
X195243208Y-67476720D01*
X195156900Y-67476645D01*
X195156900Y-66152000D01*
X195081624Y-65773564D01*
X194867258Y-65452742D01*
X193889516Y-64475000D01*
X225085000Y-64475000D01*
X225085000Y-68975435D01*
M02*
