M48
;DRILL file {KiCad 4.0.1-3.201512221402+6198~38~ubuntu14.04.1-stable} date Thu 11 Feb 2016 02:04:14 PM MST
;FORMAT={3:3/ absolute / metric / suppress leading zeros}
FMAT,2
METRIC,TZ
T1C0.254
T2C0.400
T3C0.406
T4C0.650
T5C0.889
T6C1.001
T7C1.200
T8C1.575
T9C2.200
T10C1.750
T11C3.277
%
G90
G05
M71
T1
X105664Y-95504
X105664Y-100584
X105664Y-102616
X105664Y-104140
X110236Y-78232
X112328Y-76768
X113284Y-76708
X114300Y-76708
X120904Y-101092
X120904Y-102108
X122936Y-74168
X124460Y-73660
X124460Y-95504
X124460Y-96520
X125984Y-73660
X127508Y-74168
X129540Y-74676
X150876Y-100076
X150876Y-101600
X153924Y-95504
X153924Y-96520
X166116Y-100584
X166116Y-102108
X169672Y-95504
X169672Y-96520
X175260Y-69596
X176276Y-69596
X178308Y-74168
X180264Y-64516
X180848Y-100076
X180848Y-101092
X181356Y-64516
X181356Y-65532
X182372Y-65532
X184912Y-95504
X185928Y-97536
X194564Y-79248
X194818Y-97282
X195580Y-101092
X199136Y-76708
X199136Y-96520
X200152Y-91440
X200660Y-91948
X201168Y-92456
X201168Y-96520
X201676Y-92964
X202692Y-86360
X203708Y-80772
X203708Y-81788
X203708Y-85852
X204216Y-86868
X204216Y-87884
X204724Y-81788
X204724Y-82804
X209804Y-99568
X210312Y-101600
X214376Y-96520
X215392Y-96520
X224028Y-69596
X224028Y-73660
X225044Y-70104
X225044Y-72644
X225044Y-75692
X225552Y-70612
X225552Y-71628
X225628Y-74676
T2
X97536Y-70104
X97580Y-89408
X98044Y-82804
X98044Y-105156
X98552Y-78740
X98552Y-84328
X99060Y-105156
X99560Y-78740
X99568Y-82804
X101600Y-79756
X102108Y-113792
X103124Y-84836
X103864Y-91164
X104382Y-92456
X104416Y-91716
X104648Y-90424
X104648Y-95504
X105664Y-65024
X105664Y-93980
X105672Y-98552
X106171Y-103124
X106172Y-100068
X106680Y-104648
X107046Y-84694
X107598Y-85246
X108204Y-83578
X108305Y-85078
X108712Y-93980
X108712Y-98044
X109543Y-78195
X109728Y-103632
X110236Y-97536
X110744Y-98552
X110744Y-99568
X111649Y-76089
X111760Y-103632
X112379Y-80375
X112776Y-99060
X114185Y-73553
X114458Y-81851
X117348Y-72136
X117856Y-89408
X120396Y-102616
X120396Y-113792
X120904Y-65024
X120904Y-100076
X122428Y-74684
X122673Y-69841
X122936Y-92964
X124460Y-94488
X124460Y-97176
X124460Y-98044
X124460Y-107696
X124578Y-87884
X124968Y-74676
X124968Y-103124
X125358Y-87884
X125984Y-99568
X126492Y-74676
X126492Y-98552
X126610Y-87884
X127390Y-87884
X127508Y-103124
X128016Y-69088
X128524Y-75184
X128524Y-99060
X131064Y-75192
X132080Y-92964
X132312Y-78464
X132588Y-77216
X132864Y-79016
X132979Y-92066
X132979Y-92846
X133096Y-75692
X133119Y-90955
X133627Y-78763
X133856Y-90558
X134112Y-84328
X134135Y-82319
X134636Y-90558
X134823Y-82900
X134823Y-83680
X134997Y-91440
X135124Y-94488
X135680Y-98088
X135904Y-94488
X137160Y-92964
X137328Y-88224
X137581Y-88987
X137879Y-87673
X138684Y-93980
X139192Y-97536
X139379Y-87211
X139700Y-103632
X140716Y-99068
X140716Y-100076
X141224Y-65024
X141224Y-91440
X141732Y-87884
X141732Y-103632
X141964Y-91416
X142516Y-91967
X142748Y-99068
X142748Y-100076
X142781Y-88141
X143256Y-92456
X143561Y-88141
X143764Y-113792
X144272Y-87376
X145231Y-102025
X145288Y-101092
X145782Y-102576
X145796Y-103632
X147320Y-76708
X148821Y-103147
X149860Y-101600
X149938Y-103542
X150183Y-100113
X150489Y-102990
X151384Y-98044
X151892Y-92964
X152400Y-69596
X153924Y-93980
X153924Y-97536
X154432Y-88900
X154432Y-98044
X154580Y-96520
X154940Y-94996
X154940Y-103124
X155956Y-98552
X155956Y-99568
X156972Y-103124
X157988Y-99060
X158334Y-90586
X158496Y-97536
X158981Y-93957
X158985Y-96796
X159236Y-92983
X159536Y-96244
X159788Y-92432
X160138Y-77216
X160528Y-76200
X160918Y-77216
X161036Y-106172
X161289Y-92432
X162052Y-82804
X162560Y-75184
X163068Y-65024
X165100Y-100076
X165100Y-102108
X166624Y-94488
X166624Y-98044
X167640Y-91440
X168148Y-93472
X168148Y-113792
X168456Y-90285
X168456Y-91065
X169164Y-97163
X169415Y-92456
X169561Y-97933
X169776Y-93486
X170180Y-103632
X170317Y-96004
X170556Y-93486
X170688Y-69088
X171196Y-99060
X171196Y-100076
X171946Y-88658
X172212Y-86360
X172212Y-103632
X172498Y-88106
X172952Y-85620
X173033Y-88849
X173228Y-65024
X173228Y-99568
X173504Y-85068
X173736Y-88253
X173736Y-89033
X174244Y-89916
X175653Y-68179
X175768Y-82391
X175768Y-83171
X176276Y-70612
X176661Y-82031
X177292Y-80890
X177292Y-81670
X177459Y-79267
X177459Y-80047
X177918Y-75692
X178308Y-80408
X178308Y-82296
X178698Y-75692
X178824Y-73660
X179189Y-85921
X179324Y-76200
X179435Y-64405
X179556Y-79016
X179950Y-86109
X180108Y-78464
X180340Y-99568
X180340Y-101600
X180730Y-86109
X180871Y-78717
X181285Y-89479
X181356Y-86626
X181356Y-93988
X181356Y-98044
X181749Y-91432
X181864Y-66556
X182372Y-89018
X182372Y-89798
X182471Y-91343
X182880Y-84062
X182900Y-80530
X183023Y-90791
X183388Y-74168
X183896Y-94488
X183896Y-98044
X184912Y-98044
X184912Y-103632
X185928Y-99060
X186436Y-98044
X186436Y-103632
X188017Y-85687
X188468Y-100576
X189992Y-74168
X192532Y-113792
X194056Y-97536
X195072Y-100584
X195977Y-79867
X196088Y-94996
X196088Y-98552
X197612Y-74168
X198628Y-93472
X198628Y-97536
X199621Y-90447
X199636Y-92456
X199644Y-77724
X199644Y-97028
X199644Y-103124
X200152Y-65024
X200152Y-98044
X200660Y-100076
X201168Y-99060
X201684Y-96012
X202184Y-103632
X203200Y-100076
X203708Y-79756
X203980Y-84564
X204386Y-88517
X205740Y-83312
X205740Y-106680
X206248Y-73660
X209804Y-82804
X209804Y-100584
X211328Y-94488
X211328Y-98552
X211836Y-82296
X212344Y-93472
X213360Y-79756
X213868Y-97536
X214884Y-103632
X215392Y-113792
X215400Y-95504
X215900Y-87884
X215900Y-89916
X215900Y-98044
X215900Y-100076
X216408Y-99060
X217424Y-83312
X217424Y-103632
X217932Y-98044
X218440Y-82804
X218948Y-78740
X219456Y-88900
X220472Y-82804
X220472Y-88900
X220980Y-65024
X220980Y-75692
X220980Y-78232
X224536Y-109728
X225044Y-69088
X225052Y-73652
X225052Y-75036
T3
X212852Y-78740
T4
X187768Y-70004
X188168Y-72354
X188568Y-68854
X188968Y-71204
X189368Y-70004
X189768Y-72354
X190168Y-68854
X190568Y-71204
X190968Y-70004
X191368Y-72354
X191768Y-68854
X192168Y-71204
X192568Y-70004
X192968Y-72354
X193368Y-68854
X193768Y-71204
X194168Y-70004
X194568Y-72354
X194968Y-68854
X195368Y-71204
X195768Y-70004
X196168Y-72354
X196568Y-68854
X196968Y-71204
X197368Y-70004
X197768Y-72354
X198168Y-68854
X198568Y-71204
X198968Y-70004
X199368Y-72354
X199768Y-68854
X200168Y-71204
X200568Y-70004
X200968Y-72354
X201368Y-68854
X201768Y-71204
X202168Y-70004
X202568Y-72354
X202968Y-68854
X203368Y-71204
X203768Y-70004
X204168Y-72354
X204568Y-68854
X204968Y-71204
X205368Y-70004
X205768Y-72354
X206168Y-68854
X206568Y-71204
X206968Y-70004
X207368Y-72354
X207768Y-68854
X208168Y-71204
X208568Y-70004
X208968Y-72354
X209368Y-68854
X209768Y-71204
X210168Y-70004
X210568Y-72354
X210968Y-68854
X211368Y-71204
X211768Y-70004
X212168Y-72354
X212568Y-68854
X212968Y-71204
X213368Y-70004
X213768Y-72354
X214168Y-68854
X214568Y-71204
T5
X121285Y-79375
X121285Y-85954
X122555Y-76835
X122555Y-83414
X123825Y-79375
X123825Y-85954
X125095Y-76835
X125095Y-83414
X126365Y-79375
X126365Y-85954
X127635Y-76835
X127635Y-83414
X128905Y-79375
X128905Y-85954
X130175Y-76835
X130175Y-83414
X135255Y-79375
X135255Y-85954
X136525Y-76835
X136525Y-83414
X137795Y-79375
X137795Y-85954
X139065Y-76835
X139065Y-83414
X140335Y-79375
X140335Y-85954
X141605Y-76835
X141605Y-83414
X142875Y-79375
X142875Y-85954
X144145Y-76835
X144145Y-83414
X149225Y-79375
X149225Y-85954
X150495Y-76835
X150495Y-83414
X151765Y-79375
X151765Y-85954
X153035Y-76835
X153035Y-83414
X154305Y-79375
X154305Y-85954
X155575Y-76835
X155575Y-83414
X156845Y-79375
X156845Y-85954
X158115Y-76835
X158115Y-83414
X163195Y-79375
X163195Y-85954
X164465Y-76835
X164465Y-83414
X165735Y-79375
X165735Y-85954
X167005Y-76835
X167005Y-83414
X168275Y-79375
X168275Y-85954
X169545Y-76835
X169545Y-83414
X170815Y-79375
X170815Y-85954
X172085Y-76835
X172085Y-83414
T6
X103165Y-76121
X105664Y-76121
T7
X184998Y-70104
X217348Y-70104
T8
X117221Y-65913
X117221Y-81864
X117881Y-76352
X132080Y-87960
X146050Y-87960
X160020Y-87960
X175489Y-79629
X176149Y-65913
X176149Y-85954
T9
X100566Y-71857
X110764Y-71857
T10
X180218Y-67474
X222118Y-67474
T11
X120015Y-70485
X173355Y-70485
T0
M30
