G04 #@! TF.FileFunction,Paste,Top*
%FSLAX46Y46*%
G04 Gerber Fmt 4.6, Leading zero omitted, Abs format (unit mm)*
G04 Created by KiCad (PCBNEW 4.0.1-3.201512221402+6198~38~ubuntu14.04.1-stable) date Fri 12 Feb 2016 10:18:42 AM MST*
%MOMM*%
G01*
G04 APERTURE LIST*
%ADD10C,0.100000*%
%ADD11R,1.500000X0.600000*%
%ADD12R,3.250000X2.150000*%
%ADD13R,0.950000X2.150000*%
%ADD14R,0.600000X0.600000*%
%ADD15R,0.400000X0.600000*%
%ADD16R,0.750000X1.200000*%
%ADD17R,1.200000X0.750000*%
%ADD18R,1.200000X0.900000*%
G04 APERTURE END LIST*
D10*
D11*
X137320000Y-102997000D03*
X137320000Y-101727000D03*
X137320000Y-100457000D03*
X137320000Y-99187000D03*
X137320000Y-97917000D03*
X137320000Y-96647000D03*
X137320000Y-95377000D03*
X137320000Y-94107000D03*
X131920000Y-94107000D03*
X131920000Y-95377000D03*
X131920000Y-96647000D03*
X131920000Y-97917000D03*
X131920000Y-99187000D03*
X131920000Y-100457000D03*
X131920000Y-101727000D03*
X131920000Y-102997000D03*
X152560000Y-102997000D03*
X152560000Y-101727000D03*
X152560000Y-100457000D03*
X152560000Y-99187000D03*
X152560000Y-97917000D03*
X152560000Y-96647000D03*
X152560000Y-95377000D03*
X152560000Y-94107000D03*
X147160000Y-94107000D03*
X147160000Y-95377000D03*
X147160000Y-96647000D03*
X147160000Y-97917000D03*
X147160000Y-99187000D03*
X147160000Y-100457000D03*
X147160000Y-101727000D03*
X147160000Y-102997000D03*
D12*
X217932000Y-86212000D03*
D13*
X220232000Y-80412000D03*
X217932000Y-80412000D03*
X215632000Y-80412000D03*
D11*
X197264000Y-102997000D03*
X197264000Y-101727000D03*
X197264000Y-100457000D03*
X197264000Y-99187000D03*
X197264000Y-97917000D03*
X197264000Y-96647000D03*
X197264000Y-95377000D03*
X197264000Y-94107000D03*
X191864000Y-94107000D03*
X191864000Y-95377000D03*
X191864000Y-96647000D03*
X191864000Y-97917000D03*
X191864000Y-99187000D03*
X191864000Y-100457000D03*
X191864000Y-101727000D03*
X191864000Y-102997000D03*
X182532000Y-102997000D03*
X182532000Y-101727000D03*
X182532000Y-100457000D03*
X182532000Y-99187000D03*
X182532000Y-97917000D03*
X182532000Y-96647000D03*
X182532000Y-95377000D03*
X182532000Y-94107000D03*
X177132000Y-94107000D03*
X177132000Y-95377000D03*
X177132000Y-96647000D03*
X177132000Y-97917000D03*
X177132000Y-99187000D03*
X177132000Y-100457000D03*
X177132000Y-101727000D03*
X177132000Y-102997000D03*
X167800000Y-102997000D03*
X167800000Y-101727000D03*
X167800000Y-100457000D03*
X167800000Y-99187000D03*
X167800000Y-97917000D03*
X167800000Y-96647000D03*
X167800000Y-95377000D03*
X167800000Y-94107000D03*
X162400000Y-94107000D03*
X162400000Y-95377000D03*
X162400000Y-96647000D03*
X162400000Y-97917000D03*
X162400000Y-99187000D03*
X162400000Y-100457000D03*
X162400000Y-101727000D03*
X162400000Y-102997000D03*
X107348000Y-102997000D03*
X107348000Y-101727000D03*
X107348000Y-100457000D03*
X107348000Y-99187000D03*
X107348000Y-97917000D03*
X107348000Y-96647000D03*
X107348000Y-95377000D03*
X107348000Y-94107000D03*
X101948000Y-94107000D03*
X101948000Y-95377000D03*
X101948000Y-96647000D03*
X101948000Y-97917000D03*
X101948000Y-99187000D03*
X101948000Y-100457000D03*
X101948000Y-101727000D03*
X101948000Y-102997000D03*
X122588000Y-102997000D03*
X122588000Y-101727000D03*
X122588000Y-100457000D03*
X122588000Y-99187000D03*
X122588000Y-97917000D03*
X122588000Y-96647000D03*
X122588000Y-95377000D03*
X122588000Y-94107000D03*
X117188000Y-94107000D03*
X117188000Y-95377000D03*
X117188000Y-96647000D03*
X117188000Y-97917000D03*
X117188000Y-99187000D03*
X117188000Y-100457000D03*
X117188000Y-101727000D03*
X117188000Y-102997000D03*
D14*
X99810000Y-79872000D03*
D15*
X99060000Y-79872000D03*
D14*
X98310000Y-79872000D03*
X98310000Y-81672000D03*
D15*
X99060000Y-81672000D03*
D14*
X99810000Y-81672000D03*
D11*
X212504000Y-102997000D03*
X212504000Y-101727000D03*
X212504000Y-100457000D03*
X212504000Y-99187000D03*
X212504000Y-97917000D03*
X212504000Y-96647000D03*
X212504000Y-95377000D03*
X212504000Y-94107000D03*
X207104000Y-94107000D03*
X207104000Y-95377000D03*
X207104000Y-96647000D03*
X207104000Y-97917000D03*
X207104000Y-99187000D03*
X207104000Y-100457000D03*
X207104000Y-101727000D03*
X207104000Y-102997000D03*
D16*
X156972000Y-101026000D03*
X156972000Y-99126000D03*
X172212000Y-101026000D03*
X172212000Y-99126000D03*
X187325000Y-101300000D03*
X187325000Y-99400000D03*
X141732000Y-101026000D03*
X141732000Y-99126000D03*
X127508000Y-101026000D03*
X127508000Y-99126000D03*
X111760000Y-101026000D03*
X111760000Y-99126000D03*
X217424000Y-101280000D03*
X217424000Y-99380000D03*
X202184000Y-101300000D03*
X202184000Y-99400000D03*
X214884000Y-101280000D03*
X214884000Y-99380000D03*
X109728000Y-101026000D03*
X109728000Y-99126000D03*
X199644000Y-101260000D03*
X199644000Y-99360000D03*
X139700000Y-101026000D03*
X139700000Y-99126000D03*
X170180000Y-101026000D03*
X170180000Y-99126000D03*
X184785000Y-101300000D03*
X184785000Y-99400000D03*
X124968000Y-101026000D03*
X124968000Y-99126000D03*
X154940000Y-101026000D03*
X154940000Y-99126000D03*
D17*
X213040000Y-83820000D03*
X211140000Y-83820000D03*
X217866000Y-88900000D03*
X215966000Y-88900000D03*
D18*
X103040000Y-82550000D03*
X105240000Y-82550000D03*
X105240000Y-80010000D03*
X103040000Y-80010000D03*
M02*
